<svg xmlns:rdf="http://www.w3.org/1999/02/22-rdf-syntax-ns#" xmlns="http://www.w3.org/2000/svg" height="64.992" width="63.45" version="1.1" xmlns:cc="http://creativecommons.org/ns#" xmlns:dc="http://purl.org/dc/elements/1.1/" viewBox="0 0 63.449589 64.992024">
 <g transform="translate(336.65 -51.308)">
  <g fill="#599de0" transform="translate(-337.39 51.284)">
   <path fill-rule="evenodd" clip-rule="evenodd" d="m64.179 15.137c-0.0023-0.01794-0.0054-0.03564-0.0082-0.05328-0.01044-0.06592-0.02423-0.13062-0.04193-0.19391-0.0026-0.0098-0.0046-0.01935-0.0074-0.02911-0.02191-0.07312-0.04852-0.14435-0.07947-0.21326-0.0051-0.0116-0.01123-0.02277-0.0166-0.03442-0.0282-0.05957-0.05964-0.11731-0.09412-0.17297-0.0068-0.01117-0.01331-0.02258-0.02032-0.03351-0.04028-0.06189-0.08435-0.12103-0.13214-0.17712-0.0093-0.01092-0.01935-0.02118-0.02911-0.03217-0.04199-0.04675-0.08624-0.09119-0.13287-0.13336-0.0119-0.01068-0.02332-0.02185-0.03546-0.0321-0.05664-0.0484-0.11627-0.09338-0.17877-0.13434-0.0098-0.0063-0.01977-0.01184-0.0296-0.01788-0.05945-0.03729-0.12122-0.0708-0.18506-0.10083-0.0065-0.003-0.01239-0.0072-0.01886-0.01025l-29.977-13.588c-0.45892-0.20831-0.98596-0.20831-1.4449 0l-20.713 9.3885c-0.87921 0.3985-1.2682 1.4332-0.8692 2.3112 0.3988 0.87805 1.4354 1.2677 2.3143 0.86804l19.99-9.0614 25.691 11.644-25.691 11.275-29.273-12.847c-0.00208-0.000916-0.00415-0.0014-0.00629-0.0023-0.042847-0.01861-0.087158-0.03467-0.13165-0.05005-0.01123-0.004-0.0224-0.0086-0.033569-0.01233-0.036621-0.01166-0.074341-0.02075-0.11188-0.03003-0.019836-0.0049-0.039673-0.01099-0.059692-0.01514-0.023987-0.0051-0.048706-0.0079-0.073181-0.01209-0.034058-0.0056-0.068054-0.0119-0.10211-0.01563-0.015808-0.0016-0.03241-0.0018-0.048462-0.0031-0.042664-0.0032-0.085083-0.006-0.1275-0.0063-0.00305 0-0.00586-0.000427-0.00885-0.000427-0.016541 0-0.032654 0.0021-0.04895 0.0026-0.037781 0.000916-0.075562 0.0021-0.11285 0.0056-0.029114 0.0026-0.057556 0.0073-0.086243 0.01141-0.026306 0.004-0.052918 0.007-0.078735 0.01208-0.035706 0.0068-0.070435 0.01563-0.10541 0.02423-0.01886 0.0049-0.03772 0.0091-0.056397 0.01465-0.03772 0.01099-0.074585 0.02399-0.11115 0.03729-0.015869 0.0056-0.031738 0.01092-0.047363 0.01721-0.036133 0.0144-0.071289 0.03046-0.10626 0.04724-0.016113 0.0079-0.032654 0.01514-0.048462 0.0235-0.031738 0.0163-0.062744 0.03424-0.093262 0.05261-0.01886 0.01117-0.037781 0.0221-0.055969 0.034-0.026306 0.01697-0.051697 0.0354-0.077148 0.05377-0.021179 0.01538-0.042419 0.0307-0.062927 0.047-0.021423 0.01727-0.042175 0.0354-0.062683 0.05359-0.0224 0.01953-0.044495 0.03888-0.065735 0.05957-0.018433 0.01788-0.035889 0.03699-0.053345 0.0556-0.020996 0.0224-0.041992 0.04449-0.062012 0.06799-0.017761 0.02093-0.034302 0.04327-0.051331 0.06519-0.017212 0.02234-0.034485 0.04419-0.050781 0.06775-0.019348 0.02789-0.036804 0.05701-0.054565 0.08612-0.011414 0.01886-0.023498 0.03723-0.034485 0.05658-0.020996 0.03766-0.039612 0.07654-0.058044 0.11566-0.005127 0.01117-0.011414 0.02118-0.016296 0.03259-0.0009155 0.0021-0.001404 0.0044-0.002319 0.0063-0.018677 0.04285-0.034729 0.08685-0.049927 0.13104-0.003967 0.01141-0.00885 0.02258-0.012573 0.034-0.011414 0.03607-0.020508 0.0733-0.029602 0.11035-0.005127 0.02045-0.011414 0.04071-0.015869 0.06146-0.004883 0.02277-0.007446 0.04608-0.011414 0.06909-0.006043 0.0354-0.012573 0.0708-0.016296 0.10638-0.001404 0.01398-0.001404 0.02795-0.002563 0.04193-0.003723 0.04468-0.006531 0.0896-0.006775 0.13428 0 0.0026-0.0002441 0.0049-0.0002441 0.0077v34.085c0 0.68085 0.3963 1.2996 1.0151 1.585l29.977 13.826s0.0042 0.0014 0.006 0.0026c0.01282 0.0056 0.02588 0.0098 0.0387 0.01514 0.05829 0.0249 0.11676 0.04675 0.17621 0.06494 0.02075 0.0063 0.04175 0.0116 0.06293 0.01721 0.05664 0.01514 0.11328 0.02722 0.17017 0.03656 0.01746 0.0028 0.03497 0.0063 0.05267 0.0086 0.07507 0.0098 0.15033 0.0163 0.22516 0.0163 0.0074 0 0.01471-0.0014 0.02216-0.0016 0.06598-0.000671 0.1319-0.0056 0.19763-0.01398 0.02429-0.003 0.04803-0.0076 0.07184-0.0116 0.05103-0.0086 0.10181-0.01935 0.15216-0.03259 0.02356-0.006 0.04663-0.01208 0.0697-0.01935 0.05572-0.01697 0.11029-0.03723 0.16455-0.06006 0.0152-0.0063 0.03058-0.01141 0.04547-0.01813 0.0035-0.0016 0.0072-0.0026 0.0105-0.0042l29.977-13.827c0.61884-0.2854 1.0151-0.90411 1.0151-1.585v-34.085c-0.000001-0.0752-0.0063-0.14899-0.01563-0.22162zm-3.4807 33.19-26.48 12.214v-23.442c0-0.96442-0.78247-1.7458-1.7482-1.7458-0.9657 0-1.7482 0.78143-1.7482 1.7458v23.442l-26.48-12.214v-30.294l27.525 12.08c0.22418 0.09845 0.46356 0.14758 0.70343 0.14758s0.47925-0.04913 0.70349-0.14758l27.525-12.08v30.294z"/>
  </g>
 </g>
</svg>
