<svg xmlns:rdf="http://www.w3.org/1999/02/22-rdf-syntax-ns#" xmlns="http://www.w3.org/2000/svg" height="172.78mm" width="141mm" version="1.1" xmlns:cc="http://creativecommons.org/ns#" xmlns:dc="http://purl.org/dc/elements/1.1/" viewBox="0 0 499.59435 612.21892">
 <g transform="translate(-107.35 -189.11)">
  <g fill-rule="evenodd" fill="#010202" clip-rule="evenodd" transform="translate(107 182.14)">
   <path d="m67.896 431.78v0.004c-0.0044 0-0.0044-0.004-0.01025-0.004h0.01025z"/>
   <path d="m138.44 596.17-1.8669-139.24c0.43204-7.2167 4.4633-9.1844 11.374-10.308l-5.1015-7.2266c-23.101 3.5608-52.989 2.8654-74.949-7.6115l-2.0105 6.3932c8.0287 9.2276 35.046 10.95 33.285 17.342l-16.163 46.766-22.568-1.7902-0.61457 11.705 18.077 1.4675c-14.536 29.417-15.457 71.013-43.608 88.28-8.7 5.3363-23.812-3.7005-29.33-9.1468l-3.4068 5.2939c20.074 23.49 52.956 14.92 66.926-21.95l23.207-61.268 26.125 2.0638 3.416 79.239h-10.653v11.555h38.612v-11.555h-10.745zm-42.191-92.954 18.745-48.647 2.2792 50.398-21.024-1.7514z"/>
   <path d="m198.89 553.87c38.942-7.7844 26.902-62.52 4.194-62.894l-45.181-0.75333-0.75438 5.1059c7.7652 3.9691 14.594 11.336 14.661 19.633l0.75778 79.728h-10.115l-0.0335 12.314h34.964v-12.314l-12.237 0.0284 1.7084-35.785 32.651 45.796c10.308 14.454 26.753 17.89 43.626 11.143-27.387-14.785-47.201-41.337-64.242-62.001zm-11.393-13.25-0.14424-31.803h-0.005c0.30284-11.608 9.4916-9.1556 14.108-5.6723 10.673 8.8208 11.45 36.218-2.7789 43.109-4.1789 1.3914-11.934 1.4876-11.18-5.6338z"/>
   <path d="m282.41 552.76 25.372 7.4474v3.9067c-9.2718 5.701-7.42 9.4389-0.38452 38.271l-4.7556 3.9065c-12.577-10.064-16.408 2.6106-25.396 3.9205-24.45 3.5464-42.12-29.522-42.067-59.77 0.0772-39.788 25.443-64.488 42.83-62.927 15.232 1.3671 23.706 19.593 27.795 3.5227h5.5721l-14.306 47.292-4.7604-1.5646c3.2533-10.802-2.5246-32.085-12.468-34.465-16.891-4.0504-22.747 36.313-23.207 46.693-0.46588 10.716 2.4948 54.972 21.355 51.309 8.6231-1.6793 13.062-18.634 11.153-31.5l-7.918-10.956 1.1851-5.0864z"/>
   <path d="m351.54 489.95-0.014 0.004c-22.574 0-40.867 27.518-40.882 61.474 0 33.952 18.322 61.478 40.882 61.478 22.573 0 40.895-27.526 40.877-61.478 0-33.951-18.299-61.478-40.863-61.478zm-0.014 113.21c-13.394-0.005-24.268-23.159-24.268-51.731 0.004-28.568 10.859-51.727 24.268-51.727h0.014c13.403 0 24.258 23.159 24.258 51.727s-10.864 51.731-24.272 51.731z"/>
   <path d="m449.85 616.75c-20.645 1.7757-29.292-10.836-41.521-12.458-4.8113-0.64776-6.011 8.2836-7.0908 12.957h-6.0705l4.059-56.837h6.0657c1.0989 41.246 52.423 57.504 67.511 31.835 11.958-20.227-11.421-35.574-38.112-51.948-23.745-14.569-49.802-25.842-52.802-58.978-3.2677-36.087 23.38-70.144 58.345-41.577 3.296 2.649 5.2303-4.7123 5.5708-9.977h8.1059l-1.0087 57.841h-6.5928c-1.5162-13.884-6.8491-35.949-21.082-45.09-10.988-7.0684-25.28 6.3967-26.052 17.665-2.4043 35.56 69.089 47.346 90.175 82.775 19.161 32.177 4.1119 70.054-39.5 73.792z"/>
   <path d="m67.896 431.78v0.004c-0.0044 0-0.0044-0.004-0.01025-0.004h0.01025z"/>
   <path d="m378.61 137.79c-43.373 6.7966-37.321 82.108-73.586 107.67-23.671 16.712-28.527 26.837-62.944 28.177-0.30278-17.107-0.66543-34.204-1.0173-51.325 41.914-1.9614 72.932-0.27948 87.495-51.536 9.856-34.601-8.6083-82.33-111.42-126.58 1.0248-12.425 2.0529-24.828 3.0577-37.23-23.577 7.8709-50.762 13.454-78.685 12.823 0.01 3.3505 0 6.7026 0 10.055h0.01c12.939 7.0416 25.891 9.3182 38.817 16.36 31.627 69.124-5.2886 144.22-66.424 221.4 18.078 1.34 36.121 2.6838 54.176 4.028 11.596-17.447 23.157-34.883 34.732-52.331l9.8785 1.998c1.0164 17.458 1.2843 35.619 2.3124 53.065l-12.191 1.2847c-3.061 7.7204-6.1212 15.451-9.1922 23.147-22.81 1.3417-45.65 2.698-68.468 4.0284-6.7742-6.3766-13.628-12.742-20.437-19.117-11.574 3.0244-23.171 6.0368-34.754 9.0612 11.596 10.5 17.049 29.056 20.437 50.322 80.31-16.163 152.35-0.21045 238.13 24.149 31.308 12.812 65.747-47.402 61.38-77.552-6.1088-42.008-5.8509-69.043-14.377-110.64 0.88836-18.544 22.738-24.348 26.837 6.4128 3.1292 10.007 25.623 4.9039 27.934-4.1935-0.58309-30.572-20.575-48.348-51.699-43.476zm-126.11-29.979c49.868 20.67 62.688 90.482-21.814 74.764 16.794-23.743 22.259-48.896 21.814-74.764z"/>
   <path d="m499.94 354.12c-5.8883 48.64-58.147 55.986-76.05 57.841-37.884 3.949-81.514-6.5496-129.81-18.193-67.87-16.35-145.66-35.08-228.45-15.93-25.303 5.86-41.326 9.28-65.289 16.42 15.229-17.74 43.431-32.54 58.892-36.22h0.01248c87.727-20.926 168.9-1.3774 239.74 15.696 45.86 11.023 87.015 20.949 121.88 17.121 50.426-5.524 53.068-18.405 79.063-36.74z"/>
  </g>
 </g>
</svg>
