<svg xmlns:rdf="http://www.w3.org/1999/02/22-rdf-syntax-ns#" xmlns="http://www.w3.org/2000/svg" height="172.78mm" width="141mm" version="1.1" xmlns:cc="http://creativecommons.org/ns#" xmlns:dc="http://purl.org/dc/elements/1.1/" viewBox="0 0 499.59435 612.21892">
 <g transform="translate(-107.35 -189.11)">
  <g fill-rule="evenodd" fill="#010202" clip-rule="evenodd" transform="translate(107 182.14)">

   
   <path d="m378.61 137.79c-43.373 6.7966-37.321 82.108-73.586 107.67-23.671 16.712-28.527 26.837-62.944 28.177-0.30278-17.107-0.66543-34.204-1.0173-51.325 41.914-1.9614 72.932-0.27948 87.495-51.536 9.856-34.601-8.6083-82.33-111.42-126.58 1.0248-12.425 2.0529-24.828 3.0577-37.23-23.577 7.8709-50.762 13.454-78.685 12.823 0.01 3.3505 0 6.7026 0 10.055h0.01c12.939 7.0416 25.891 9.3182 38.817 16.36 31.627 69.124-5.2886 144.22-66.424 221.4 18.078 1.34 36.121 2.6838 54.176 4.028 11.596-17.447 23.157-34.883 34.732-52.331l9.8785 1.998c1.0164 17.458 1.2843 35.619 2.3124 53.065l-12.191 1.2847c-3.061 7.7204-6.1212 15.451-9.1922 23.147-22.81 1.3417-45.65 2.698-68.468 4.0284-6.7742-6.3766-13.628-12.742-20.437-19.117-11.574 3.0244-23.171 6.0368-34.754 9.0612 11.596 10.5 17.049 29.056 20.437 50.322 80.31-16.163 152.35-0.21045 238.13 24.149 31.308 12.812 65.747-47.402 61.38-77.552-6.1088-42.008-5.8509-69.043-14.377-110.64 0.88836-18.544 22.738-24.348 26.837 6.4128 3.1292 10.007 25.623 4.9039 27.934-4.1935-0.58309-30.572-20.575-48.348-51.699-43.476zm-126.11-29.979c49.868 20.67 62.688 90.482-21.814 74.764 16.794-23.743 22.259-48.896 21.814-74.764z"/>
   <path d="m499.94 354.12c-5.8883 48.64-58.147 55.986-76.05 57.841-37.884 3.949-81.514-6.5496-129.81-18.193-67.87-16.35-145.66-35.08-228.45-15.93-25.303 5.86-41.326 9.28-65.289 16.42 15.229-17.74 43.431-32.54 58.892-36.22h0.01248c87.727-20.926 168.9-1.3774 239.74 15.696 45.86 11.023 87.015 20.949 121.88 17.121 50.426-5.524 53.068-18.405 79.063-36.74z"/>
  </g>
 </g>
</svg>
