<svg xmlns:rdf="http://www.w3.org/1999/02/22-rdf-syntax-ns#" xmlns="http://www.w3.org/2000/svg" height="18.285mm" width="17.528mm" version="1.1" xmlns:cc="http://creativecommons.org/ns#" xmlns:dc="http://purl.org/dc/elements/1.1/" viewBox="0 0 62.108546 64.788565">
 <g transform="translate(336.77 -51.396)">
  <g fill="#599de0" transform="translate(-726.66 -213.85)">
   <path d="m431.75 270.65h-21.603c-0.74545 0-1.3504 0.60501-1.3504 1.3505 0 0.74542 0.60498 1.3504 1.3504 1.3504h21.603c0.74545 0 1.3504-0.60501 1.3504-1.3504 0-0.74546-0.60513-1.3505-1.3506-1.3505z"/>
   <path d="m452 281.49h-10.799v-2.7424h2.6988v-13.502h-45.906v13.502h2.6998v2.7424h-10.801v10.717h2.7009v37.827h22.937 10.834 22.935v-37.827h2.7009l-0.00012-10.717zm-51.307-13.544h40.508v8.1006h-40.508v-8.1006zm37.807 10.801v2.7424h-6.752v-2.7424h6.752zm-9.451 0v2.7424h-6.7521v-2.7424h6.7521zm-9.4529 0v2.7424h-6.7512v-2.7424h6.7512zm-9.4509 0v2.7424h-6.7512v-2.7424h6.7512zm13.518 48.585h-5.4334v-8.1006h5.4334v8.1006zm22.937 0h-20.237v-10.801h-10.834v10.801h-20.237v-35.126h51.308v35.126h0.00003zm2.6988-37.827h-56.707v-5.3157h56.707v5.3157z"/>
   <path d="m403.39 300.31v8.1006h8.1015v-8.1006h-8.1015zm5.4009 5.4019h-2.7009v-2.7009h2.7009v2.7009z"/>
   <path d="m416.9 300.31v8.1006h8.0996v-8.1006h-8.0996zm5.4007 5.4016h-2.7009v-2.7009h2.7009v2.7009z"/>
   <path d="m430.4 300.31v8.1006h8.1025v-8.1006h-8.1025zm5.4016 5.4016h-2.7009v-2.7009h2.7009v2.7009z"/>
  </g>
 </g>
</svg>
