<svg xmlns:rdf="http://www.w3.org/1999/02/22-rdf-syntax-ns#" xmlns="http://www.w3.org/2000/svg" height="55.25" width="65" version="1.1" xmlns:cc="http://creativecommons.org/ns#" xmlns:dc="http://purl.org/dc/elements/1.1/" viewBox="0 0 65 55.249998">
 <g transform="translate(248.65 -51.285)">
  <g fill="#599de0" transform="translate(-248.65 46.41)">
   <path d="m61.739 14.625h-2.1558v-3.25h-10.833v3.25h-4.3333v-6.2769c0-1.9152-1.558-3.4731-3.474-3.4731h-16.887c-1.9153 0-3.4732 1.5579-3.4732 3.4731v6.2769h-4.3333v-3.25h-10.833v3.25h-2.1559c-1.7974 0-3.261 1.464-3.261 3.261v38.978c0 1.797 1.4636 3.261 3.2608 3.261h58.478c1.797 0 3.261-1.464 3.261-3.261v-38.978c0-1.797-1.464-3.261-3.261-3.261zm-10.822-1.0833h6.5v1.0833h-6.5v-1.0833zm-28.167-5.1939c0-0.7204 0.58606-1.3065 1.3065-1.3065h16.887c0.72046 0 1.3065 0.58606 1.3065 1.3065v6.2769h-19.5v-6.2769zm-15.167 5.1935h6.5v1.0833h-6.5v-1.0833zm1.0834 44.417h-5.4059c-0.60339 0-1.0941-0.49072-1.0941-1.0942v-38.978c0-0.60339 0.49072-1.0941 1.0941-1.0941h5.4059v41.167zm45.5 0h-43.333v-41.167h43.333v41.167zm8.6666-1.0942c0 0.60345-0.49072 1.0942-1.0942 1.0942h-5.4058v-41.167h5.4058c0.60345 0 1.0942 0.49072 1.0942 1.0941v38.978z"/>
  </g>
 </g>
</svg>
