<svg xmlns:rdf="http://www.w3.org/1999/02/22-rdf-syntax-ns#" xmlns="http://www.w3.org/2000/svg" height="103px" width="103px" version="1.1" xmlns:cc="http://creativecommons.org/ns#" xmlns:dc="http://purl.org/dc/elements/1.1/" viewBox="0 0 81.917748 83.722234">
 <g transform="translate(200.96 -381.93)">
  <g fill-rule="evenodd" fill="#010202" clip-rule="evenodd" transform="translate(-202.43 380.97)">
   <path d="m83.387 41.914c0 0.3016-0.0032 0.60239-0.0097 0.90241-0.48-22.204-18.629-40.057-40.949-40.057-22.319 0-40.469 17.853-40.949 40.057-0.00654-0.30002-0.00977-0.6008-0.00977-0.90241 0-22.621 18.338-40.959 40.959-40.959 22.621 0.0000018 40.959 18.338 40.959 40.959z"/>
   <path d="m83.387 43.718c0 22.621-18.338 40.959-40.959 40.959s-40.959-18.338-40.959-40.959c0-0.30161 0.00322-0.60194 0.00977-0.90198 0.47985 22.204 18.63 40.056 40.949 40.056s40.469-17.852 40.949-40.056c0.0065 0.30004 0.0097 0.60037 0.0097 0.90198z"/>
   <rect height=".0015545" width=".00057730" y="33.877" x="16.216"/>
   <path d="m26.146 57.016-0.26278-19.598c0.06081-1.0158 0.62823-1.2927 1.6009-1.4509l-0.71805-1.0172c-3.2516 0.50119-7.4584 0.40331-10.549-1.0714l-0.28299 0.89986c1.1301 1.2988 4.9329 1.5413 4.685 2.441l-2.275 6.5824-3.1766-0.25198-0.0865 1.6475 2.5444 0.20656c-2.046 4.14-2.176 9.995-6.138 12.425-1.224 0.751-3.3515-0.521-4.1283-1.287l-0.47952 0.74514c2.8247 3.305 7.453 2.0992 9.4193-3.091l3.2664-8.6237 3.6772 0.29049 0.48082 11.153h-1.4994v1.6264h5.4348v-1.6264h-1.5124zm-5.9386-13.084 2.6384-6.8472 0.3208 7.0937-2.9592-0.24652z"/>
   <path d="m34.654 51.062c5.4812-1.0957 3.7865-8.7999 0.59032-8.8526l-6.3594-0.10604-0.10618 0.71868c1.093 0.55866 2.0541 1.5955 2.0637 2.7634l0.10666 11.222h-1.4238l-0.0047 1.7332h4.9213v-1.7332l-1.7224 0.004 0.24046-5.0369 4.5958 6.4459c1.4509 2.0345 3.7656 2.5181 6.1405 1.5684-3.8549-2.0811-6.6437-5.8183-9.0422-8.7268zm-1.6036-1.8649-0.0203-4.4764h-0.000675c0.04263-1.6339 1.336-1.2887 1.9858-0.79839 1.5023 1.2416 1.6116 5.0978-0.39114 6.0677-0.5882 0.19585-1.6798 0.20939-1.5737-0.79297z"/>
   <path d="m46.41 50.907 3.5712 1.0483v0.54988c-1.305 0.80243-1.0444 1.3286-0.05412 5.3867l-0.66936 0.54985c-1.7703-1.4165-2.3095 0.36744-3.5746 0.55183-3.4414 0.49917-5.9286-4.1554-5.9211-8.4128 0.01087-5.6002 3.5812-9.0769 6.0285-8.8573 2.1439 0.19242 3.3368 2.7578 3.9122 0.49583h0.7843l-2.0136 6.6566-0.67004-0.22023c0.45792-1.5204-0.35535-4.5161-1.7549-4.8511-2.3775-0.57011-3.2017 5.1111-3.2665 6.5722-0.06558 1.5083 0.35116 7.7374 3.0058 7.222 1.2137-0.23637 1.8385-2.6228 1.5698-4.4337l-1.1145-1.5421 0.1668-0.71594z"/>
   <path d="m51.469 23.098c-2.5086 0.39311-2.1586 4.749-4.2562 6.2277-1.3691 0.96659-1.65 1.5522-3.6406 1.6297-0.01751-0.98944-0.03849-1.9783-0.05884-2.9686 2.4242-0.11344 4.2183-0.01617 5.0607-2.9808 0.57006-2.0013-0.4979-4.7619-6.4445-7.3213 0.05927-0.71868 0.11874-1.4361 0.17686-2.1533-1.3637 0.45525-2.936 0.77816-4.5511 0.74165 0.00058 0.19379 0 0.38767 0 0.58158h0.00058c0.74841 0.40728 1.4975 0.53896 2.2451 0.94624 1.8293 3.9981-0.30589 8.3413-3.8419 12.805 1.0456 0.07751 2.0892 0.15523 3.1335 0.23298 0.67071-1.0091 1.3394-2.0176 2.0089-3.0268l0.57136 0.11556c0.05879 1.0098 0.07428 2.0602 0.13375 3.0692l-0.70511 0.07431c-0.17704 0.44654-0.35405 0.89365-0.53167 1.3388-1.3193 0.0776-2.6404 0.15605-3.9601 0.233-0.39181-0.36882-0.78824-0.73696-1.182-1.1057-0.66941 0.17493-1.3402 0.34916-2.0102 0.52409 0.67071 0.6073 0.98612 1.6806 1.182 2.9106 4.6451-0.93486 8.8119-0.01217 13.773 1.3967 1.8108 0.74105 3.8028-2.7417 3.5502-4.4855-0.35332-2.4297-0.33841-3.9934-0.83154-6.3995 0.05138-1.0726 1.3152-1.4082 1.5522 0.37091 0.18099 0.57879 1.482 0.28364 1.6157-0.24255-0.03373-1.7682-1.1901-2.7964-2.9902-2.5146zm-7.2943-1.734c2.8843 1.1955 3.6258 5.2334-1.2617 4.3243 0.97135-1.3733 1.2874-2.8281 1.2617-4.3243z"/>
   <path d="m58.487 35.61c-0.34057 2.8133-3.3632 3.2382-4.3987 3.3455-2.1912 0.2284-4.7147-0.37882-7.5084-1.0522-3.9251-0.94569-8.4242-2.0291-13.213-0.92144-1.4638 0.33918-2.3905 0.53708-3.7765 0.94982 0.88081-1.026 2.512-1.8819 3.4062-2.0947h0.000721c5.074-1.2104 9.7691-0.07967 13.866 0.90785 2.6525 0.63756 5.0328 1.2117 7.0497 0.99023 2.9166-0.3195 3.0694-1.0645 4.573-2.125z"/>
   <path d="m56.14 42.066-0.002 0.000626c-3.1774 0-5.7522 3.8732-5.7543 8.6527 0 4.7789 2.5789 8.6533 5.7543 8.6533 3.1773 0 5.7561-3.8743 5.7535-8.6533 0-4.7788-2.5756-8.6533-5.7516-8.6533zm-0.002 15.935c-1.8852-0.00066-3.4158-3.2597-3.4158-7.2814 0.000625-4.021 1.5285-7.2807 3.4158-7.2807h0.002c1.8865 0 3.4144 3.2598 3.4144 7.2807 0 4.021-1.5291 7.2814-3.4163 7.2814z"/>
   <path d="m69.978 59.913c-2.9059 0.24994-4.1229-1.5252-5.8442-1.7536-0.6772-0.09117-0.84607 1.1659-0.99806 1.8237h-0.85445l0.57132-8h0.85377c0.15467 5.8056 7.3788 8.0939 9.5024 4.4809 1.6832-2.8471-1.6075-5.0072-5.3645-7.3118-3.3422-2.0506-7.0098-3.6373-7.4321-8.3013-0.45994-5.0794 3.2908-9.873 8.2123-5.8521 0.46393 0.37286 0.73618-0.66328 0.7841-1.4043h1.1409l-0.14198 8.1413h-0.92796c-0.21342-1.9542-0.96404-5.0599-2.9674-6.3467-1.5467-0.9949-3.5583 0.90037-3.6669 2.4864-0.33841 5.0051 9.7245 6.6641 12.692 11.651 2.697 4.529 0.57877 9.8603-5.5597 10.387z"/>
   <rect height=".0015545" width=".00057730" y="33.877" x="16.216"/>
  </g>
 </g>
</svg>
