<svg xmlns:rdf="http://www.w3.org/1999/02/22-rdf-syntax-ns#" xmlns="http://www.w3.org/2000/svg" height="64.36" width="55.076" version="1.1" xmlns:cc="http://creativecommons.org/ns#" xmlns:dc="http://purl.org/dc/elements/1.1/" viewBox="0 0 55.076347 64.359998">
 <g transform="translate(354.04 16.36)">
  <g fill="#599de0" transform="translate(-359 -16.5)">
   <path d="m6.5807 56.294v5.9495c0 1.2463 1.0103 2.2567 2.2567 2.2567h48.944c1.2463 0 2.2567-1.0104 2.2567-2.2567v-5.9495h-53.457zm26.553 5.6857c-0.84171 0-1.524-0.68231-1.524-1.524 0-0.84171 0.68231-1.524 1.524-1.524 0.84167 0 1.524 0.68231 1.524 1.524 0 0.84167-0.68231 1.524-1.524 1.524z"/>
   <rect height="4.7039" width="2.7256" y="23.586" x="31.785"/>
   <path d="m34.901 8.5513h-0.61302c-0.139-0.6422-1.669-6.7383-9.718-8.2648 0 0-1.8757-0.14652-3.7364-0.14652-1.5101 0-2.3784 0.063796-3.1193 0.1087-0.467 0.02157-0.793 0.03784-0.793 0.03784-2.154 0.05861-11.958 3.6635-11.958 14.785v7.6933s-0.25845 9.3053 5.8147 15.152l0.99369-3.5169s-3.7311-4.4255-3.9069-11.899l-0.0442-7.495s-0.12656-10.881 10.141-12.112h5.3686c1.2116 0 3.3965 0.37252 4.3702 1.0935 1.0947 0.81063 2.6775 2.2016 4.0771 4.5629h-0.38226c-1.4296 0-2.5885 1.1589-2.5885 2.5884v11.353c0 1.4295 1.1589 2.5884 2.5885 2.5884h0.40497v3.2092h2.6963v-3.2092h0.40497c1.4296 0 2.5885-1.1589 2.5885-2.5884v-11.353c0-1.4288-1.159-2.5877-2.589-2.5877z"/>
   <path d="m53.766 30.972h-2.3739v-21.102h-2.7256v5.5392h-10.023v2.6377h10.023v12.925 7.6493 0.16529h-1.6705v-7.8146h-27.784v7.8146h-1.6705v-0.16529-7.6493-12.925h10.023v-2.6377h-10.023v-5.5392h-2.7256v21.102h-2.1102l-6.1253 22.069h52.285l-5.0996-22.069zm-27.808 18.288h-7.0339l2.1103-15.826h7.0339l-2.1103 15.826zm2.3247 0 1.4069-15.826h5.8908l1.5827 15.826h-8.8804zm11.205 0-2.1103-15.826h7.0339l2.1103 15.826h-7.0339z"/>
  </g>
 </g>
</svg>
