<svg xmlns:rdf="http://www.w3.org/1999/02/22-rdf-syntax-ns#" xmlns="http://www.w3.org/2000/svg" height="59.504" width="62.802" version="1.1" xmlns:cc="http://creativecommons.org/ns#" xmlns:dc="http://purl.org/dc/elements/1.1/" viewBox="0 0 62.801575 59.504453">
 <g transform="translate(334.36 8.8092)">
  <g transform="translate(-335.36 -11.476)" fill="#599de0">
   <path fill-rule="evenodd" clip-rule="evenodd" d="m17.637 46.744c3.6359 0 6.6107-2.9752 6.6107-6.6116s-2.9747-6.6116-6.6107-6.6116c-3.6359 0-6.6107 2.9752-6.6107 6.6116s2.9748 6.6116 6.6107 6.6116zm0-11.019c2.424 0 4.4072 1.9835 4.4072 4.4077 0 2.4243-1.9832 4.4078-4.4072 4.4078-2.4239 0-4.4071-1.9835-4.4071-4.4078 0-2.4242 1.9832-4.4077 4.4071-4.4077zm45.063-28.65h-36.359c-0.66101 0-1.1017 0.4408-1.1017 1.1019v16.529h2.2036v-15.427h27.545v44.077h-19.832v-3.416c7.2718-0.66119 9.8058-7.1626 9.8058-7.2728 0.11017-0.11017 0.11017-0.22034 0.11017-0.33057v-14.325c0-0.66119-0.44074-1.1019-1.1018-1.1019h-41.868c-0.66107 0-1.1018 0.44073-1.1018 1.1019v33.058c0 0.66119 0.44073 1.102 1.1018 1.102h60.598c0.66107 0 1.1018-0.4408 1.1018-1.102v-52.893c0-0.66113-0.44074-1.1019-1.1018-1.1019zm-27.544 22.039h7.7124v13.003c-0.44061 0.88159-2.4239 5.1791-7.7124 5.7301v-18.733zm-2.2036 30.854h-29.748v-30.854h29.748v30.854zm22.036 0h-19.832v-4.4077h19.832v4.4077zm6.6107 0h-4.4072v-50.689h4.4072v50.689zm-30.85-47.383v2.2039h7.7125v-2.2039h-7.7125zm0 6.6116h19.832v-2.2039h-19.832v2.2039zm-27.545-9.9191h12.12v-2.2039h-12.12v-2.2039h15.425v19.835h2.2036v-20.937c0-0.66119-0.44074-1.1019-1.1017-1.1019h-17.629c-0.66107 0-1.1018 0.44073-1.1018 1.1019v20.937h2.2036v-15.427zm3.3053 3.3058c-0.66107 0-1.1018 0.4408-1.1018 1.1019v7.7136c0 0.66119 0.44073 1.1019 1.1018 1.1019h8.8143c0.66107 0 1.1017-0.44074 1.1017-1.1019v-7.7136c0-0.66113-0.44067-1.1019-1.1017-1.1019h-8.8143zm7.7125 7.7136h-6.6107v-5.5096h6.6107v5.5096z"/>
  </g>
 </g>
</svg>
