<svg xmlns:rdf="http://www.w3.org/1999/02/22-rdf-syntax-ns#" xmlns="http://www.w3.org/2000/svg" height="65" width="64.768" version="1.1" xmlns:cc="http://creativecommons.org/ns#" xmlns:dc="http://purl.org/dc/elements/1.1/" viewBox="0 0 64.768257 64.999997">
 <g transform="translate(247.6 -57.729)">
  <g transform="translate(-267.36 -13.343)">
   <g transform="translate(19.643 71.071)" fill="#599de0">
    <path fill-rule="evenodd" clip-rule="evenodd" d="m43.089 28.478 20.348-17.913c0.14356-0.12671 0.25146-0.29028 0.31195-0.47229l0.13495-0.40625c0.64008-0.80927 0.99957-1.6976 0.99957-2.6444 0-0.11053-0.02271-0.21667-0.03131-0.32501 0.04535-0.25024-0.0076-0.50592-0.13495-0.73016-0.995-3.4771-6.846-5.9872-14.406-5.9872-7.498 0-13.315 2.4689-14.382 5.9009-0.0076 0.010803-0.02161 0.015137-0.02911 0.026001l-3.4 5.4831-3.402-5.4831c-0.0065-0.010864-0.02161-0.015198-0.02808-0.026001-1.066-3.432-6.884-5.9009-14.382-5.9009-8.3072 0-14.572 3.0269-14.572 7.0417 0 0.94684 0.35944 1.8351 0.99957 2.6444l0.13495 0.40625c0.060425 0.18201 0.1684 0.34558 0.31195 0.47229l20.347 17.914-21.631 34.867c-0.28327 0.456-0.19044 1.051 0.21764 1.398 0.20185 0.171 0.45014 0.257 0.69846 0.257 0.2536 0 0.5084-0.09 0.7124-0.269l30.592-26.931 30.592 26.931c0.204 0.179 0.459 0.269 0.712 0.269 0.24829 0 0.49652-0.08557 0.69842-0.25678 0.40802-0.34772 0.50086-0.9425 0.21802-1.3986l-21.631-34.867zm7.2217-26.311c6.9906 0 11.944 2.3454 12.372 4.5662 0.0032 0.032532 0.0076 0.065002 0.0108 0.0802 0 0 0.0011 0.00214 0.0011 0.00323 0.0097 0.074707 0.03021 0.15057 0.03021 0.22534 0 0.43872-0.18677 0.88721-0.5365 1.326-0.02484 0.023804-0.05719 0.039001-0.08099 0.066101-0.73834 0.86664-2.1632 1.7376-4.1646 2.3909-0.0011 0-0.0021 0.0011-0.0043 0.0011-0.23425 0.07581-0.47821 0.14948-0.72864 0.21991-0.09497 0.026-0.19324 0.0509-0.29034 0.07587-0.18677 0.04981-0.37354 0.09967-0.56891 0.14514-0.31519 0.07257-0.63794 0.14081-0.9715 0.20367-0.06696 0.013-0.13715 0.02277-0.20514 0.03467-0.29144 0.0509-0.58832 0.09967-0.8927 0.14191-0.09393 0.013-0.19 0.0249-0.28497 0.03686-0.28394 0.0368-0.57318 0.06928-0.86792 0.09747-0.11011 0.0108-0.21912 0.02167-0.33032 0.03033-0.29681 0.0249-0.60016 0.04443-0.90784 0.06067-0.10681 0.0054-0.21155 0.013-0.32056 0.01733-0.41132 0.01624-0.83014 0.0271-1.2587 0.0271-7.3156 0-12.414-2.5686-12.414-4.875 0-2.3065 5.0983-4.875 12.414-4.875zm-43.251 8.659c-0.0011 0-0.0022-0.0011-0.00433-0.0011-2.0003-0.654-3.4252-1.5246-4.1635-2.3912-0.0238-0.0271-0.0562-0.0423-0.0821-0.0672-0.3487-0.4387-0.5354-0.8862-0.5354-1.3249 0-2.3065 5.0983-4.875 12.414-4.875 7.3156 0 12.414 2.5685 12.414 4.875 0 2.3064-5.0983 4.875-12.414 4.875-0.42859 0-0.84741-0.01086-1.2598-0.0271-0.10901-0.0043-0.21374-0.0119-0.32062-0.01733-0.30658-0.01624-0.60986-0.03577-0.90784-0.06067-0.11114-0.0087-0.22125-0.01953-0.33032-0.03033-0.29468-0.0282-0.58398-0.06067-0.86786-0.09747-0.09497-0.01196-0.1911-0.02386-0.28497-0.03686-0.30444-0.04224-0.60126-0.0899-0.89276-0.14191-0.0674-0.012-0.1375-0.023-0.2045-0.035-0.3336-0.061-0.6563-0.13-0.9715-0.203-0.1954-0.046-0.381-0.096-0.5689-0.145-0.0972-0.025-0.1954-0.05-0.2903-0.076-0.2505-0.071-0.4945-0.143-0.7287-0.22zm0.93048 2.5144c1.4508 0.34668 3.0527 0.57959 4.7669 0.68036 0.06909 0.0043 0.13708 0.0108 0.20618 0.0141 0.56567 0.02924 1.1389 0.04871 1.725 0.04871 0.47601 0 0.94452-0.013 1.4065-0.03247 0.14685-0.0054 0.28931-0.01624 0.43396-0.02386 0.31738-0.01733 0.63257-0.039 0.94238-0.06604 0.15759-0.013 0.31415-0.0282 0.47064-0.04443 0.30121-0.03033 0.59698-0.0661 0.88947-0.1051 0.14142-0.01947 0.28394-0.0368 0.42426-0.05743 0.3562-0.05304 0.7049-0.11261 1.0471-0.17871 0.06366-0.0119 0.12952-0.02167 0.19318-0.03467 0.40051-0.0791 0.78912-0.16791 1.1691-0.26434 0.11334-0.02814 0.22022-0.05957 0.33142-0.0899 0.26556-0.07153 0.52783-0.1452 0.78259-0.22534 0.12848-0.0401 0.25262-0.08124 0.37781-0.12244 0.23425-0.078 0.46204-0.15924 0.68549-0.24481 0.11548-0.04443 0.23315-0.08777 0.3454-0.13324 0.24829-0.10077 0.48688-0.20587 0.71893-0.31421 0.07233-0.03357 0.14899-0.06604 0.22022-0.09961 0.29474-0.1441 0.57648-0.29364 0.84418-0.45068 0.07233-0.04224 0.13818-0.08777 0.20831-0.1311 0.19214-0.1181 0.37781-0.23834 0.55377-0.36182 0.08637-0.06177 0.1673-0.12354 0.24939-0.18634 0.15112-0.11481 0.29468-0.23181 0.43176-0.35101 0.07556-0.0661 0.15002-0.13104 0.22131-0.19824 0.14032-0.13324 0.26984-0.26868 0.39288-0.40625 0.04968-0.055237 0.10364-0.10944 0.15112-0.16467 0.15546-0.18634 0.29797-0.37701 0.42102-0.57196l2.6263 4.2336-3.6637 5.9063-4.4971 7.2475-15.074-13.272zm23.797 22.204-0.001 0.001-25.819 22.73 18.261-29.432 9.189-14.812 2.982-4.8054c0.12305 0.19501 0.2655 0.38568 0.42096 0.57202 0.04645 0.056335 0.1015 0.11047 0.15112 0.16467 0.12305 0.13757 0.25262 0.27405 0.39294 0.40625 0.07123 0.06824 0.14679 0.13324 0.22235 0.19934 0.13708 0.11914 0.2807 0.23614 0.43073 0.34992 0.08313 0.0628 0.16406 0.12567 0.25043 0.18634 0.17486 0.12347 0.36053 0.24371 0.55164 0.36072 0.07123 0.04334 0.13708 0.0899 0.21045 0.1322 0.26666 0.15594 0.5484 0.30658 0.84308 0.44958 0.07233 0.03571 0.15112 0.06824 0.22455 0.10181 0.23102 0.10834 0.46741 0.21234 0.7135 0.31201 0.11444 0.04547 0.23212 0.0899 0.34979 0.13434 0.22125 0.08447 0.44794 0.16571 0.68109 0.24268 0.12634 0.04224 0.25262 0.08447 0.38214 0.12457 0.25262 0.07904 0.51276 0.15271 0.77612 0.22314 0.1123 0.03033 0.22241 0.06287 0.33685 0.091 0.37885 0.09534 0.76642 0.18414 1.1669 0.26324 0.06476 0.013 0.13275 0.02277 0.19861 0.03577 0.34112 0.065 0.68762 0.12457 1.0417 0.17767 0.14038 0.02057 0.28394 0.0379 0.42639 0.05737 0.2915 0.039 0.58722 0.07477 0.88733 0.1051 0.15656 0.01624 0.31305 0.03143 0.47174 0.04443 0.30982 0.0271 0.6239 0.04767 0.94128 0.0661 0.14465 0.0076 0.28821 0.01837 0.43506 0.0238 0.46094 0.02057 0.92938 0.03357 1.4055 0.03357 0.58612 0 1.1594-0.01947 1.7239-0.04767 0.06909-0.0032 0.13708-0.0097 0.20618-0.01404 1.7142-0.10077 3.3162-0.33368 4.767-0.68036l-16.03 14.113s-0.0022 0-0.0022 0.001l-9.189 8.089zm2.35 0.81464 7.3069-6.4328l17.588 28.349-24.895-21.916z"/>
   </g>
  </g>
 </g>
</svg>
