<?xml version="1.0" encoding="utf-8"?>
<!-- Generator: Adobe Illustrator 19.0.1, SVG Export Plug-In . SVG Version: 6.00 Build 0)  -->
<svg version="1.1" id="Layer_1" xmlns="http://www.w3.org/2000/svg" xmlns:xlink="http://www.w3.org/1999/xlink" x="0px" y="0px"
	 width="360px" height="360px" viewBox="-111 104 360 360" style="enable-background:new 0 0 360 360;" xml:space="preserve">
<style type="text/css">
	.st0{fill:#CE372F;}
</style>
<g id="XMLID_565_">
	<g id="XMLID_838_">
		<g id="XMLID_1333_">
			<path id="XMLID_1334_" class="st0" d="M181,303.2c-68.5,0-124.2-55.7-124.2-124.2c0-68.5,55.7-124.2,124.2-124.2
				c68.5,0,124.2,55.7,124.2,124.2C305.2,247.5,249.5,303.2,181,303.2z M181,59.7c-65.8,0-119.3,53.5-119.3,119.3
				c0,65.8,53.5,119.3,119.3,119.3c65.8,0,119.3-53.5,119.3-119.3C300.3,113.2,246.8,59.7,181,59.7z"/>
		</g>
		<g id="XMLID_846_">
			<path id="XMLID_523_" class="st0" d="M179.5,54.8l-0.1-5.5c-0.3,0.1-0.7,0.2-1,0.4l0.1,5.1C178.8,54.8,179.1,54.8,179.5,54.8z"/>
			<path id="XMLID_522_" class="st0" d="M183.5,54.8l0.1-6.3c-0.3,0-0.7,0.1-1,0.1l-0.1,6.2C182.9,54.8,183.2,54.8,183.5,54.8z"/>
			<path id="XMLID_521_" class="st0" d="M173.4,55l-0.2-2.6l-1-0.6l0.2,3.2C172.7,55.1,173,55,173.4,55z"/>
			<path id="XMLID_520_" class="st0" d="M177.4,54.8l-0.1-4.6c-0.3,0.2-0.6,0.4-1,0.6l0.1,4C176.8,54.9,177.1,54.8,177.4,54.8z"/>
			<path id="XMLID_519_" class="st0" d="M175.4,54.9l-0.2-3.3l-0.9,0.7l0.1,2.7C174.7,54.9,175.1,54.9,175.4,54.9z"/>
			<path id="XMLID_518_" class="st0" d="M181,54.8c0.2,0,0.3,0,0.5,0v-6c-0.3,0.1-0.7,0.1-1,0.2v5.8C180.7,54.8,180.8,54.8,181,54.8
				z"/>
			<path id="XMLID_517_" class="st0" d="M193.7,55.4L194,52l-0.2-0.2c-0.2-0.2-0.5-0.3-0.7-0.5l-0.4,4.1
				C193,55.4,193.3,55.4,193.7,55.4z"/>
			<path id="XMLID_516_" class="st0" d="M185.6,54.9l0.2-6.4c-0.3,0-0.7-0.1-1-0.1l-0.2,6.4C184.9,54.8,185.2,54.9,185.6,54.9z"/>
			<path id="XMLID_515_" class="st0" d="M191.6,55.2l0.4-4.7c-0.3-0.2-0.6-0.4-0.9-0.5l-0.4,5.1C191,55.2,191.3,55.2,191.6,55.2z"/>
			<path id="XMLID_514_" class="st0" d="M189.6,55.1l0.4-5.5c-0.3-0.1-0.6-0.2-1-0.4l-0.4,5.8C189,55,189.3,55.1,189.6,55.1z"/>
			<path id="XMLID_513_" class="st0" d="M187.6,55l0.3-6.1c-0.3-0.1-0.6-0.1-1-0.2l-0.3,6.2C186.9,54.9,187.3,54.9,187.6,55z"/>
			<path id="XMLID_512_" class="st0" d="M163.3,56.1l-0.9-6.3c-0.3,0-0.6,0.1-1,0.2l0.9,6.3C162.6,56.1,162.9,56.1,163.3,56.1z"/>
			<path id="XMLID_511_" class="st0" d="M155.3,57.5l-0.9-4.1c-0.3,0.2-0.5,0.5-0.8,0.7l-0.1,0.1l0.8,3.5
				C154.6,57.6,154.9,57.5,155.3,57.5z"/>
			<path id="XMLID_510_" class="st0" d="M159.3,56.7l-1-5.8c-0.3,0.1-0.6,0.3-0.9,0.4l1,5.5C158.6,56.8,158.9,56.8,159.3,56.7z"/>
			<path id="XMLID_509_" class="st0" d="M157.3,57.1l-1-5.1c-0.3,0.2-0.6,0.4-0.9,0.6l0.9,4.7C156.6,57.2,156.9,57.1,157.3,57.1z"/>
			<path id="XMLID_508_" class="st0" d="M153.3,57.9l-0.6-2.8l-0.8,0.8l-0.1,0l0.5,2.2C152.6,58.1,153,58,153.3,57.9z"/>
			<path id="XMLID_507_" class="st0" d="M171.3,55.2l-0.3-3.9c-0.3-0.2-0.7-0.3-1-0.5l0.4,4.5C170.7,55.2,171,55.2,171.3,55.2z"/>
			<path id="XMLID_505_" class="st0" d="M151.3,58.4l-0.7-2.9l-1.1-0.4c0,0,0,0,0,0l0.9,3.5C150.7,58.5,151,58.5,151.3,58.4z"/>
			<path id="XMLID_504_" class="st0" d="M149.3,58.9l-1.1-4.2c-0.4-0.1-0.7-0.2-1.1-0.2l1.2,4.7C148.7,59.1,149,59,149.3,58.9z"/>
			<path id="XMLID_503_" class="st0" d="M169.3,55.3l-0.5-5c-0.3-0.1-0.7-0.2-1-0.3l0.5,5.4C168.7,55.4,169,55.4,169.3,55.3z"/>
			<path id="XMLID_502_" class="st0" d="M167.3,55.5l-0.7-5.7c-0.3-0.1-0.7-0.1-1-0.1l0.7,6C166.7,55.6,167,55.6,167.3,55.5z"/>
			<path id="XMLID_501_" class="st0" d="M161.3,56.4l-1-6.2c-0.3,0.1-0.6,0.2-0.9,0.3l1,6C160.6,56.5,160.9,56.4,161.3,56.4z"/>
			<path id="XMLID_500_" class="st0" d="M165.3,55.8l-0.8-6.2c-0.3,0-0.7,0-1,0l0.8,6.3C164.6,55.9,165,55.8,165.3,55.8z"/>
			<path id="XMLID_499_" class="st0" d="M195.7,55.7l0.3-2.4l-0.2,0.1l-0.7-0.6l-0.3,2.7C195,55.6,195.4,55.6,195.7,55.7z"/>
			<path id="XMLID_498_" class="st0" d="M230.9,65.2l2.3-5.3c-0.3-0.2-0.5-0.4-0.8-0.6l-2.4,5.5C230.3,65,230.6,65.1,230.9,65.2z"/>
			<path id="XMLID_497_" class="st0" d="M147.4,59.4l-1.5-5.1c-0.3,0-0.7,0-1,0l1.5,5.4C146.7,59.6,147.1,59.5,147.4,59.4z"/>
			<path id="XMLID_496_" class="st0" d="M229,64.4l2.4-5.7c-0.3-0.2-0.6-0.3-0.9-0.5l-2.4,5.8C228.4,64.2,228.7,64.3,229,64.4z"/>
			<path id="XMLID_495_" class="st0" d="M227.1,63.7l2.3-5.9c-0.3-0.1-0.6-0.2-0.9-0.3l-2.3,5.9C226.5,63.4,226.8,63.5,227.1,63.7z"
				/>
			<path id="XMLID_494_" class="st0" d="M225.2,62.9l2.2-5.9c-0.3-0.1-0.6-0.2-1-0.2l-2.2,5.7C224.6,62.7,224.9,62.8,225.2,62.9z"/>
			<path id="XMLID_493_" class="st0" d="M221.4,61.5l1.7-4.9c-0.4,0-0.7,0-1.1,0.1l-1.5,4.5C220.8,61.3,221.1,61.4,221.4,61.5z"/>
			<path id="XMLID_492_" class="st0" d="M223.3,62.2l2-5.5c-0.3,0-0.7-0.1-1-0.1l-1.9,5.3C222.7,62,223,62.1,223.3,62.2z"/>
			<path id="XMLID_491_" class="st0" d="M232.7,66.1l2.1-4.6c-0.2-0.3-0.5-0.5-0.7-0.8l-2.2,4.9C232.1,65.8,232.4,65.9,232.7,66.1z"
				/>
			<path id="XMLID_490_" class="st0" d="M197.7,55.9l0.5-3.7c-0.1,0-0.1,0.1-0.2,0.1l-0.8,0.4l-0.4,3.1
				C197.1,55.8,197.4,55.9,197.7,55.9z"/>
			<path id="XMLID_489_" class="st0" d="M240,69.7l2.2-4c-0.4,0-0.7,0-1.1,0l-1.9,3.6C239.4,69.4,239.7,69.5,240,69.7z"/>
			<path id="XMLID_488_" class="st0" d="M236.4,67.8l1.1-2.3l-0.6-1l-1.4,2.9C235.8,67.5,236.1,67.7,236.4,67.8z"/>
			<path id="XMLID_487_" class="st0" d="M234.6,66.9l1.7-3.5c-0.2-0.3-0.4-0.6-0.6-0.9l-1.9,4.1C234,66.7,234.3,66.8,234.6,66.9z"/>
			<path id="XMLID_486_" class="st0" d="M238.2,68.7l1.5-3l-1.2,0.1l-1.2,2.4C237.6,68.4,237.9,68.6,238.2,68.7z"/>
			<path id="XMLID_485_" class="st0" d="M219.5,60.9l1.3-4c-0.3,0.1-0.7,0.1-1,0.2l-0.1,0l-1.1,3.4
				C218.9,60.7,219.2,60.8,219.5,60.9z"/>
			<path id="XMLID_484_" class="st0" d="M205.7,57.3L207,51c-0.3-0.1-0.6-0.1-1-0.1l-1.2,6.2C205.1,57.1,205.4,57.2,205.7,57.3z"/>
			<path id="XMLID_483_" class="st0" d="M203.7,56.9l1.1-6.1c-0.3,0-0.7,0-1,0l-1.1,5.9C203.1,56.8,203.4,56.8,203.7,56.9z"/>
			<path id="XMLID_482_" class="st0" d="M199.7,56.2l0.7-4.8c-0.3,0.1-0.7,0.2-1,0.3l-0.6,4.4C199.1,56.1,199.4,56.1,199.7,56.2z"/>
			<path id="XMLID_481_" class="st0" d="M201.7,56.5l0.9-5.6c-0.3,0-0.7,0.1-1,0.2l-0.9,5.3C201.1,56.4,201.4,56.5,201.7,56.5z"/>
			<path id="XMLID_480_" class="st0" d="M207.7,57.7l1.3-6.1c-0.3-0.1-0.6-0.2-0.9-0.3l-1.3,6.2C207.1,57.5,207.4,57.6,207.7,57.7z"
				/>
			<path id="XMLID_479_" class="st0" d="M217.5,60.3l0.8-2.7l-1.1,0.3l0,0l-0.7,2.2C216.9,60.1,217.2,60.2,217.5,60.3z"/>
			<path id="XMLID_478_" class="st0" d="M215.6,59.7l0.8-2.9l-0.7-0.9c0,0,0,0,0,0l-1,3.5C215,59.5,215.3,59.6,215.6,59.7z"/>
			<path id="XMLID_477_" class="st0" d="M209.7,58.1l1.3-5.8c-0.3-0.1-0.6-0.3-0.9-0.4l-1.4,6C209.1,58,209.4,58.1,209.7,58.1z"/>
			<path id="XMLID_476_" class="st0" d="M211.7,58.6l1.3-5.1c-0.3-0.2-0.6-0.4-0.9-0.6l-1.4,5.5C211,58.5,211.4,58.5,211.7,58.6z"/>
			<path id="XMLID_475_" class="st0" d="M213.6,59.1l1.1-4.2c-0.3-0.3-0.5-0.5-0.8-0.7l-1.2,4.6C213,59,213.3,59.1,213.6,59.1z"/>
			<path id="XMLID_474_" class="st0" d="M112.4,75.5l-1.5-2.2l-1.2,0l1.8,2.7C111.9,75.8,112.2,75.7,112.4,75.5z"/>
			<path id="XMLID_473_" class="st0" d="M90.7,93.8l-4.4-4.1c-0.3,0.2-0.5,0.4-0.8,0.6l4.5,4.2C90.3,94.3,90.5,94,90.7,93.8z"/>
			<path id="XMLID_472_" class="st0" d="M92.1,92.3l-3.9-3.7c-0.3,0.1-0.6,0.3-0.9,0.5l4.1,4C91.7,92.8,91.9,92.5,92.1,92.3z"/>
			<path id="XMLID_471_" class="st0" d="M102.6,82.7l-4-4.9c-0.2,0.2-0.4,0.5-0.7,0.7l3.9,4.8C102.1,83.1,102.4,82.9,102.6,82.7z"/>
			<path id="XMLID_470_" class="st0" d="M93.6,90.9l-3.1-3.1c-0.4,0.1-0.7,0.2-1,0.3l3.5,3.5C93.1,91.3,93.3,91.1,93.6,90.9z"/>
			<path id="XMLID_469_" class="st0" d="M88,96.8l-4.8-4.2c-0.2,0.2-0.4,0.5-0.6,0.8l4.8,4.2C87.6,97.3,87.8,97,88,96.8z"/>
			<path id="XMLID_468_" class="st0" d="M86.7,98.3l-4.7-4c-0.2,0.3-0.3,0.6-0.5,0.9l4.6,3.9C86.2,98.8,86.4,98.6,86.7,98.3z"/>
			<path id="XMLID_467_" class="st0" d="M101.1,84l-3.8-4.5c-0.2,0.3-0.4,0.6-0.6,0.8l3.7,4.3C100.6,84.4,100.8,84.2,101.1,84z"/>
			<path id="XMLID_466_" class="st0" d="M99.5,85.3l-3.5-4c-0.2,0.3-0.3,0.6-0.5,1l3.2,3.6C99,85.8,99.3,85.5,99.5,85.3z"/>
			<path id="XMLID_465_" class="st0" d="M98,86.7l-2.9-3.1c-0.1,0.3-0.2,0.7-0.3,1l0,0.1l2.5,2.7C97.5,87.1,97.8,86.9,98,86.7z"/>
			<path id="XMLID_464_" class="st0" d="M95,89.4l-2.1-2.2l-1.1,0.2c0,0,0,0,0,0l2.6,2.7C94.6,89.9,94.8,89.7,95,89.4z"/>
			<path id="XMLID_463_" class="st0" d="M96.5,88.1l-2-2.1L94.2,87l-0.1,0l1.6,1.7C96,88.5,96.3,88.3,96.5,88.1z"/>
			<path id="XMLID_462_" class="st0" d="M89.3,95.3L84.6,91c-0.2,0.2-0.5,0.4-0.7,0.7l4.8,4.3C88.9,95.7,89.1,95.5,89.3,95.3z"/>
			<path id="XMLID_461_" class="st0" d="M76.9,111.3l-5.2-3.3c-0.2,0.2-0.4,0.5-0.7,0.7l5.3,3.4C76.6,111.8,76.7,111.6,76.9,111.3z"
				/>
			<path id="XMLID_460_" class="st0" d="M85.3,99.9l-4.4-3.6c-0.1,0.3-0.3,0.6-0.4,1l4.2,3.4C84.9,100.4,85.1,100.1,85.3,99.9z"/>
			<path id="XMLID_459_" class="st0" d="M74.7,114.7l-5.5-3.3c-0.1,0.3-0.3,0.6-0.4,0.9l5.4,3.2C74.4,115.3,74.6,115,74.7,114.7z"/>
			<path id="XMLID_458_" class="st0" d="M73.7,116.5l-5.3-3c-0.1,0.3-0.2,0.6-0.3,1l5.1,2.9C73.4,117,73.5,116.8,73.7,116.5z"/>
			<path id="XMLID_457_" class="st0" d="M78,109.6l-4.6-3.1c-0.3,0.2-0.5,0.4-0.8,0.7l4.9,3.3C77.7,110.1,77.9,109.9,78,109.6z"/>
			<path id="XMLID_456_" class="st0" d="M75.8,113l-5.4-3.4c-0.2,0.3-0.4,0.5-0.5,0.8l5.4,3.4C75.5,113.6,75.6,113.3,75.8,113z"/>
			<path id="XMLID_455_" class="st0" d="M82.8,103l-3-2.3c0,0.1,0,0.2,0,0.2l-0.1,0.9l2.5,1.9C82.4,103.5,82.6,103.3,82.8,103z"/>
			<path id="XMLID_454_" class="st0" d="M84.1,101.4l-3.9-3.1c-0.1,0.3-0.2,0.7-0.2,1.1l3.5,2.8C83.7,101.9,83.9,101.7,84.1,101.4z"
				/>
			<path id="XMLID_453_" class="st0" d="M80.4,106.3l-2.9-2.1l-0.3,0.1c-0.3,0.1-0.5,0.2-0.8,0.3l3.4,2.4
				C80,106.8,80.2,106.5,80.4,106.3z"/>
			<path id="XMLID_452_" class="st0" d="M79.2,107.9l-3.9-2.7c-0.3,0.2-0.6,0.4-0.9,0.6l4.3,2.9C78.8,108.5,79,108.2,79.2,107.9z"/>
			<path id="XMLID_451_" class="st0" d="M81.6,104.6l-2-1.5l0,0.3l-0.8,0.3l2.3,1.7C81.2,105.2,81.4,104.9,81.6,104.6z"/>
			<path id="XMLID_450_" class="st0" d="M132.1,64.8l-1-2.2l-0.2,0.2l-0.9-0.1l1.1,2.5C131.5,65.1,131.8,65,132.1,64.8z"/>
			<path id="XMLID_449_" class="st0" d="M133.9,64.1l-1.4-3.5c0,0.1-0.1,0.1-0.1,0.2l-0.5,0.8l1.2,2.9
				C133.3,64.3,133.6,64.2,133.9,64.1z"/>
			<path id="XMLID_448_" class="st0" d="M130.2,65.7l-1.4-3.2l-0.3,0c-0.3,0-0.6-0.1-0.8-0.1l1.7,3.7
				C129.6,65.9,129.9,65.8,130.2,65.7z"/>
			<path id="XMLID_447_" class="st0" d="M145.4,60l-1.7-5.7c-0.3,0-0.7,0.1-1,0.1l1.8,5.9C144.8,60.2,145.1,60.1,145.4,60z"/>
			<path id="XMLID_446_" class="st0" d="M126.5,67.4l-2.5-5c-0.3,0-0.7,0.1-1,0.2l2.6,5.2C125.9,67.7,126.2,67.5,126.5,67.4z"/>
			<path id="XMLID_445_" class="st0" d="M128.3,66.5l-2-4.2c-0.4,0-0.7,0-1.1,0l2.2,4.6C127.8,66.8,128.1,66.7,128.3,66.5z"/>
			<path id="XMLID_444_" class="st0" d="M143.5,60.6l-1.9-6c-0.3,0.1-0.6,0.1-0.9,0.2l1.9,6C142.9,60.8,143.2,60.7,143.5,60.6z"/>
			<path id="XMLID_443_" class="st0" d="M124.7,68.3l-2.8-5.4c-0.3,0.1-0.6,0.2-0.9,0.3l2.9,5.6C124.1,68.6,124.4,68.4,124.7,68.3z"
				/>
			<path id="XMLID_442_" class="st0" d="M141.5,61.2l-2-6c-0.3,0.1-0.6,0.2-0.9,0.4l2,6C140.9,61.4,141.2,61.3,141.5,61.2z"/>
			<path id="XMLID_441_" class="st0" d="M137.7,62.6l-2-5.3c-0.3,0.2-0.5,0.4-0.8,0.6l1.9,5C137.1,62.8,137.4,62.7,137.7,62.6z"/>
			<path id="XMLID_440_" class="st0" d="M139.6,61.9l-2.1-5.8c-0.3,0.2-0.6,0.3-0.9,0.5l2,5.6C139,62.1,139.3,62,139.6,61.9z"/>
			<path id="XMLID_439_" class="st0" d="M135.8,63.3l-1.8-4.6c-0.3,0.3-0.5,0.5-0.7,0.8l1.6,4.1C135.2,63.5,135.5,63.4,135.8,63.3z"
				/>
			<path id="XMLID_438_" class="st0" d="M105.8,80.2l-3.8-5c-0.3,0.2-0.6,0.3-0.8,0.5l3.9,5.1C105.3,80.6,105.6,80.4,105.8,80.2z"/>
			<path id="XMLID_437_" class="st0" d="M109.1,77.8l-2.9-4.1c-0.3,0.1-0.7,0.2-1,0.3l3.2,4.4C108.6,78.2,108.8,78,109.1,77.8z"/>
			<path id="XMLID_436_" class="st0" d="M110.7,76.6l-2.3-3.3c-0.4,0-0.8,0.1-1.1,0.1l2.6,3.7C110.2,77,110.5,76.8,110.7,76.6z"/>
			<path id="XMLID_435_" class="st0" d="M107.4,79l-3.5-4.7c-0.3,0.1-0.6,0.2-0.9,0.4l3.6,4.9C106.9,79.4,107.2,79.2,107.4,79z"/>
			<path id="XMLID_434_" class="st0" d="M241.8,70.7l2.7-4.8c-0.3-0.1-0.7-0.1-1-0.1l-2.5,4.5C241.2,70.4,241.5,70.5,241.8,70.7z"/>
			<path id="XMLID_433_" class="st0" d="M104.2,81.4l-4-5c-0.3,0.2-0.5,0.4-0.8,0.6l4,5C103.7,81.8,104,81.6,104.2,81.4z"/>
			<path id="XMLID_432_" class="st0" d="M122.9,69.2l-3-5.6c-0.3,0.1-0.6,0.3-0.9,0.4l3,5.6C122.3,69.5,122.6,69.4,122.9,69.2z"/>
			<path id="XMLID_431_" class="st0" d="M114.1,74.4l-1.8-2.8l-0.5,1.1l1.5,2.3C113.6,74.7,113.9,74.5,114.1,74.4z"/>
			<path id="XMLID_430_" class="st0" d="M119.3,71.2l-3-5.2c-0.3,0.2-0.5,0.5-0.7,0.7l2.9,5.1C118.8,71.5,119.1,71.4,119.3,71.2z"/>
			<path id="XMLID_429_" class="st0" d="M121.1,70.2l-3.1-5.6c-0.3,0.2-0.5,0.4-0.8,0.6l3,5.5C120.5,70.5,120.8,70.4,121.1,70.2z"/>
			<path id="XMLID_428_" class="st0" d="M117.6,72.2l-2.8-4.7c-0.2,0.3-0.4,0.5-0.6,0.8l2.6,4.4C117,72.6,117.3,72.4,117.6,72.2z"/>
			<path id="XMLID_427_" class="st0" d="M115.9,73.3l-2.4-3.9c-0.2,0.3-0.4,0.6-0.5,1l2.1,3.4C115.3,73.6,115.6,73.5,115.9,73.3z"/>
			<path id="XMLID_426_" class="st0" d="M284.5,110.4l2.2-1.5l0-1.2l-2.7,1.8C284.2,109.9,284.3,110.1,284.5,110.4z"/>
			<path id="XMLID_425_" class="st0" d="M57.9,208.1L57.9,208.1l2.2-0.5c-0.1-0.3-0.2-0.6-0.2-1l-2.8,0.7L57.9,208.1z"/>
			<path id="XMLID_424_" class="st0" d="M51.7,194.4l6-0.7c0-0.3-0.1-0.6-0.1-1l-5.7,0.7C51.8,193.7,51.7,194,51.7,194.4z"/>
			<path id="XMLID_423_" class="st0" d="M56.5,212.9l4.7-1.2c-0.1-0.3-0.2-0.6-0.3-0.9l-4.2,1.1C56.6,212.2,56.6,212.5,56.5,212.9z"
				/>
			<path id="XMLID_422_" class="st0" d="M57.1,210.5l3.5-0.9c-0.1-0.3-0.2-0.6-0.2-1l-2.9,0.7L57.1,210.5
				C57.1,210.5,57.1,210.5,57.1,210.5z"/>
			<path id="XMLID_421_" class="st0" d="M57.4,191.7c0-0.3-0.1-0.7-0.1-1l-5,0.5c-0.1,0.3-0.2,0.7-0.3,1L57.4,191.7z"/>
			<path id="XMLID_420_" class="st0" d="M53.1,158.4l5.3,0.9c0.1-0.3,0.1-0.6,0.2-1l-5.6-0.9C53,157.7,53,158,53.1,158.4z"/>
			<path id="XMLID_419_" class="st0" d="M303.3,157.2l5.8-1.1c-0.1-0.3-0.3-0.6-0.4-0.9l-5.5,1C303.2,156.6,303.3,156.9,303.3,157.2
				z"/>
			<path id="XMLID_418_" class="st0" d="M58.7,138l4.5,1.5c0.1-0.3,0.2-0.6,0.3-0.9l-4.9-1.7C58.6,137.3,58.7,137.6,58.7,138z"/>
			<path id="XMLID_417_" class="st0" d="M59.2,140.4l3.4,1.1c0.1-0.3,0.2-0.6,0.3-0.9l-4-1.3C59,139.6,59.1,139.9,59.2,140.4
				L59.2,140.4z"/>
			<path id="XMLID_416_" class="st0" d="M57.4,166.3L54,166l-0.2,0.2c-0.2,0.2-0.3,0.4-0.5,0.7l4.1,0.4
				C57.4,167,57.4,166.7,57.4,166.3z"/>
			<path id="XMLID_415_" class="st0" d="M64.8,229.1l-0.1,0.9l2.5-1.1c-0.1-0.3-0.3-0.6-0.4-0.9l-2.2,1L64.8,229.1z"/>
			<path id="XMLID_414_" class="st0" d="M304.2,163.3l6.2-0.8c0-0.3,0-0.7,0-1l-6.3,0.8C304.1,162.6,304.2,163,304.2,163.3z"/>
			<path id="XMLID_413_" class="st0" d="M67.9,121.5l2.4,1.2c0.1-0.3,0.3-0.6,0.5-0.9l-3-1.5L67.9,121.5z"/>
			<path id="XMLID_412_" class="st0" d="M305.2,176.5c0,0.3,0,0.6,0,1l5.5-0.1c-0.1-0.3-0.2-0.6-0.4-1L305.2,176.5z"/>
			<path id="XMLID_411_" class="st0" d="M303.6,159.2l6.2-1c-0.1-0.3-0.2-0.6-0.3-0.9l-6,1C303.5,158.6,303.6,158.9,303.6,159.2z"/>
			<path id="XMLID_410_" class="st0" d="M304,161.3l6.3-0.9c0-0.3-0.1-0.6-0.2-1l-6.3,0.9C303.9,160.6,303.9,160.9,304,161.3z"/>
			<path id="XMLID_409_" class="st0" d="M305.2,179c0,0.2,0,0.3,0,0.5h6c-0.1-0.3-0.1-0.7-0.2-1h-5.8
				C305.2,178.7,305.2,178.8,305.2,179z"/>
			<path id="XMLID_408_" class="st0" d="M294.1,236.5l-2.4-1.2c-0.2,0.3-0.3,0.6-0.5,0.9l3,1.5L294.1,236.5z"/>
			<path id="XMLID_407_" class="st0" d="M304.6,191.7l3.5,0.3l0.2-0.2c0.2-0.2,0.3-0.5,0.5-0.7l-4.1-0.4
				C304.6,191,304.6,191.3,304.6,191.7z"/>
			<path id="XMLID_406_" class="st0" d="M303.3,220l-4.5-1.5c-0.1,0.3-0.2,0.6-0.3,0.9l4.9,1.7C303.4,220.7,303.4,220.4,303.3,220z"
				/>
			<path id="XMLID_405_" class="st0" d="M64.5,231.5c0,0.3-0.1,0.6-0.1,0.8l3.7-1.7c-0.1-0.3-0.3-0.6-0.4-0.9l-3.2,1.4L64.5,231.5z"
				/>
			<path id="XMLID_404_" class="st0" d="M308.9,199.6l-5.3-0.9c-0.1,0.3-0.1,0.6-0.2,1l5.6,0.9C309.1,200.3,309,200,308.9,199.6z"/>
			<path id="XMLID_403_" class="st0" d="M243.5,71.7l3-5.3c-0.3-0.1-0.6-0.2-1-0.3l-2.9,5C243,71.4,243.2,71.5,243.5,71.7z"/>
			<path id="XMLID_402_" class="st0" d="M52.9,183.7l4-0.1c0-0.3,0-0.6,0-1l-4.6,0.2C52.5,183.1,52.7,183.4,52.9,183.7z"/>
			<path id="XMLID_401_" class="st0" d="M307.3,195.1l-3.1-0.4c0,0.3-0.1,0.6-0.1,1l3.7,0.5c0-0.1-0.1-0.1-0.1-0.2L307.3,195.1z"/>
			<path id="XMLID_400_" class="st0" d="M304.6,166.3c0,0.3,0.1,0.6,0.1,1l5-0.5c0.1-0.3,0.2-0.7,0.3-1L304.6,166.3z"/>
			<path id="XMLID_399_" class="st0" d="M309.1,174.3l-4,0.1c0,0.3,0,0.6,0,1l4.6-0.1C309.5,174.9,309.4,174.6,309.1,174.3z"/>
			<path id="XMLID_398_" class="st0" d="M304.5,192.7c0,0.3-0.1,0.6-0.1,1l2.4,0.3l-0.1-0.3l0.6-0.7L304.5,192.7z"/>
			<path id="XMLID_397_" class="st0" d="M309.2,168l-4.5,0.4c0,0.3,0.1,0.6,0.1,1l3.9-0.3C308.9,168.7,309.1,168.3,309.2,168z"/>
			<path id="XMLID_396_" class="st0" d="M308.3,197.4l-4.4-0.6c0,0.3-0.1,0.6-0.1,1l4.8,0.7C308.6,198.1,308.4,197.7,308.3,197.4z"
				/>
			<path id="XMLID_395_" class="st0" d="M305.2,181.5l6.3,0.1c0-0.3,0-0.7-0.1-1l-6.2-0.1C305.2,180.9,305.2,181.2,305.2,181.5z"/>
			<path id="XMLID_394_" class="st0" d="M52.8,190l4.5-0.4c0-0.3-0.1-0.6-0.1-1l-3.9,0.3C53.1,189.3,52.9,189.7,52.8,190z"/>
			<path id="XMLID_393_" class="st0" d="M62,143.4c0.1-0.3,0.2-0.6,0.3-0.9l-2.7-0.8l0.3,1l-0.1,0L62,143.4z"/>
			<path id="XMLID_392_" class="st0" d="M307.7,172.3l-2.7,0.1c0,0.3,0,0.7,0,1l3.3-0.2L307.7,172.3z"/>
			<path id="XMLID_391_" class="st0" d="M308.1,170.2l-3.2,0.2c0,0.3,0,0.7,0.1,1l2.6-0.2L308.1,170.2z"/>
			<path id="XMLID_390_" class="st0" d="M300,214.6c-0.1,0.3-0.2,0.6-0.3,0.9l2.7,0.8l-0.3-1l0.1,0L300,214.6z"/>
			<path id="XMLID_389_" class="st0" d="M53.7,160.6l4.4,0.6c0-0.3,0.1-0.6,0.1-1l-4.8-0.7C53.5,159.9,53.6,160.3,53.7,160.6z"/>
			<path id="XMLID_388_" class="st0" d="M54.7,162.9l3.1,0.4c0-0.3,0.1-0.6,0.1-1l-3.7-0.5c0,0.1,0.1,0.1,0.1,0.2L54.7,162.9z"/>
			<path id="XMLID_387_" class="st0" d="M57.6,165.3c0-0.3,0.1-0.6,0.1-1l-2.4-0.3l0.1,0.3l-0.6,0.7L57.6,165.3z"/>
			<path id="XMLID_386_" class="st0" d="M54.3,185.7l2.7-0.1c0-0.3,0-0.7,0-1l-3.3,0.2L54.3,185.7z"/>
			<path id="XMLID_385_" class="st0" d="M53.9,187.8l3.2-0.2c0-0.3,0-0.7-0.1-1l-2.6,0.2L53.9,187.8z"/>
			<path id="XMLID_384_" class="st0" d="M304.9,147.5l-3.5,0.9c0.1,0.3,0.2,0.6,0.2,0.9l2.9-0.7L304.9,147.5
				C304.9,147.5,304.9,147.5,304.9,147.5z"/>
			<path id="XMLID_383_" class="st0" d="M304.1,149.9L304.1,149.9l-2.2,0.5c0.1,0.3,0.2,0.6,0.2,1l2.8-0.6L304.1,149.9z"/>
			<path id="XMLID_382_" class="st0" d="M310.3,163.6l-6,0.7c0,0.3,0.1,0.6,0.1,1l5.7-0.7C310.2,164.3,310.3,164,310.3,163.6z"/>
			<path id="XMLID_381_" class="st0" d="M305.5,145.1l-4.7,1.2c0.1,0.3,0.2,0.6,0.3,0.9l4.2-1.1
				C305.4,145.8,305.5,145.5,305.5,145.1z"/>
			<path id="XMLID_380_" class="st0" d="M297.2,128.9l0.1-0.9l-2.5,1.1c0.1,0.3,0.3,0.6,0.4,0.9l2.2-1L297.2,128.9z"/>
			<path id="XMLID_379_" class="st0" d="M297.6,126.4c0-0.3,0.1-0.6,0.1-0.8l-3.7,1.7c0.1,0.3,0.3,0.6,0.4,0.9l3.2-1.4L297.6,126.4z
				"/>
			<path id="XMLID_378_" class="st0" d="M302.8,217.6l-3.4-1.1c-0.1,0.3-0.2,0.6-0.3,0.9l4,1.3C303,218.4,303,218.1,302.8,217.6
				L302.8,217.6z"/>
			<path id="XMLID_377_" class="st0" d="M269.1,91.6l3.1-3.1c-0.1-0.4-0.2-0.7-0.3-1l-3.5,3.5C268.7,91.1,268.9,91.3,269.1,91.6z"/>
			<path id="XMLID_376_" class="st0" d="M267.7,90.1l3.7-3.9c-0.1-0.3-0.3-0.6-0.5-0.9l-4,4.1C267.2,89.7,267.5,89.9,267.7,90.1z"/>
			<path id="XMLID_375_" class="st0" d="M270.6,93l2.2-2.1l-0.2-1.1c0,0,0,0,0,0l-2.7,2.6C270.1,92.5,270.3,92.8,270.6,93z"/>
			<path id="XMLID_374_" class="st0" d="M264.7,87.3l4.3-4.7c-0.2-0.2-0.4-0.5-0.7-0.7l-4.3,4.8C264.3,86.9,264.5,87.1,264.7,87.3z"
				/>
			<path id="XMLID_373_" class="st0" d="M278.6,102.2l5-4c-0.2-0.3-0.4-0.5-0.6-0.8l-5,4C278.2,101.7,278.4,101.9,278.6,102.2z"/>
			<path id="XMLID_372_" class="st0" d="M277.3,100.6l4.9-4c-0.2-0.2-0.5-0.5-0.7-0.7l-4.8,3.9C276.9,100.1,277.1,100.4,277.3,100.6
				z"/>
			<path id="XMLID_371_" class="st0" d="M276,99.1l4.5-3.8c-0.3-0.2-0.6-0.4-0.8-0.6l-4.3,3.7C275.6,98.6,275.8,98.8,276,99.1z"/>
			<path id="XMLID_370_" class="st0" d="M263.2,86l4.2-4.8c-0.3-0.2-0.5-0.4-0.8-0.6l-4.2,4.8C262.7,85.5,263,85.8,263.2,86z"/>
			<path id="XMLID_369_" class="st0" d="M272,94.5l2.1-2l-1.1-0.3l0-0.1l-1.7,1.6C271.5,94,271.7,94.3,272,94.5z"/>
			<path id="XMLID_368_" class="st0" d="M273.3,96l3.2-2.9c-0.3-0.1-0.7-0.2-1-0.3l-0.1,0l-2.7,2.5C272.9,95.5,273.1,95.7,273.3,96z
				"/>
			<path id="XMLID_367_" class="st0" d="M274.7,97.5l4-3.5c-0.3-0.2-0.6-0.3-1-0.5l-3.6,3.2C274.2,97,274.5,97.3,274.7,97.5z"/>
			<path id="XMLID_366_" class="st0" d="M266.2,88.7l4.1-4.4c-0.2-0.3-0.4-0.5-0.6-0.8l-4.2,4.5C265.8,88.3,266,88.5,266.2,88.7z"/>
			<path id="XMLID_365_" class="st0" d="M248.7,74.9l3.3-5.2c-0.2-0.2-0.5-0.4-0.7-0.7l-3.4,5.3C248.2,74.5,248.4,74.7,248.7,74.9z"
				/>
			<path id="XMLID_364_" class="st0" d="M252.1,77.2l2.7-3.9c-0.2-0.3-0.4-0.6-0.6-0.9l-2.9,4.3C251.5,76.8,251.8,77,252.1,77.2z"/>
			<path id="XMLID_363_" class="st0" d="M250.4,76l3.1-4.6c-0.2-0.3-0.4-0.5-0.7-0.8l-3.3,4.9C249.9,75.7,250.1,75.8,250.4,76z"/>
			<path id="XMLID_362_" class="st0" d="M247,73.8l3.4-5.4c-0.3-0.2-0.5-0.4-0.8-0.5l-3.4,5.4C246.4,73.5,246.7,73.6,247,73.8z"/>
			<path id="XMLID_361_" class="st0" d="M261.7,84.6l4-4.7c-0.3-0.2-0.6-0.3-0.9-0.5L261,84C261.2,84.2,261.5,84.4,261.7,84.6z"/>
			<path id="XMLID_360_" class="st0" d="M245.3,72.7l3.3-5.5c-0.3-0.1-0.6-0.3-0.9-0.4l-3.2,5.4C244.7,72.4,245,72.6,245.3,72.7z"/>
			<path id="XMLID_359_" class="st0" d="M260.2,83.3l3.6-4.4c-0.3-0.1-0.6-0.3-1-0.4l-3.4,4.2C259.6,82.9,259.9,83.1,260.2,83.3z"/>
			<path id="XMLID_358_" class="st0" d="M258.6,82.1l3.1-3.9c-0.4-0.1-0.7-0.2-1.1-0.2l-2.8,3.5C258.1,81.6,258.3,81.8,258.6,82.1z"
				/>
			<path id="XMLID_357_" class="st0" d="M257,80.8l2.3-3c-0.1,0-0.2,0-0.2,0l-0.9-0.1l-1.9,2.5C256.5,80.4,256.7,80.6,257,80.8z"/>
			<path id="XMLID_356_" class="st0" d="M253.7,78.4l2.1-2.9l-0.1-0.3c-0.1-0.3-0.2-0.5-0.3-0.8l-2.4,3.3
				C253.2,78,253.5,78.2,253.7,78.4z"/>
			<path id="XMLID_355_" class="st0" d="M255.4,79.6l1.5-2l-0.3,0l-0.3-0.8l-1.7,2.3C254.8,79.2,255.1,79.4,255.4,79.6z"/>
			<path id="XMLID_354_" class="st0" d="M287.8,115.6l4.7-2.8c-0.3-0.2-0.5-0.4-0.8-0.6l-4.4,2.6C287.4,115,287.6,115.3,287.8,115.6
				z"/>
			<path id="XMLID_353_" class="st0" d="M297.4,135.7l5.3-2c-0.2-0.3-0.4-0.5-0.7-0.8l-5,1.9C297.2,135.1,297.3,135.4,297.4,135.7z"
				/>
			<path id="XMLID_352_" class="st0" d="M298.1,137.6l5.8-2.1c-0.2-0.3-0.3-0.6-0.5-0.9l-5.6,2C297.9,137,298,137.3,298.1,137.6z"/>
			<path id="XMLID_351_" class="st0" d="M296.7,133.8l4.6-1.8c-0.3-0.3-0.5-0.5-0.8-0.7l-4.1,1.6
				C296.5,133.2,296.6,133.5,296.7,133.8z"/>
			<path id="XMLID_350_" class="st0" d="M292.6,124.5l5-2.5c0-0.3-0.1-0.7-0.2-1l-5.2,2.6C292.3,123.9,292.5,124.2,292.6,124.5z"/>
			<path id="XMLID_349_" class="st0" d="M293.5,126.3l4.3-2c0-0.4,0-0.7,0-1.1l-4.6,2.2C293.2,125.7,293.4,126,293.5,126.3z"/>
			<path id="XMLID_348_" class="st0" d="M295.9,131.9l3.5-1.4c-0.1,0-0.1-0.1-0.2-0.1l-0.8-0.5l-2.9,1.2
				C295.7,131.3,295.8,131.6,295.9,131.9z"/>
			<path id="XMLID_347_" class="st0" d="M300.6,145.4l5.1-1.5c0-0.3,0-0.7,0.1-1l-5.4,1.5C300.4,144.7,300.5,145,300.6,145.4z"/>
			<path id="XMLID_346_" class="st0" d="M298.8,139.5l6-2c-0.1-0.3-0.2-0.6-0.4-0.9l-6,2C298.6,138.9,298.7,139.2,298.8,139.5z"/>
			<path id="XMLID_345_" class="st0" d="M302.5,153.3l4.1-0.9c-0.2-0.3-0.5-0.5-0.7-0.8l-0.1-0.1l-3.5,0.8
				C302.4,152.6,302.5,152.9,302.5,153.3z"/>
			<path id="XMLID_344_" class="st0" d="M300,143.4l5.7-1.7c0-0.3-0.1-0.7-0.1-1l-5.9,1.8C299.8,142.8,299.9,143.1,300,143.4z"/>
			<path id="XMLID_343_" class="st0" d="M299.4,141.5l6-1.9c-0.1-0.3-0.1-0.6-0.2-1l-6,1.9C299.2,140.8,299.3,141.2,299.4,141.5z"/>
			<path id="XMLID_342_" class="st0" d="M288.8,117.3l5.2-3c-0.2-0.3-0.5-0.5-0.7-0.7l-5.1,2.9C288.5,116.8,288.6,117,288.8,117.3z"
				/>
			<path id="XMLID_341_" class="st0" d="M285.6,112.1l2.8-1.8l-1.1-0.5l-2.3,1.5C285.3,111.6,285.5,111.8,285.6,112.1z"/>
			<path id="XMLID_340_" class="st0" d="M72.7,118.2l-4.8-2.7c-0.1,0.3-0.1,0.7-0.1,1l4.5,2.5C72.4,118.8,72.5,118.5,72.7,118.2z"/>
			<path id="XMLID_339_" class="st0" d="M283.4,108.7l3.3-2.3c0-0.4-0.1-0.8-0.1-1.1l-3.7,2.6C283,108.2,283.2,108.5,283.4,108.7z"
				/>
			<path id="XMLID_338_" class="st0" d="M282.2,107.1l4.1-2.9c-0.1-0.3-0.2-0.7-0.3-1l-4.4,3.2C281.8,106.5,282,106.8,282.2,107.1z"
				/>
			<path id="XMLID_337_" class="st0" d="M281,105.4l4.7-3.5c-0.1-0.3-0.2-0.6-0.4-0.9l-4.9,3.6C280.6,104.9,280.8,105.2,281,105.4z"
				/>
			<path id="XMLID_336_" class="st0" d="M289.8,119.1l5.6-3.1c-0.2-0.3-0.4-0.5-0.6-0.8l-5.5,3C289.5,118.5,289.6,118.8,289.8,119.1
				z"/>
			<path id="XMLID_335_" class="st0" d="M291.7,122.7l5.4-2.8c-0.1-0.3-0.2-0.6-0.3-0.9l-5.6,2.9
				C291.4,122.1,291.6,122.4,291.7,122.7z"/>
			<path id="XMLID_334_" class="st0" d="M286.7,113.8l3.9-2.4c-0.3-0.2-0.6-0.4-1-0.5l-3.4,2.1C286.4,113.3,286.5,113.6,286.7,113.8
				z"/>
			<path id="XMLID_333_" class="st0" d="M290.8,120.9l5.6-3c-0.1-0.3-0.3-0.6-0.4-0.9l-5.6,3C290.5,120.3,290.6,120.6,290.8,120.9z"
				/>
			<path id="XMLID_332_" class="st0" d="M279.8,103.8l5-3.8c-0.2-0.3-0.3-0.6-0.5-0.8l-5.1,3.9C279.4,103.3,279.6,103.5,279.8,103.8
				z"/>
			<path id="XMLID_331_" class="st0" d="M302.9,155.2l5.1-1c-0.2-0.3-0.4-0.6-0.6-0.9l-4.7,0.9C302.8,154.6,302.9,154.9,302.9,155.2
				z"/>
			<path id="XMLID_330_" class="st0" d="M292.2,234.4l2.3,1.1l1-0.6l-2.9-1.4C292.5,233.8,292.3,234.1,292.2,234.4z"/>
			<path id="XMLID_329_" class="st0" d="M230,293.1l1,2.2l0.1-0.2l0.9,0.1l-1.1-2.5C230.6,292.9,230.3,293,230,293.1z"/>
			<path id="XMLID_328_" class="st0" d="M71.3,120.9c0.2-0.3,0.3-0.6,0.5-0.9l-4-2.2c0,0.4,0,0.7,0,1.1L71.3,120.9z"/>
			<path id="XMLID_327_" class="st0" d="M226.2,294.7l1.8,4.6c0.3-0.3,0.5-0.5,0.7-0.8l-1.6-4.1
				C226.8,294.5,226.5,294.6,226.2,294.7z"/>
			<path id="XMLID_326_" class="st0" d="M220.5,296.8l2,6c0.3-0.1,0.6-0.2,0.9-0.4l-2-6C221.1,296.6,220.8,296.7,220.5,296.8z"/>
			<path id="XMLID_325_" class="st0" d="M228.1,293.9l1.4,3.5c0-0.1,0.1-0.1,0.1-0.2l0.5-0.8l-1.2-2.9
				C228.7,293.7,228.4,293.8,228.1,293.9z"/>
			<path id="XMLID_324_" class="st0" d="M224.3,295.4l2,5.3c0.3-0.2,0.5-0.4,0.8-0.6l-1.9-5C224.9,295.2,224.6,295.3,224.3,295.4z"
				/>
			<path id="XMLID_323_" class="st0" d="M210.7,299.6l0.7,2.9l1.1,0.4c0,0,0,0,0,0l-0.9-3.5C211.4,299.5,211,299.5,210.7,299.6z"/>
			<path id="XMLID_322_" class="st0" d="M218.5,297.4l1.9,6c0.3-0.1,0.6-0.1,1-0.2l-1.9-6.1C219.2,297.2,218.9,297.3,218.5,297.4z"
				/>
			<path id="XMLID_321_" class="st0" d="M212.7,299.1l1.1,4.2c0.4,0.1,0.7,0.2,1.1,0.2l-1.2-4.7C213.3,298.9,213,299,212.7,299.1z"
				/>
			<path id="XMLID_320_" class="st0" d="M214.6,298.6l1.5,5.1c0.3,0,0.7,0,1,0l-1.6-5.4C215.3,298.4,215,298.5,214.6,298.6z"/>
			<path id="XMLID_319_" class="st0" d="M216.6,298l1.7,5.7c0.3,0,0.7-0.1,1-0.1l-1.8-5.9C217.2,297.8,216.9,297.9,216.6,298z"/>
			<path id="XMLID_318_" class="st0" d="M240.9,287.8l3.1,5.6c0.3-0.2,0.5-0.4,0.8-0.6l-3-5.5C241.5,287.5,241.2,287.6,240.9,287.8z
				"/>
			<path id="XMLID_317_" class="st0" d="M244.4,285.8l2.8,4.7c0.2-0.3,0.4-0.5,0.6-0.8l-2.6-4.4C245,285.4,244.7,285.6,244.4,285.8z
				"/>
			<path id="XMLID_316_" class="st0" d="M246.2,284.7l2.4,3.9c0.2-0.3,0.4-0.6,0.5-1l-2.1-3.5C246.7,284.4,246.4,284.5,246.2,284.7z
				"/>
			<path id="XMLID_315_" class="st0" d="M247.9,283.6l1.8,2.8l0.5-1.1l-1.5-2.3C248.4,283.3,248.2,283.4,247.9,283.6z"/>
			<path id="XMLID_314_" class="st0" d="M249.6,282.5l1.5,2.2l1.2,0l-1.8-2.7C250.1,282.2,249.9,282.3,249.6,282.5z"/>
			<path id="XMLID_313_" class="st0" d="M242.7,286.8l3,5.3c0.3-0.2,0.5-0.5,0.7-0.7l-2.9-5.1C243.2,286.5,243,286.6,242.7,286.8z"
				/>
			<path id="XMLID_312_" class="st0" d="M233.7,291.5l2,4.3c0.4,0,0.7,0,1.1,0l-2.2-4.6C234.3,291.2,234,291.3,233.7,291.5z"/>
			<path id="XMLID_311_" class="st0" d="M231.8,292.3l1.4,3.2l0.3,0c0.3,0,0.6,0.1,0.8,0.1l-1.7-3.7
				C232.4,292.1,232.1,292.2,231.8,292.3z"/>
			<path id="XMLID_310_" class="st0" d="M235.5,290.6l2.5,5c0.3,0,0.7-0.1,1-0.2l-2.6-5.3C236.1,290.3,235.8,290.5,235.5,290.6z"/>
			<path id="XMLID_309_" class="st0" d="M208.7,300.1l0.6,2.8l0.8-0.8l0.1,0l-0.5-2.3C209.4,299.9,209.1,300,208.7,300.1z"/>
			<path id="XMLID_308_" class="st0" d="M239.1,288.7l3,5.6c0.3-0.1,0.6-0.3,0.9-0.4l-3-5.7C239.7,288.4,239.4,288.6,239.1,288.7z"
				/>
			<path id="XMLID_307_" class="st0" d="M237.3,289.7l2.8,5.4c0.3-0.1,0.6-0.2,0.9-0.3l-2.9-5.6
				C237.9,289.4,237.6,289.5,237.3,289.7z"/>
			<path id="XMLID_306_" class="st0" d="M190.7,302.8l0.3,3.9c0.3,0.2,0.7,0.3,1,0.5l-0.4-4.5C191.3,302.8,191,302.8,190.7,302.8z"
				/>
			<path id="XMLID_305_" class="st0" d="M176.5,303.1l-0.2,6.4c0.3,0,0.6,0,1,0l0.2-6.4C177.1,303.1,176.8,303.1,176.5,303.1z"/>
			<path id="XMLID_304_" class="st0" d="M174.4,303l-0.3,6.1c0.3,0.1,0.6,0.2,1,0.2l0.3-6.3C175.1,303.1,174.8,303,174.4,303z"/>
			<path id="XMLID_303_" class="st0" d="M178.5,303.2l-0.1,6.3c0.3,0,0.7,0,1-0.1l0.1-6.2C179.1,303.2,178.8,303.2,178.5,303.2z"/>
			<path id="XMLID_302_" class="st0" d="M172.4,302.9l-0.4,5.5c0.3,0.1,0.6,0.2,1,0.4l0.4-5.8C173.1,302.9,172.7,302.9,172.4,302.9z
				"/>
			<path id="XMLID_301_" class="st0" d="M181,303.2c-0.2,0-0.3,0-0.5,0v6c0.3-0.1,0.7-0.1,1-0.2v-5.8
				C181.3,303.2,181.2,303.2,181,303.2z"/>
			<path id="XMLID_300_" class="st0" d="M170.4,302.7l-0.4,4.7c0.3,0.2,0.6,0.4,0.9,0.5l0.4-5.1C171,302.8,170.7,302.8,170.4,302.7z
				"/>
			<path id="XMLID_299_" class="st0" d="M164.3,302.1l-0.5,3.7c0.1,0,0.1-0.1,0.2-0.1l0.8-0.4l0.4-3.1
				C165,302.2,164.6,302.1,164.3,302.1z"/>
			<path id="XMLID_298_" class="st0" d="M182.5,303.2l0.1,5.5c0.3-0.1,0.7-0.2,1-0.4l-0.1-5.1C183.2,303.2,182.9,303.2,182.5,303.2z
				"/>
			<path id="XMLID_297_" class="st0" d="M162.3,301.8l-0.7,4.9c0.3-0.1,0.7-0.2,1-0.3l0.6-4.4C162.9,301.9,162.6,301.8,162.3,301.8z
				"/>
			<path id="XMLID_296_" class="st0" d="M168.4,302.6L168,306l0.2,0.2c0.2,0.2,0.5,0.3,0.7,0.5l0.4-4.1
				C169,302.6,168.7,302.6,168.4,302.6z"/>
			<path id="XMLID_295_" class="st0" d="M166.3,302.3l-0.3,2.4l0.2-0.1l0.7,0.6l0.3-2.7C167,302.4,166.7,302.4,166.3,302.3z"/>
			<path id="XMLID_294_" class="st0" d="M186.6,303.1l0.2,3.3l0.9-0.7l-0.1-2.7C187.3,303,186.9,303.1,186.6,303.1z"/>
			<path id="XMLID_293_" class="st0" d="M198.7,301.9l0.9,6.3c0.3,0,0.6-0.1,1-0.2l-0.9-6.3C199.4,301.8,199.1,301.9,198.7,301.9z"
				/>
			<path id="XMLID_292_" class="st0" d="M200.8,301.6l1,6.2c0.3-0.1,0.6-0.2,0.9-0.3l-1-6C201.4,301.5,201.1,301.6,200.8,301.6z"/>
			<path id="XMLID_291_" class="st0" d="M184.6,303.1l0.1,4.6c0.3-0.2,0.6-0.4,1-0.6l-0.1-4C185.2,303.1,184.9,303.1,184.6,303.1z"
				/>
			<path id="XMLID_290_" class="st0" d="M202.8,301.3l1.1,5.8c0.3-0.1,0.6-0.3,0.9-0.4l-1-5.5C203.4,301.2,203.1,301.2,202.8,301.3z
				"/>
			<path id="XMLID_289_" class="st0" d="M204.8,300.9l1,5.1c0.3-0.2,0.6-0.4,0.9-0.6l-0.9-4.7C205.4,300.8,205.1,300.9,204.8,300.9z
				"/>
			<path id="XMLID_288_" class="st0" d="M196.7,302.2l0.8,6.2c0.3,0,0.7,0,1,0l-0.8-6.3C197.4,302.1,197.1,302.2,196.7,302.2z"/>
			<path id="XMLID_287_" class="st0" d="M206.8,300.5l0.9,4.1c0.3-0.2,0.5-0.5,0.8-0.7l0.1-0.1l-0.8-3.5
				C207.4,300.4,207.1,300.4,206.8,300.5z"/>
			<path id="XMLID_286_" class="st0" d="M194.7,302.4l0.7,5.7c0.3,0.1,0.7,0.1,1,0.1l-0.7-6C195.4,302.4,195,302.4,194.7,302.4z"/>
			<path id="XMLID_285_" class="st0" d="M188.7,303l0.2,2.6l1,0.6l-0.2-3.2C189.3,302.9,189,302.9,188.7,303z"/>
			<path id="XMLID_284_" class="st0" d="M192.7,302.7l0.5,5c0.3,0.1,0.7,0.2,1,0.3l-0.5-5.4C193.3,302.6,193,302.6,192.7,302.7z"/>
			<path id="XMLID_283_" class="st0" d="M251.3,281.4l2.3,3.3c0.4,0,0.8,0,1.1-0.1l-2.6-3.7C251.8,281,251.5,281.2,251.3,281.4z"/>
			<path id="XMLID_282_" class="st0" d="M274,261.2l4.8,4.2c0.2-0.3,0.4-0.5,0.6-0.8l-4.8-4.2C274.5,260.7,274.2,261,274,261.2z"/>
			<path id="XMLID_281_" class="st0" d="M295.6,227l5.7,2.4c0.2-0.3,0.3-0.6,0.5-0.9l-5.8-2.4C295.8,226.4,295.7,226.7,295.6,227z"
				/>
			<path id="XMLID_280_" class="st0" d="M294.8,228.9l5.3,2.3c0.2-0.3,0.4-0.5,0.6-0.8l-5.5-2.4C295,228.3,294.9,228.6,294.8,228.9z
				"/>
			<path id="XMLID_279_" class="st0" d="M297.1,223.2l5.9,2.2c0.1-0.3,0.2-0.6,0.2-1l-5.7-2.2C297.3,222.6,297.2,222.9,297.1,223.2z
				"/>
			<path id="XMLID_278_" class="st0" d="M296.3,225.1l5.9,2.3c0.1-0.3,0.2-0.6,0.3-0.9l-5.9-2.3
				C296.6,224.5,296.5,224.8,296.3,225.1z"/>
			<path id="XMLID_277_" class="st0" d="M293.9,230.7l4.6,2.1c0.3-0.2,0.5-0.5,0.8-0.7l-4.9-2.2
				C294.2,230.1,294.1,230.4,293.9,230.7z"/>
			<path id="XMLID_276_" class="st0" d="M290.8,237.1c-0.2,0.3-0.3,0.6-0.5,0.9l4,2.2c0-0.4,0-0.7,0-1.1L290.8,237.1z"/>
			<path id="XMLID_275_" class="st0" d="M288.3,241.5l5.3,3c0.1-0.3,0.2-0.6,0.3-1l-5.1-2.9C288.6,240.9,288.5,241.2,288.3,241.5z"
				/>
			<path id="XMLID_274_" class="st0" d="M287.3,243.3l5.5,3.3c0.1-0.3,0.3-0.6,0.4-0.9l-5.4-3.2C287.6,242.7,287.4,243,287.3,243.3z
				"/>
			<path id="XMLID_273_" class="st0" d="M297.8,221.3l5.5,2c0-0.3,0.1-0.7,0.1-1l-5.3-1.9C298,220.7,297.9,221,297.8,221.3z"/>
			<path id="XMLID_272_" class="st0" d="M286.2,245l5.4,3.4c0.2-0.3,0.4-0.5,0.5-0.8l-5.5-3.4C286.5,244.4,286.4,244.7,286.2,245z"
				/>
			<path id="XMLID_271_" class="st0" d="M289.3,239.7l4.8,2.7c0.1-0.3,0.1-0.7,0.1-1l-4.5-2.5C289.6,239.2,289.5,239.5,289.3,239.7z
				"/>
			<path id="XMLID_270_" class="st0" d="M293.1,232.5l3.6,1.7c0.3-0.2,0.6-0.4,0.9-0.6l-4.1-1.9
				C293.3,231.9,293.2,232.2,293.1,232.5z"/>
			<path id="XMLID_269_" class="st0" d="M304.8,189.6l4.7,0.4c0.2-0.3,0.4-0.6,0.5-0.9l-5.1-0.4C304.8,189,304.8,189.3,304.8,189.6z
				"/>
			<path id="XMLID_268_" class="st0" d="M304.9,187.6l5.5,0.4c0.1-0.3,0.2-0.6,0.4-1l-5.8-0.4C305,187,304.9,187.3,304.9,187.6z"/>
			<path id="XMLID_267_" class="st0" d="M300.3,213.6l2.9,0.8l0.9-0.7c0,0,0,0,0,0l-3.5-1C300.5,213,300.4,213.3,300.3,213.6z"/>
			<path id="XMLID_266_" class="st0" d="M305,185.6l6.1,0.3c0.1-0.3,0.1-0.6,0.2-1l-6.2-0.3C305.1,184.9,305.1,185.3,305,185.6z"/>
			<path id="XMLID_265_" class="st0" d="M303.1,201.7l6.1,1.1c0-0.3,0-0.7,0-1l-5.9-1.1C303.3,201.1,303.2,201.4,303.1,201.7z"/>
			<path id="XMLID_264_" class="st0" d="M305.2,182.6c0,0.3,0,0.6,0,1l6.4,0.2c0-0.3,0.1-0.7,0.1-1L305.2,182.6z"/>
			<path id="XMLID_263_" class="st0" d="M301.4,209.7l5.1,1.3c0.2-0.3,0.4-0.6,0.6-0.9l-5.5-1.4C301.5,209,301.5,209.3,301.4,209.7z
				"/>
			<path id="XMLID_262_" class="st0" d="M300.9,211.6l4.2,1.1c0.3-0.3,0.5-0.5,0.7-0.8l-4.7-1.2C301,211,300.9,211.3,300.9,211.6z"
				/>
			<path id="XMLID_261_" class="st0" d="M302.7,203.7l6.2,1.2c0.1-0.3,0.1-0.6,0.1-1l-6.2-1.2C302.9,203.1,302.8,203.4,302.7,203.7z
				"/>
			<path id="XMLID_260_" class="st0" d="M301.9,207.7l5.8,1.3c0.1-0.3,0.3-0.6,0.4-0.9l-6-1.4C302,207,301.9,207.4,301.9,207.7z"/>
			<path id="XMLID_259_" class="st0" d="M302.3,205.7l6.1,1.3c0.1-0.3,0.2-0.6,0.3-0.9l-6.2-1.3
				C302.5,205.1,302.4,205.4,302.3,205.7z"/>
			<path id="XMLID_258_" class="st0" d="M257.8,276.6l4,5c0.3-0.2,0.5-0.4,0.8-0.6l-4-5C258.3,276.1,258.1,276.3,257.8,276.6z"/>
			<path id="XMLID_257_" class="st0" d="M265.5,269.9l2,2.1l0.3-1.1l0.1,0l-1.6-1.7C266,269.5,265.7,269.7,265.5,269.9z"/>
			<path id="XMLID_256_" class="st0" d="M269.9,265.7l3.9,3.7c0.3-0.1,0.6-0.3,0.9-0.5l-4.1-4C270.3,265.2,270.1,265.5,269.9,265.7z
				"/>
			<path id="XMLID_255_" class="st0" d="M262.5,272.7l3.5,4c0.2-0.3,0.3-0.6,0.5-1l-3.2-3.6C263,272.2,262.7,272.4,262.5,272.7z"/>
			<path id="XMLID_254_" class="st0" d="M267,268.5l2.1,2.2l1.1-0.2c0,0,0,0,0,0l-2.6-2.7C267.5,268.1,267.2,268.3,267,268.5z"/>
			<path id="XMLID_253_" class="st0" d="M268.4,267.1l3.1,3.1c0.4-0.1,0.7-0.2,1-0.3l-3.5-3.5C268.9,266.7,268.7,266.9,268.4,267.1z
				"/>
			<path id="XMLID_252_" class="st0" d="M264,271.3l2.9,3.2c0.1-0.3,0.2-0.7,0.3-1l0-0.1l-2.5-2.7
				C264.5,270.9,264.3,271.1,264,271.3z"/>
			<path id="XMLID_251_" class="st0" d="M254.6,279l3.5,4.7c0.3-0.1,0.6-0.2,0.9-0.4l-3.6-4.9C255.1,278.6,254.8,278.8,254.6,279z"
				/>
			<path id="XMLID_250_" class="st0" d="M256.2,277.8l3.8,5c0.3-0.2,0.6-0.3,0.8-0.5l-3.9-5.1C256.7,277.4,256.5,277.6,256.2,277.8z
				"/>
			<path id="XMLID_249_" class="st0" d="M259.4,275.3l4,4.9c0.2-0.2,0.5-0.5,0.7-0.7l-3.9-4.8C259.9,274.9,259.6,275.1,259.4,275.3z
				"/>
			<path id="XMLID_248_" class="st0" d="M261,274l3.8,4.5c0.2-0.3,0.4-0.6,0.6-0.8l-3.7-4.3C261.5,273.6,261.2,273.8,261,274z"/>
			<path id="XMLID_247_" class="st0" d="M285.1,246.7l5.2,3.3c0.2-0.2,0.5-0.5,0.7-0.7l-5.3-3.4
				C285.5,246.2,285.3,246.4,285.1,246.7z"/>
			<path id="XMLID_246_" class="st0" d="M252.9,280.2l2.9,4.1c0.3-0.1,0.7-0.2,1-0.2l-3.2-4.4C253.5,279.8,253.2,280,252.9,280.2z"
				/>
			<path id="XMLID_245_" class="st0" d="M281.6,251.7l2.9,2.1l0.3-0.1c0.3-0.1,0.5-0.2,0.8-0.3l-3.4-2.4
				C282,251.2,281.8,251.4,281.6,251.7z"/>
			<path id="XMLID_244_" class="st0" d="M279.2,255l3,2.3c0-0.1,0-0.2,0-0.2l0.1-0.9l-2.5-1.9C279.6,254.5,279.4,254.7,279.2,255z"
				/>
			<path id="XMLID_243_" class="st0" d="M280.4,253.3l2,1.5l0-0.3l0.8-0.3l-2.3-1.7C280.8,252.8,280.6,253.1,280.4,253.3z"/>
			<path id="XMLID_242_" class="st0" d="M284,248.4l4.6,3.1c0.3-0.2,0.5-0.4,0.8-0.7l-4.9-3.3C284.3,247.8,284.2,248.1,284,248.4z"
				/>
			<path id="XMLID_241_" class="st0" d="M282.8,250.1l3.9,2.7c0.3-0.2,0.6-0.4,0.9-0.6l-4.3-2.9C283.2,249.5,283,249.8,282.8,250.1z
				"/>
			<path id="XMLID_240_" class="st0" d="M275.4,259.7l4.8,4c0.2-0.3,0.3-0.6,0.5-0.9l-4.6-3.9C275.8,259.2,275.6,259.4,275.4,259.7z
				"/>
			<path id="XMLID_239_" class="st0" d="M272.7,262.7l4.7,4.3c0.2-0.2,0.5-0.4,0.7-0.7l-4.8-4.3
				C273.1,262.2,272.9,262.5,272.7,262.7z"/>
			<path id="XMLID_238_" class="st0" d="M160.3,301.5l-0.9,5.6c0.3,0,0.7-0.1,1-0.2l0.9-5.3C160.9,301.6,160.6,301.5,160.3,301.5z"
				/>
			<path id="XMLID_237_" class="st0" d="M277.9,256.6l3.9,3.1c0.1-0.4,0.2-0.7,0.2-1.1l-3.5-2.8
				C278.4,256.1,278.2,256.3,277.9,256.6z"/>
			<path id="XMLID_236_" class="st0" d="M271.3,264.2l4.4,4.1c0.3-0.2,0.5-0.4,0.8-0.6l-4.5-4.2C271.7,263.7,271.5,264,271.3,264.2z
				"/>
			<path id="XMLID_235_" class="st0" d="M276.7,258.1l4.4,3.6c0.1-0.3,0.3-0.6,0.4-1l-4.2-3.4C277.1,257.6,276.9,257.9,276.7,258.1z
				"/>
			<path id="XMLID_234_" class="st0" d="M222.4,296.1l2.1,5.8c0.3-0.2,0.6-0.3,0.9-0.5l-2-5.6C223,295.9,222.7,296,222.4,296.1z"/>
			<path id="XMLID_233_" class="st0" d="M78.6,249.3l-3.3,2.3c0,0.4,0.1,0.8,0.1,1.1l3.7-2.6C79,249.8,78.8,249.5,78.6,249.3z"/>
			<path id="XMLID_232_" class="st0" d="M62.6,216.5l-6,1.9c0.1,0.3,0.1,0.6,0.2,0.9l6.1-1.9C62.8,217.1,62.7,216.8,62.6,216.5z"/>
			<path id="XMLID_231_" class="st0" d="M65.3,224.2l-4.6,1.8c0.3,0.3,0.5,0.5,0.8,0.7l4.1-1.6C65.6,224.8,65.4,224.5,65.3,224.2z"
				/>
			<path id="XMLID_230_" class="st0" d="M63.9,220.4l-5.8,2.1c0.2,0.3,0.3,0.6,0.5,0.9l5.6-2C64.1,221,64,220.7,63.9,220.4z"/>
			<path id="XMLID_229_" class="st0" d="M64.6,222.3l-5.3,2c0.2,0.3,0.4,0.5,0.6,0.8l5-1.9C64.8,222.9,64.7,222.6,64.6,222.3z"/>
			<path id="XMLID_228_" class="st0" d="M62,214.6l-5.7,1.7c0,0.3,0.1,0.7,0.1,1l5.9-1.8C62.2,215.2,62.1,214.9,62,214.6z"/>
			<path id="XMLID_227_" class="st0" d="M58.4,198.8l-6.2,1c0.1,0.3,0.2,0.6,0.3,0.9l6-1C58.5,199.4,58.4,199.1,58.4,198.8z"/>
			<path id="XMLID_226_" class="st0" d="M61.4,212.6l-5.1,1.5c0,0.3,0,0.7,0,1l5.4-1.5C61.6,213.3,61.5,213,61.4,212.6z"/>
			<path id="XMLID_225_" class="st0" d="M58.7,200.8l-5.8,1.1c0.1,0.3,0.3,0.6,0.4,0.9l5.5-1C58.8,201.4,58.8,201.1,58.7,200.8z"/>
			<path id="XMLID_224_" class="st0" d="M59.5,204.7l-4.1,0.9c0.2,0.3,0.5,0.5,0.7,0.8l0.1,0.1l3.5-0.8
				C59.6,205.4,59.6,205.1,59.5,204.7z"/>
			<path id="XMLID_223_" class="st0" d="M59.1,202.7l-5.1,1c0.2,0.3,0.4,0.6,0.6,0.9l4.7-0.9C59.2,203.4,59.1,203.1,59.1,202.7z"/>
			<path id="XMLID_222_" class="st0" d="M66.1,226.1l-3.5,1.4c0.1,0,0.1,0.1,0.2,0.1l0.8,0.5l2.9-1.2
				C66.3,226.7,66.2,226.4,66.1,226.1z"/>
			<path id="XMLID_221_" class="st0" d="M75.3,244.2l-3.9,2.4c0.3,0.2,0.6,0.4,1,0.5l3.5-2.1C75.7,244.7,75.5,244.4,75.3,244.2z"/>
			<path id="XMLID_220_" class="st0" d="M74.3,242.4l-4.7,2.8c0.3,0.2,0.5,0.4,0.8,0.6l4.4-2.6C74.6,243,74.4,242.7,74.3,242.4z"/>
			<path id="XMLID_219_" class="st0" d="M73.2,240.7l-5.3,3c0.2,0.2,0.5,0.5,0.7,0.7l5.1-2.9C73.5,241.2,73.4,240.9,73.2,240.7z"/>
			<path id="XMLID_218_" class="st0" d="M76.4,245.9l-2.8,1.8l1.1,0.5l2.3-1.5C76.7,246.4,76.6,246.2,76.4,245.9z"/>
			<path id="XMLID_217_" class="st0" d="M77.5,247.6l-2.2,1.5l0,1.2l2.7-1.8C77.9,248.1,77.7,247.8,77.5,247.6z"/>
			<path id="XMLID_216_" class="st0" d="M58.1,196.7l-6.3,0.9c0,0.3,0.1,0.6,0.2,1l6.3-0.9C58.2,197.4,58.1,197.1,58.1,196.7z"/>
			<path id="XMLID_215_" class="st0" d="M68.5,231.7l-4.3,2c0,0.4,0,0.7,0,1.1l4.6-2.2C68.8,232.2,68.7,232,68.5,231.7z"/>
			<path id="XMLID_214_" class="st0" d="M72.2,238.9l-5.6,3.1c0.2,0.3,0.4,0.5,0.6,0.8l5.5-3C72.5,239.5,72.4,239.2,72.2,238.9z"/>
			<path id="XMLID_213_" class="st0" d="M69.4,233.5l-5,2.5c0,0.3,0.1,0.7,0.2,1l5.2-2.6C69.7,234.1,69.6,233.8,69.4,233.5z"/>
			<path id="XMLID_212_" class="st0" d="M70.3,235.3l-5.4,2.8c0.1,0.3,0.2,0.6,0.3,0.9l5.6-2.9C70.6,235.9,70.5,235.6,70.3,235.3z"
				/>
			<path id="XMLID_211_" class="st0" d="M71.3,237.1l-5.6,3c0.1,0.3,0.3,0.6,0.4,0.9l5.6-3C71.6,237.7,71.4,237.4,71.3,237.1z"/>
			<path id="XMLID_210_" class="st0" d="M63.2,218.5l-6,2c0.1,0.3,0.2,0.6,0.4,0.9l6-2C63.4,219.1,63.3,218.8,63.2,218.5z"/>
			<path id="XMLID_209_" class="st0" d="M64.9,134.8l-5.9-2.2c-0.1,0.3-0.2,0.6-0.2,1l5.7,2.2C64.7,135.4,64.8,135.1,64.9,134.8z"/>
			<path id="XMLID_208_" class="st0" d="M65.7,132.9l-5.9-2.3c-0.1,0.3-0.2,0.6-0.3,0.9l5.9,2.3C65.4,133.5,65.6,133.2,65.7,132.9z"
				/>
			<path id="XMLID_207_" class="st0" d="M64.2,136.7l-5.5-2c0,0.3-0.1,0.7-0.1,1l5.3,1.9C64,137.3,64.1,137,64.2,136.7z"/>
			<path id="XMLID_206_" class="st0" d="M61.1,146.4l-4.2-1.1c-0.3,0.3-0.5,0.5-0.7,0.8l4.7,1.2C61,147,61.1,146.7,61.1,146.4z"/>
			<path id="XMLID_205_" class="st0" d="M61.7,144.4l-2.9-0.8l-0.9,0.7c0,0,0,0,0,0l3.5,1C61.5,145,61.6,144.7,61.7,144.4z"/>
			<path id="XMLID_204_" class="st0" d="M69.8,123.6l-2.3-1.1l-1,0.6l2.9,1.4C69.5,124.2,69.7,123.9,69.8,123.6z"/>
			<path id="XMLID_203_" class="st0" d="M60.6,148.3l-5.1-1.3c-0.2,0.3-0.4,0.6-0.6,0.9l5.5,1.4C60.5,149,60.5,148.7,60.6,148.3z"/>
			<path id="XMLID_202_" class="st0" d="M68.9,125.5l-3.5-1.7c-0.3,0.2-0.6,0.4-0.9,0.6l4.1,1.9C68.7,126,68.8,125.7,68.9,125.5z"/>
			<path id="XMLID_201_" class="st0" d="M66.4,131l-5.7-2.4c-0.2,0.3-0.3,0.6-0.5,0.9l5.8,2.4C66.2,131.6,66.3,131.3,66.4,131z"/>
			<path id="XMLID_200_" class="st0" d="M57.8,194.7l-6.2,0.8c0,0.3,0,0.7,0,1l6.3-0.8C57.9,195.4,57.8,195,57.8,194.7z"/>
			<path id="XMLID_199_" class="st0" d="M68.1,127.3l-4.6-2.1c-0.3,0.2-0.5,0.5-0.8,0.7l4.9,2.2C67.8,127.9,67.9,127.6,68.1,127.3z"
				/>
			<path id="XMLID_198_" class="st0" d="M67.2,129.1l-5.3-2.3c-0.2,0.3-0.4,0.5-0.6,0.8l5.5,2.4C67,129.7,67.1,129.4,67.2,129.1z"/>
			<path id="XMLID_197_" class="st0" d="M57,172.4l-6.1-0.3c-0.1,0.3-0.1,0.6-0.2,1l6.2,0.3C56.9,173.1,57,172.7,57,172.4z"/>
			<path id="XMLID_196_" class="st0" d="M56.9,174.4l-6.4-0.2c0,0.3-0.1,0.7-0.1,1l6.4,0.2C56.9,175.1,56.9,174.8,56.9,174.4z"/>
			<path id="XMLID_195_" class="st0" d="M56.8,176.5l-6.4-0.1c0,0.3,0.1,0.7,0.1,1l6.2,0.1C56.8,177.1,56.8,176.8,56.8,176.5z"/>
			<path id="XMLID_194_" class="st0" d="M56.8,181.5c0-0.3,0-0.7,0-1l-5.5,0.1c0.1,0.3,0.2,0.7,0.4,1L56.8,181.5z"/>
			<path id="XMLID_193_" class="st0" d="M56.8,179c0-0.2,0-0.3,0-0.5h-6c0.1,0.3,0.1,0.7,0.2,1h5.8C56.8,179.3,56.8,179.2,56.8,179z
				"/>
			<path id="XMLID_192_" class="st0" d="M57.3,168.4l-4.7-0.4c-0.2,0.3-0.4,0.6-0.5,0.9l5.1,0.4C57.2,169,57.2,168.7,57.3,168.4z"/>
			<path id="XMLID_191_" class="st0" d="M59.7,152.3l-6.1-1.3c-0.1,0.3-0.2,0.6-0.3,0.9l6.2,1.3C59.6,152.9,59.6,152.6,59.7,152.3z"
				/>
			<path id="XMLID_190_" class="st0" d="M59.3,154.3L53,153c-0.1,0.3-0.1,0.6-0.1,1l6.2,1.2C59.1,154.9,59.2,154.6,59.3,154.3z"/>
			<path id="XMLID_189_" class="st0" d="M57.1,170.4l-5.5-0.4c-0.1,0.3-0.2,0.6-0.3,1l5.8,0.4C57.1,171,57.1,170.7,57.1,170.4z"/>
			<path id="XMLID_188_" class="st0" d="M58.9,156.3l-6.1-1.1c0,0.3,0,0.7,0,1l5.9,1.1C58.8,156.9,58.8,156.6,58.9,156.3z"/>
			<path id="XMLID_187_" class="st0" d="M60.1,150.3l-5.8-1.3c-0.1,0.3-0.3,0.6-0.4,0.9l6,1.4C60,150.9,60.1,150.6,60.1,150.3z"/>
			<path id="XMLID_186_" class="st0" d="M91.5,265l-2.2,2.1l0.2,1.1c0,0,0,0,0,0l2.7-2.6C91.9,265.4,91.7,265.2,91.5,265z"/>
			<path id="XMLID_185_" class="st0" d="M129.3,291.9l-2.1,4.6c0.2,0.3,0.5,0.5,0.7,0.8l2.2-4.9
				C129.9,292.2,129.6,292.1,129.3,291.9z"/>
			<path id="XMLID_184_" class="st0" d="M127.5,291.1l-1.7,3.5c0.2,0.3,0.4,0.6,0.6,0.9l1.9-4.1
				C128.1,291.3,127.8,291.2,127.5,291.1z"/>
			<path id="XMLID_183_" class="st0" d="M131.2,292.7l-2.3,5.3c0.3,0.2,0.5,0.4,0.8,0.6l2.4-5.5C131.8,293,131.5,292.9,131.2,292.7z
				"/>
			<path id="XMLID_182_" class="st0" d="M133,293.6l-2.4,5.8c0.3,0.2,0.6,0.3,0.9,0.5l2.4-5.9C133.6,293.8,133.3,293.7,133,293.6z"
				/>
			<path id="XMLID_181_" class="st0" d="M125.6,290.2l-1.2,2.3l0.6,1l1.4-2.9C126.2,290.5,125.9,290.3,125.6,290.2z"/>
			<path id="XMLID_180_" class="st0" d="M122,288.3l-2.2,4c0.4,0,0.7,0,1.1,0l1.9-3.6C122.6,288.6,122.3,288.4,122,288.3z"/>
			<path id="XMLID_179_" class="st0" d="M116.7,285.3l-3.3,5.5c0.3,0.2,0.6,0.3,0.9,0.4l3.2-5.4C117.3,285.6,117,285.4,116.7,285.3z
				"/>
			<path id="XMLID_178_" class="st0" d="M118.5,286.3l-3,5.3c0.3,0.1,0.6,0.2,1,0.3l2.9-5.1C119.1,286.6,118.8,286.5,118.5,286.3z"
				/>
			<path id="XMLID_177_" class="st0" d="M120.3,287.3l-2.7,4.8c0.3,0.1,0.7,0.1,1,0.1l2.5-4.5C120.8,287.6,120.5,287.5,120.3,287.3z
				"/>
			<path id="XMLID_176_" class="st0" d="M123.8,289.2l-1.5,3l1.2-0.1l1.2-2.4C124.4,289.5,124.1,289.4,123.8,289.2z"/>
			<path id="XMLID_175_" class="st0" d="M134.9,294.3l-2.3,5.9c0.3,0.1,0.6,0.2,0.9,0.3l2.3-5.9
				C135.5,294.6,135.2,294.4,134.9,294.3z"/>
			<path id="XMLID_174_" class="st0" d="M154.3,300.3l-1.3,6.1c0.3,0.1,0.6,0.2,0.9,0.3l1.3-6.2
				C154.9,300.4,154.6,300.4,154.3,300.3z"/>
			<path id="XMLID_173_" class="st0" d="M150.3,299.4l-1.3,5.1c0.3,0.2,0.6,0.4,0.9,0.6l1.4-5.5C151,299.5,150.7,299.5,150.3,299.4z
				"/>
			<path id="XMLID_172_" class="st0" d="M148.4,298.9l-1.1,4.2c0.3,0.3,0.5,0.5,0.8,0.7l1.2-4.7C149,299,148.7,298.9,148.4,298.9z"
				/>
			<path id="XMLID_171_" class="st0" d="M136.8,295.1l-2.2,5.9c0.3,0.1,0.6,0.2,1,0.2l2.2-5.7C137.4,295.3,137.1,295.2,136.8,295.1z
				"/>
			<path id="XMLID_170_" class="st0" d="M156.3,300.7l-1.2,6.2c0.3,0.1,0.6,0.1,1,0.1l1.2-6.2C156.9,300.9,156.6,300.8,156.3,300.7z
				"/>
			<path id="XMLID_169_" class="st0" d="M115,284.2l-3.4,5.4c0.3,0.2,0.5,0.4,0.8,0.5l3.4-5.5C115.6,284.5,115.3,284.4,115,284.2z"
				/>
			<path id="XMLID_168_" class="st0" d="M152.3,299.9l-1.3,5.8c0.3,0.1,0.6,0.3,0.9,0.4l1.4-6C153,300,152.6,299.9,152.3,299.9z"/>
			<path id="XMLID_167_" class="st0" d="M146.4,298.3l-0.8,2.9l0.7,0.9c0,0,0,0,0,0l1-3.5C147.1,298.5,146.7,298.4,146.4,298.3z"/>
			<path id="XMLID_166_" class="st0" d="M140.6,296.5l-1.7,4.9c0.4,0,0.7,0,1.1-0.1l1.5-4.5C141.2,296.7,140.9,296.6,140.6,296.5z"
				/>
			<path id="XMLID_165_" class="st0" d="M138.7,295.8l-2,5.5c0.3,0,0.7,0.1,1,0.1l1.9-5.3C139.3,296,139,295.9,138.7,295.8z"/>
			<path id="XMLID_164_" class="st0" d="M144.5,297.7l-0.8,2.7l1.1-0.3l0,0l0.7-2.2C145.1,297.9,144.8,297.8,144.5,297.7z"/>
			<path id="XMLID_163_" class="st0" d="M142.5,297.1l-1.3,4c0.3-0.1,0.7-0.2,1-0.2l0.1,0l1.1-3.4
				C143.2,297.3,142.9,297.2,142.5,297.1z"/>
			<path id="XMLID_162_" class="st0" d="M100.3,273.3l-4,4.8c0.3,0.2,0.6,0.3,0.9,0.5l3.9-4.6C100.8,273.8,100.6,273.6,100.3,273.3z
				"/>
			<path id="XMLID_161_" class="st0" d="M90.1,263.5l-2.2,2l1.1,0.3l0,0.1l1.7-1.6C90.5,264,90.3,263.7,90.1,263.5z"/>
			<path id="XMLID_160_" class="st0" d="M88.7,262l-3.2,2.9c0.3,0.1,0.7,0.2,1,0.3l0.1,0l2.7-2.5C89.1,262.5,88.9,262.2,88.7,262z"
				/>
			<path id="XMLID_159_" class="st0" d="M158.3,301.1l-1.1,6.1c0.3,0,0.7,0,1,0l1.1-5.9C158.9,301.2,158.6,301.2,158.3,301.1z"/>
			<path id="XMLID_158_" class="st0" d="M92.9,266.4l-3.1,3.1c0.1,0.4,0.2,0.7,0.3,1l3.5-3.5C93.3,266.9,93.1,266.7,92.9,266.4z"/>
			<path id="XMLID_157_" class="st0" d="M87.3,260.5l-4,3.5c0.3,0.2,0.6,0.3,1,0.5l3.6-3.2C87.8,261,87.6,260.7,87.3,260.5z"/>
			<path id="XMLID_156_" class="st0" d="M86,258.9l-4.5,3.8c0.3,0.2,0.6,0.4,0.8,0.6l4.3-3.7C86.4,259.4,86.2,259.2,86,258.9z"/>
			<path id="XMLID_155_" class="st0" d="M82.2,254.2l-5,3.8c0.2,0.3,0.3,0.6,0.5,0.8l5.1-3.9C82.6,254.7,82.4,254.5,82.2,254.2z"/>
			<path id="XMLID_154_" class="st0" d="M81,252.6l-4.7,3.5c0.1,0.3,0.2,0.6,0.4,0.9l4.9-3.6C81.4,253.1,81.2,252.8,81,252.6z"/>
			<path id="XMLID_153_" class="st0" d="M83.5,255.8l-5,4c0.2,0.3,0.4,0.5,0.6,0.8l5-4C83.9,256.3,83.7,256.1,83.5,255.8z"/>
			<path id="XMLID_152_" class="st0" d="M94.3,267.9l-3.7,3.9c0.1,0.3,0.3,0.6,0.5,0.9l4-4.1C94.8,268.3,94.6,268.1,94.3,267.9z"/>
			<path id="XMLID_151_" class="st0" d="M84.7,257.4l-4.9,4c0.2,0.2,0.5,0.5,0.7,0.7l4.8-3.9C85.1,257.9,84.9,257.6,84.7,257.4z"/>
			<path id="XMLID_150_" class="st0" d="M109.9,280.8l-2.7,3.9c0.2,0.3,0.4,0.6,0.6,0.9l2.9-4.3C110.5,281.2,110.2,281,109.9,280.8z
				"/>
			<path id="XMLID_149_" class="st0" d="M106.7,278.4l-1.5,2l0.3,0l0.3,0.8l1.7-2.3C107.2,278.8,106.9,278.6,106.7,278.4z"/>
			<path id="XMLID_148_" class="st0" d="M108.3,279.6l-2.1,2.9l0.1,0.3c0.1,0.3,0.2,0.5,0.3,0.8l2.4-3.4
				C108.8,280,108.6,279.8,108.3,279.6z"/>
			<path id="XMLID_147_" class="st0" d="M105,277.2l-2.3,3c0.1,0,0.2,0,0.2,0l0.9,0.1l1.9-2.5C105.6,277.6,105.3,277.4,105,277.2z"
				/>
			<path id="XMLID_146_" class="st0" d="M111.6,282l-3.1,4.6c0.2,0.3,0.4,0.5,0.7,0.8l3.3-4.9C112.2,282.3,111.9,282.2,111.6,282z"
				/>
			<path id="XMLID_145_" class="st0" d="M95.8,269.3l-4.1,4.4c0.2,0.3,0.4,0.5,0.6,0.8l4.2-4.5C96.3,269.7,96,269.5,95.8,269.3z"/>
			<path id="XMLID_144_" class="st0" d="M113.3,283.1l-3.3,5.2c0.2,0.2,0.5,0.4,0.7,0.7l3.4-5.3
				C113.9,283.4,113.6,283.3,113.3,283.1z"/>
			<path id="XMLID_143_" class="st0" d="M103.4,275.9l-3.1,3.9c0.4,0.1,0.7,0.2,1.1,0.2l2.8-3.5C104,276.3,103.7,276.1,103.4,275.9z
				"/>
			<path id="XMLID_142_" class="st0" d="M98.8,272l-4.2,4.8c0.3,0.2,0.5,0.4,0.8,0.6l4.2-4.8C99.3,272.4,99,272.2,98.8,272z"/>
			<path id="XMLID_141_" class="st0" d="M97.3,270.7l-4.3,4.7c0.2,0.2,0.4,0.5,0.7,0.7l4.3-4.8C97.8,271.1,97.5,270.9,97.3,270.7z"
				/>
			<path id="XMLID_140_" class="st0" d="M101.9,274.7l-3.7,4.4c0.3,0.1,0.6,0.3,1,0.4l3.4-4.2C102.4,275.1,102.1,274.9,101.9,274.7z
				"/>
			<path id="XMLID_139_" class="st0" d="M79.8,250.9l-4.1,2.9c0.1,0.3,0.2,0.7,0.3,1l4.4-3.2C80.2,251.4,80,251.2,79.8,250.9z"/>
		</g>
		<path id="XMLID_843_" class="st0" d="M181,43.1c-74.9,0-135.9,61-135.9,135.9c0,74.9,61,135.9,135.9,135.9
			c74.9,0,135.9-61,135.9-135.9C316.9,104,256,43.1,181,43.1z M294.3,235.6c-0.1,0.1-0.1,0.3-0.2,0.4l0.2,2.2
			c0.7,6.7-3.2,13-9.5,15.4l-2.1,0.8c-0.1,0.1-0.1,0.2-0.2,0.3l-0.2,2.3c-0.5,6.7-5.4,12.2-12,13.5L268,271
			c-0.1,0.1-0.2,0.1-0.2,0.2l-0.6,2.3c-1.7,6.5-7.5,11.1-14.2,11.2l-2.3,0c-0.1,0.1-0.2,0.1-0.3,0.2l-0.9,2.1
			c-2.8,6.1-9.3,9.6-15.9,8.6l-2.2-0.4c-0.1,0.1-0.3,0.1-0.4,0.2l-1.2,1.8c-3.8,5.6-10.8,7.9-17.1,5.7l-2.1-0.7
			c-0.2,0-0.4,0.1-0.5,0.1l-1.5,1.6c-4.7,4.8-12,5.9-17.9,2.6l-1.9-1.1c-0.2,0-0.3,0-0.5,0l-1.8,1.3c-2.6,1.9-5.6,2.8-8.7,2.8
			c-3.3,0-6.7-1.1-9.4-3.3l-1.7-1.4c-0.2,0-0.3,0-0.5-0.1l-2,1c-6,2.9-13.3,1.4-17.7-3.7l-1.4-1.7c-0.2-0.1-0.3-0.1-0.5-0.2
			l-2.1,0.6c-6.5,1.8-13.3-0.9-16.8-6.7l-1.2-1.9c-0.1-0.1-0.3-0.1-0.4-0.2l-2.2,0.2c-6.7,0.7-13-3.2-15.4-9.5l-0.8-2.1
			c-0.1-0.1-0.2-0.1-0.3-0.2l-2.3-0.2c-6.7-0.5-12.2-5.4-13.5-12L89,266c-0.1-0.1-0.1-0.1-0.2-0.2l-2.3-0.6
			c-6.5-1.7-11.1-7.5-11.2-14.2l0-2.3c-0.1-0.1-0.1-0.2-0.2-0.3l-2.1-0.9c-6.1-2.8-9.6-9.3-8.6-15.9l0.4-2.2
			c-0.1-0.1-0.1-0.3-0.2-0.4l-1.8-1.2c-5.5-3.8-7.9-10.8-5.7-17.2l0.7-2.1c0-0.2-0.1-0.3-0.1-0.5l-1.6-1.5c-4.8-4.7-5.9-12-2.6-17.9
			l1.1-1.9c0-0.2,0-0.3,0-0.5l-1.3-1.8c-3.9-5.4-3.7-12.8,0.5-18.1l1.4-1.7c0-0.2,0-0.3,0.1-0.5l-1-2c-2.9-6-1.4-13.3,3.7-17.7
			l1.7-1.4c0-0.2,0.1-0.3,0.1-0.5l-0.6-2.1c-1.8-6.5,0.9-13.3,6.7-16.8l1.9-1.2c0.1-0.1,0.1-0.3,0.2-0.4l-0.2-2.2
			c-0.7-6.7,3.2-13,9.5-15.4l2.2-0.8c0.1-0.1,0.1-0.2,0.2-0.3l0.2-2.3c0.5-6.7,5.4-12.2,12-13.5L94,87c0.1-0.1,0.2-0.1,0.2-0.2
			l0.6-2.3c1.7-6.5,7.5-11.1,14.2-11.2l2.3,0c0.1-0.1,0.2-0.1,0.3-0.2l0.9-2.1c2.8-6.1,9.3-9.6,15.9-8.6l2.2,0.4
			c0.1-0.1,0.3-0.1,0.4-0.2l1.2-1.8c3.8-5.5,10.8-7.9,17.2-5.7l2.1,0.7c0.2,0,0.3-0.1,0.5-0.1l1.5-1.6c4.7-4.8,12-5.9,17.9-2.6
			l1.9,1.1c0.2,0,0.3,0,0.5,0l1.8-1.3c5.5-3.9,12.9-3.7,18.1,0.5l1.7,1.4c0.2,0,0.3,0,0.5,0.1l2-1c6-2.9,13.3-1.4,17.7,3.7l1.4,1.7
			c0.2,0,0.3,0.1,0.5,0.2l2.1-0.6c6.5-1.8,13.3,0.9,16.8,6.7l1.2,1.9c0.1,0.1,0.3,0.1,0.4,0.2l2.2-0.2c6.7-0.7,13,3.2,15.4,9.5
			l0.8,2.1c0.1,0.1,0.2,0.1,0.3,0.2l2.3,0.2c6.7,0.5,12.2,5.4,13.5,12L273,92c0.1,0.1,0.1,0.2,0.2,0.2l2.3,0.6
			c6.5,1.7,11.1,7.5,11.2,14.2l0,2.3c0.1,0.1,0.1,0.2,0.2,0.3l2.1,0.9c6.1,2.8,9.6,9.3,8.6,15.9l-0.3,2.2c0.1,0.1,0.1,0.3,0.2,0.4
			l1.8,1.2c5.5,3.8,7.9,10.8,5.7,17.2l-0.7,2.1c0,0.2,0.1,0.3,0.1,0.5l1.6,1.5c4.8,4.7,5.9,12,2.6,17.9l-1.1,1.9c0,0.2,0,0.3,0,0.5
			l1.3,1.8c3.9,5.4,3.7,12.8-0.5,18.1l-1.4,1.7c0,0.2,0,0.3-0.1,0.5l1,2c2.9,6,1.4,13.3-3.7,17.7l-1.7,1.4c-0.1,0.2-0.1,0.3-0.2,0.5
			l0.6,2.1c1.8,6.5-0.9,13.3-6.7,16.8L294.3,235.6z"/>
		<g id="XMLID_839_">
			<path id="XMLID_840_" class="st0" d="M337.9,218.8c-1.3-3-0.4-7.2,2-9.4l18.2-17.1c2.3-2.2,2.5-6,0.3-8.4l-16.7-18.6
				c-2.2-2.4-2.7-6.7-1.2-9.6l11.7-22.1c1.5-2.9,0.4-6.5-2.4-8L328,113.3c-2.8-1.6-4.7-5.5-4.2-8.6l3.8-24.7
				c0.5-3.2-1.7-6.3-4.9-6.8l-24.6-4.4c-3.2-0.6-6.2-3.6-6.8-6.8l-4.4-24.6c-0.6-3.2-3.6-5.4-6.8-4.9l-24.7,3.8
				c-3.2,0.5-7.1-1.4-8.6-4.2l-12.2-21.9c-1.6-2.8-5.2-3.9-8-2.4l-22.1,11.7c-2.9,1.5-7.2,1-9.6-1.2L176.2,1.5
				c-2.4-2.2-6.2-2-8.4,0.3l-17.2,18.2c-2.2,2.3-6.5,3.2-9.4,2l-23-9.8c-3-1.3-6.5,0.1-7.8,3l-10.3,22.8c-1.3,2.9-5,5.2-8.3,4.9
				l-25-1.8c-3.2-0.2-6.1,2.2-6.4,5.4l-2.3,24.9c-0.3,3.2-3.1,6.5-6.2,7.3l-24.2,6.4c-3.1,0.8-5.1,4.1-4.3,7.2l5.9,24.3
				c0.8,3.1-0.8,7.2-3.5,9L5,139.7c-2.7,1.8-3.5,5.5-1.7,8.2l13.5,21.1c1.7,2.7,1.6,7-0.4,9.6L1.2,198.6c-2,2.6-1.5,6.3,1,8.3
				l19.6,15.6c2.5,2,3.8,6.2,2.7,9.2l-7.9,23.7c-1,3.1,0.6,6.5,3.7,7.5l23.6,8.4c3,1.1,5.6,4.6,5.6,7.8l0.3,25
				c0,3.2,2.7,5.9,5.9,5.9l25,0.3c3.2,0,6.8,2.6,7.8,5.6l8.4,23.6c1.1,3,4.5,4.7,7.5,3.7l23.7-7.9c3.1-1,7.2,0.2,9.2,2.8l15.6,19.6
				c2,2.5,5.8,3,8.3,1l19.9-15.1c2.6-2,6.9-2.1,9.6-0.4l21.1,13.4c2.7,1.7,6.4,1,8.2-1.7l13.9-20.8c1.8-2.7,5.8-4.3,9-3.5l24.3,5.9
				c3.1,0.8,6.4-1.2,7.2-4.3l6.4-24.2c0.8-3.1,4.1-5.9,7.3-6.2l24.9-2.3c3.2-0.3,5.7-3.2,5.4-6.4l-1.8-25c-0.2-3.2,2-6.9,4.9-8.3
				l22.8-10.3c2.9-1.3,4.3-4.8,3.1-7.8L337.9,218.8z M307,255.5c2.4,1.7,4.3,3.2,4.1,3.3c-0.2,0.1-0.1,2.8,0.1,6l1.6,22.9
				c0.2,3.2-1.5,4.1-3.9,1.9l-15.7-14.4c-2.4-2.2-6.1-2-8.3,0.3l-8.5,8.4c-2.4,2.2-2.8,6.1-1,8.7c1.8,2.6,3.2,4.7,3.1,4.8
				c-0.2,0-1,2.6-1.8,5.7l-5.9,22.3c-0.8,3.1-2.8,3.3-4.3,0.5L256,306.4c-1.5-2.8-5.1-3.9-8-2.4l-10.7,5.2c-3,1.3-4.6,4.9-3.7,8
				l0.1,0.4c0.9,3.1,1.5,5.6,1.4,5.6c-0.1,0-1.7,2.1-3.5,4.8l-12.9,19.3c-1.8,2.7-3.7,2.3-4.2-0.9l-3.8-22.5
				c-0.5-3.2-3.6-5.4-6.8-4.8l-11.6,1.4c-3.2,0.3-6,3.1-6.1,6.3l0,1c-0.2,3.2-0.3,5.8-0.4,5.8c-0.1,0-2.2,1.5-4.8,3.5l-18.6,14.1
				c-2.6,2-4.2,0.9-3.7-2.2l3.8-23.2c0.5-3.2-1.6-6.2-4.8-6.7l-11.4-2.4c-3.1-0.8-6.7,1-7.9,4l-0.5,1.3c-1.2,3-2.2,5.4-2.2,5.4
				c0,0-2.6,0.8-5.6,1.8l-22.3,7.4c-3.1,1-4.3-0.5-2.8-3.3l11.4-21.1c1.5-2.8,0.5-6.4-2.4-7.9l-9.9-5.9c-2.7-1.8-6.6-1.2-8.7,1.3
				l-1.1,1.2c-2.1,2.4-3.8,4.4-3.8,4.4c0,0-2.7-0.1-5.9-0.1l-23.5-0.3c-3.2,0-5.9-0.1-5.9-0.1c0,0,1.9-1.8,4.3-4l17.7-16.3
				c2.4-2.2,2.5-5.9,0.3-8.3l-7.5-8.7c-2-2.5-5.9-3.2-8.7-1.6l-1.4,0.8c-2.8,1.6-5.1,3-5.1,3c0,0-2.5-0.9-5.5-2l-22.1-7.9
				c-3-1.1-5.5-2-5.5-2.1c0,0,2.4-1.1,5.4-2.4l21.8-9.6c3-1.3,4.3-4.8,2.9-7.7l-4.4-10.7c-1.1-3-4.6-5-7.7-4.3l-1.3,0.3
				c-3.2,0.6-7.8-0.5-10.3-2.5L9.8,206c-2.5-2-4.6-3.7-4.5-3.7c0,0,2.7-0.3,5.9-0.6l23.4-2c3.2-0.3,5.6-3.1,5.2-6.3
				c0,0-0.8-7.5-0.8-14.4c0-1,0-1,0-1c0-1.1-2.6-2.4-5.8-2.8l-0.9-0.1c-3.2-0.4-7.2-3-9-5.7l-12.5-19.6c-1.7-2.7-0.6-4.3,2.5-3.5
				l22.2,5.6c3.1,0.8,6.3-1.1,7-4.3l3.1-11.4c1-3.1-0.6-6.8-3.5-8.2l-0.4-0.2c-2.9-1.4-5.2-2.6-5.1-2.7c0.1-0.1-0.5-2.7-1.2-5.8
				L30,96.7c-0.8-3.1,0.8-4.3,3.5-2.5l18.7,12.2c2.7,1.8,6.3,1,8-1.8l6.7-9.9c1.9-2.6,1.7-6.6-0.5-8.8c-2.2-2.2-4-4.1-3.9-4.1
				c0.1,0,0.4-2.7,0.7-5.9l2.2-23.2c0.3-3.2,2.2-3.8,4.2-1.2l13.3,17c2,2.5,5.6,3,8.1,0.9l9.6-7.3c2.7-1.8,3.8-5.5,2.5-8.2
				c-1.3-2.7-2.2-4.8-2.2-4.8c0.1,0,1.3-2.4,2.6-5.3l9.6-21.2c1.3-2.9,3.3-2.9,4.3,0.2l6.8,19.6c1.1,3.1,4.4,4.6,7.4,3.5l11.6-3.8
				c3.1-0.9,5.4-3.8,5.1-6.5c-0.3-2.7-0.5-4.9-0.4-4.9c0.1,0,2-1.9,4.2-4.2L168,9.7c2.2-2.3,4-1.6,4,1.6l0,20.1
				c0,3.2,2.6,5.7,5.9,5.6c0,0,0.1,0,3.1,0c5.1,0,9.2,0.3,9.2,0.3c3.2,0.3,6.3-1.6,6.8-4.1c0.5-2.5,1-4.5,1.1-4.5
				c0.1,0.1,2.5-1.1,5.3-2.6L224,15.3c2.9-1.5,4.3-0.2,3.3,2.8l-6.3,18.5c-1,3.1,0.6,6.4,3.7,7.4l11.6,4.3c3,1.3,6.5,0.5,7.8-1.6
				c1.3-2.2,2.4-3.8,2.5-3.7c0.1,0.1,2.7-0.2,5.9-0.7l22.7-3.5c3.2-0.5,4.2,1.2,2.2,3.7l-11.8,15.2c-2,2.5-1.5,6.2,1.1,8.2l9.5,7.9
				c2.4,2.2,5.9,2.6,7.9,1c1.9-1.6,3.5-2.8,3.6-2.6c0,0.2,2.7,0.8,5.8,1.3l22.5,4c3.2,0.6,3.6,2.5,0.9,4.2l-16,10.5
				c-2.7,1.8-3.4,5.4-1.7,8.1l6.4,10.6c1.6,2.8,4.8,4.4,7.1,3.5c2.4-0.9,4.3-1.5,4.3-1.3c0,0.2,2.3,1.6,5.1,3.2l19.9,11.1
				c2.8,1.6,2.6,3.5-0.6,4.3l-18.7,4.8c-3.1,0.8-5,4-4.2,7.1l2.6,12.1c0.5,3.2,3.1,5.7,5.8,5.6c2.6-0.1,4.7,0,4.6,0.1
				c-0.1,0.2,1.6,2.3,3.8,4.7l15.2,16.9c2.2,2.4,1.3,4.1-1.9,3.9l-19.7-1.6c-3.2-0.3-6.1,2.2-6.3,5.4l-1.5,12.2
				c-0.5,3.2,1.2,6.5,3.9,7.3c2.7,0.8,4.7,1.6,4.6,1.7c-0.1,0.1,0.8,2.7,2,5.6l8.9,21c1.3,3-0.1,4.3-3.1,3l-18.7-8.2
				c-3-1.3-6.4,0.1-7.8,3l-5.4,10.9C303.9,250,304.6,253.7,307,255.5z"/>
		</g>
	</g>
	<g id="XMLID_770_">
		<g id="XMLID_791_">
			<g id="XMLID_816_">
				<path id="XMLID_836_" class="st0" d="M267.6,138.7l3.5,7.4c0.2,0.3,0,0.7-0.3,0.9l-4.9,2.3c-0.3,0.2-0.7,0-0.9-0.3l-3.5-7.4
					l-5.4,2.5l4.6,9.7c0.1,0.3,0,0.7-0.3,0.9l-5,2.3c-0.3,0.2-0.7,0-0.9-0.3l-7.2-15.2c-0.2-0.3,0-0.7,0.3-0.9l27.9-13.2
					c0.3-0.2,0.7,0,0.9,0.3l7.2,15.2c0.1,0.3,0,0.7-0.3,0.9l-5,2.3c-0.3,0.2-0.7,0-0.9-0.3l-4.6-9.7L267.6,138.7z"/>
				<path id="XMLID_834_" class="st0" d="M289.3,172.5l-31.6-1.7c-0.4-0.1-0.8-0.4-0.9-0.7l-1.2-6c-0.1-0.4,0.2-0.7,0.5-1l28.4-14.1
					c0.3-0.2,0.8,0,0.9,0.4l1.2,5.7c0.1,0.4-0.1,0.6-0.5,0.8l-16.5,7.7l-2.6,0.9l2.8-0.1l18.4,1.2c0.4,0,0.7,0.2,0.8,0.5l1.2,5.7
					C290.1,172.1,289.7,172.6,289.3,172.5z"/>
				<path id="XMLID_832_" class="st0" d="M276.5,185.2l-0.4,8.2c0,0.4-0.3,0.6-0.7,0.6l-5.5-0.2c-0.4,0-0.6-0.3-0.6-0.7l0.4-8.2
					l-5.9-0.3l-0.5,10.7c0,0.3-0.3,0.6-0.7,0.6l-5.5-0.2c-0.4,0-0.6-0.4-0.6-0.7l0.8-16.8c0-0.4,0.3-0.6,0.7-0.6l30.8,1.4
					c0.4,0,0.6,0.3,0.6,0.7l-0.8,16.8c0,0.3-0.3,0.6-0.7,0.6l-5.5-0.2c-0.4,0-0.6-0.4-0.6-0.7l0.5-10.7L276.5,185.2z"/>
				<path id="XMLID_829_" class="st0" d="M262.9,224.8c0,0-0.6-0.1-1-0.8l-1.5-3.4l0-0.2l-12.5,0.4c-0.3,0-0.5-0.5-0.4-0.8l2.2-5.8
					c0.1-0.4,0.5-0.5,0.9-0.6l12.1-0.3l0.7-2l-10.5-3.9c-0.3-0.1-0.5-0.5-0.4-0.8l1.9-5.2c0.1-0.3,0.5-0.5,0.8-0.4l28.9,10.8
					c0.3,0.1,0.5,0.5,0.4,0.8l-5.2,13.8c0,0-0.1,0.6-0.9,1l-3.4,1.5c-0.7,0.3-1.4,0-1.4,0L262.9,224.8z M269.8,213.6l-1.7,4.6
					c0,0-0.1,0.2,0,0.4l0.4,1c0.1,0.2,0.3,0.3,0.3,0.3l4,1.5c0,0,0.2,0.1,0.4,0l0.9-0.4c0.2-0.1,0.3-0.3,0.3-0.3l1.7-4.5
					L269.8,213.6z"/>
				<path id="XMLID_827_" class="st0" d="M260.6,254.6c-0.1-0.2-0.2-0.3-0.2-0.4l-8.5-16.1l-11.6-8c-0.3-0.2-0.4-0.6-0.2-0.9
					l3.1-4.5c0.2-0.3,0.6-0.4,0.9-0.2l11.6,8l18,2.3c0.1,0,0.3,0,0.5,0.1c0.3,0.1,0.4,0.6,0.2,0.9l-3.4,4.9c-0.2,0.3-0.7,0.4-1,0.3
					l-10-1.4l4.8,8.8c0.2,0.3,0.2,0.8,0,1.1l-3.4,4.9C261.3,254.7,260.8,254.9,260.6,254.6z"/>
				<path id="XMLID_825_" class="st0" d="M241.8,270.6l-3.6-4.1c-0.2-0.3-0.2-0.7,0.1-0.9l4.4-3.9l-16.3-18.6
					c-0.2-0.3-0.1-0.6,0.1-0.8l4.1-3.6c0.2-0.2,0.6-0.2,0.8,0l16.3,18.6l4.4-3.9c0.3-0.2,0.7-0.2,0.9,0l3.6,4.1
					c0.2,0.3,0.2,0.7-0.1,1l-13.9,12.2C242.5,270.9,242.1,270.9,241.8,270.6z"/>
				<path id="XMLID_823_" class="st0" d="M215.4,284.1L202,256.3c-0.2-0.3,0-0.7,0.3-0.9l5-2.4c0.3-0.1,0.7,0,0.9,0.3l5.2,10.9
					l6.2-3l-5.2-10.9c-0.2-0.3,0-0.7,0.3-0.9l5-2.4c0.3-0.2,0.7,0,0.9,0.3l13.4,27.8c0.2,0.3,0,0.7-0.3,0.9l-5,2.4
					c-0.3,0.1-0.7,0-0.9-0.3l-5.2-10.9l-6.2,3l5.2,10.9c0.2,0.3,0,0.7-0.3,0.9l-5,2.4C216,284.6,215.6,284.5,215.4,284.1z"/>
				<path id="XMLID_821_" class="st0" d="M195.6,288.1l-6.1-30.1c-0.1-0.4,0.1-0.7,0.5-0.8l5.4-1.1c0.4-0.1,0.7,0.1,0.8,0.5
					l6.1,30.1c0.1,0.4-0.1,0.7-0.5,0.8l-5.4,1.1C196,288.7,195.7,288.5,195.6,288.1z"/>
				<path id="XMLID_819_" class="st0" d="M161.9,288.6l1.3-30.9c0-0.3,0.3-0.6,0.7-0.6l7.3,0.3c0.4,0,0.7,0.4,0.8,0.7l5,15.6
					l0.7-15.4c0-0.3,0.4-0.6,0.7-0.6l5.5,0.2c0.4,0,0.6,0.4,0.6,0.7l-1.3,30.9c0,0.4-0.3,0.6-0.7,0.6l-6.9-0.3
					c-0.3,0-0.5-0.3-0.6-0.7l0,0l-5.3-18l-0.1-0.5l-0.8,18.3c0,0.4-0.3,0.6-0.7,0.6l-5.5-0.2C162.1,289.3,161.9,289,161.9,288.6z"/>
				<path id="XMLID_817_" class="st0" d="M145.2,262.5c0.3,0.1,0.5,0.5,0.4,0.8l-2,5.1c-0.1,0.3-0.5,0.5-0.8,0.4l-8.5-3.3
					c-0.3-0.1-0.5-0.5-0.4-0.9l5-13.1l0,0c0.1-0.2,0.4-0.5,0.7-0.6l3.3-1.5c0.7-0.3,1.3,0,1.3,0l11.2,4.3c0,0,0.6,0.2,0.9,0.9
					l1.5,3.3c0.3,0.7,0,1.3,0,1.3l0,0.1l-8.5,22l0,0c0,0-0.1,0.6-0.9,1l-3.3,1.5c-0.7,0.3-1.3,0-1.3,0l-11.2-4.3
					c0,0-0.6-0.2-0.9-0.9l-1.5-3.3c-0.3-0.7,0-1.3,0-1.3l0,0l0-0.1l1.8-4.6c0.1-0.3,0.5-0.5,0.9-0.4l5.1,1.9
					c0.3,0.1,0.5,0.5,0.4,0.8l-0.4,1.1c0,0-0.1,0.2,0,0.4l0.5,1c0,0.2,0.2,0.2,0.3,0.2l4.2,1.6c0.1,0,0.2,0.1,0.4,0l1-0.5
					c0.2-0.1,0.3-0.2,0.3-0.2l5.9-15.3c0-0.1,0-0.2-0.1-0.4l-0.3-0.8l-5-1.9l-0.8,0.4c-0.1,0.1-0.2,0.2-0.2,0.2l-1.5,3.8
					L145.2,262.5z"/>
			</g>
			<g id="XMLID_792_">
				<path id="XMLID_814_" class="st0" d="M88.2,238.6l25-17.9c0.3-0.2,0.7-0.1,0.9,0.2l3.2,4.5c0.2,0.3,0.2,0.7-0.1,0.9l-25,17.9
					c-0.3,0.2-0.7,0.1-0.9-0.2l-3.2-4.5C87.8,239.2,87.9,238.8,88.2,238.6z"/>
				<path id="XMLID_812_" class="st0" d="M74,207.9l28.7-11.5c0.3-0.1,0.7,0,0.8,0.4l2.7,6.8c0.1,0.3,0,0.8-0.3,1l-12.2,10.9
					l14.3-5.7c0.3-0.1,0.7,0.1,0.8,0.4l2,5.1c0.1,0.3-0.1,0.7-0.4,0.8l-28.7,11.5c-0.3,0.1-0.7,0-0.8-0.4l-2.5-6.4
					c-0.1-0.3,0-0.6,0.4-0.8l0,0L93,207.7l0.4-0.3l-17,6.8c-0.3,0.1-0.7-0.1-0.8-0.4l-2-5.1C73.5,208.4,73.6,208.1,74,207.9z"/>
				<path id="XMLID_810_" class="st0" d="M70.6,180l5.4-0.7c0.4,0,0.7,0.2,0.7,0.6l0.7,5.8l24.6-3c0.3,0,0.6,0.3,0.6,0.6l0.6,5.4
					c0,0.3-0.2,0.6-0.5,0.7l-24.6,3l0.7,5.8c0,0.4-0.2,0.7-0.6,0.8l-5.4,0.7c-0.4,0-0.7-0.2-0.8-0.6L70,180.8
					C69.9,180.4,70.2,180.1,70.6,180z"/>
				<path id="XMLID_808_" class="st0" d="M84.1,166.7l1-8.1c0-0.4,0.4-0.6,0.7-0.6l5.4,0.7c0.4,0,0.6,0.4,0.6,0.7l-1,8.1l5.9,0.8
					l1.4-10.6c0-0.3,0.4-0.6,0.7-0.6l5.4,0.7c0.4,0,0.6,0.4,0.6,0.7l-2.2,16.7c0,0.4-0.4,0.6-0.7,0.6l-30.6-3.9
					c-0.4,0-0.6-0.4-0.6-0.7l2.2-16.7c0-0.3,0.4-0.6,0.7-0.6l5.4,0.7c0.4,0,0.6,0.4,0.6,0.7L78.2,166L84.1,166.7z"/>
				<path id="XMLID_805_" class="st0" d="M100.2,129.4c0,0,0.6,0.2,0.9,0.9l1.3,3.5l0,0.2l12.5,0.5c0.3,0,0.5,0.6,0.3,0.9l-2.6,5.7
					c-0.2,0.3-0.6,0.5-0.9,0.5l-12-0.5l-0.9,1.9l10.2,4.6c0.3,0.1,0.5,0.5,0.3,0.9l-2.3,5c-0.1,0.3-0.6,0.5-0.9,0.3L78.1,141
					c-0.3-0.2-0.5-0.6-0.3-0.9l6.1-13.4c0,0,0.2-0.6,0.9-0.9l3.5-1.3c0.7-0.3,1.4,0.1,1.4,0.1L100.2,129.4z M92.6,140.1l2-4.4
					c0,0,0.1-0.2,0-0.4l-0.4-1c-0.1-0.2-0.3-0.3-0.3-0.3l-3.9-1.8c0,0-0.1-0.1-0.4,0l-1,0.4c-0.2,0.1-0.3,0.3-0.3,0.3l-2,4.4
					L92.6,140.1z"/>
				<path id="XMLID_803_" class="st0" d="M108.9,113.8l5.5-6.1c0.2-0.3,0.6-0.3,0.9,0l4.1,3.7c0.3,0.2,0.3,0.6,0,0.9l-5.5,6.1l4.4,4
					l7.2-7.9c0.2-0.2,0.6-0.3,0.9,0l4.1,3.7c0.3,0.2,0.3,0.7,0,0.9l-11.3,12.5c-0.2,0.3-0.6,0.3-0.9,0l-22.9-20.7
					c-0.3-0.2-0.3-0.6,0-0.9l11.3-12.5c0.2-0.2,0.6-0.3,0.9-0.1l4.1,3.7c0.3,0.2,0.3,0.7,0,0.9l-7.2,7.9L108.9,113.8z"/>
				<path id="XMLID_801_" class="st0" d="M137.3,82.3L137.3,82.3l2.5,4.1c0.2,0.3,0.1,0.7-0.3,0.9l-4.7,2.8
					c-0.3,0.2-0.7,0.1-0.9-0.2l-1.2-2l-4.9,2.9c-0.1,0-0.2,0.1-0.2,0.3l-0.3,1c-0.1,0.3,0,0.4,0,0.4l1.9,3.2l0-0.1
					c0,0,0.1,0.2,0.3,0.2l0.9,0.2l7.4-4.4c0,0,0.5-0.4,1.3-0.2l3.5,0.9c0.8,0.2,1,0.8,1,0.8l5.6,9.4c0,0,0.4,0.5,0.2,1.3l-0.9,3.5
					c-0.2,0.8-0.8,1.1-0.8,1.1l-10.3,6.2c0,0-0.5,0.4-1.3,0.2l-3.5-0.9c-0.8-0.2-1-0.8-1-0.8s-0.1,0-0.1-0.1l-2.3-3.8
					c-0.2-0.3-0.1-0.7,0.3-0.9l4.7-2.8c0.3-0.2,0.7-0.1,0.9,0.2l1.1,1.8l5-3c0.1,0,0.1-0.1,0.1-0.2l0.3-1c0-0.2-0.1-0.4-0.1-0.4
					l-1.8-3c0,0-0.1-0.2-0.3-0.2l-1-0.2c-0.1,0-0.2,0-0.3,0l-7.1,4.3c0,0-0.5,0.4-1.3,0.2l-3.5-0.9c-0.8-0.2-1-0.8-1-0.8l0,0
					l-5.6-9.4l0,0c0,0-0.4-0.5-0.2-1.3l0.9-3.5c0.2-0.8,0.8-1.1,0.8-1.1l10.3-6.2c0,0,0.5-0.4,1.3-0.2l3.5,0.9
					C137,81.7,137.3,82.3,137.3,82.3L137.3,82.3z"/>
				<path id="XMLID_799_" class="st0" d="M163.2,71.2l1.4,5.2c0.1,0.4-0.1,0.7-0.5,0.8l-5.7,1.6l6.6,23.9c0,0.3-0.2,0.6-0.5,0.7
					l-5.3,1.5c-0.3,0.1-0.6-0.1-0.8-0.4L152,80.6l-5.7,1.6c-0.4,0.1-0.7-0.1-0.8-0.4l-1.4-5.2c-0.1-0.4,0.1-0.8,0.5-0.9l17.8-5
					C162.7,70.6,163.1,70.9,163.2,71.2z"/>
				<path id="XMLID_797_" class="st0" d="M178.2,70.5l2.2,30.7c0,0.4-0.2,0.7-0.6,0.7l-5.5,0.4c-0.4,0-0.7-0.2-0.7-0.6L171.4,71
					c0-0.4,0.2-0.7,0.6-0.7l5.5-0.4C177.9,69.9,178.2,70.1,178.2,70.5z"/>
				<path id="XMLID_795_" class="st0" d="M211.6,74.3l-5.3,30.4c-0.1,0.3-0.4,0.6-0.7,0.5l-7.2-1.2c-0.4-0.1-0.6-0.4-0.7-0.8
					l-2.9-16.1l-2.6,15.2c-0.1,0.3-0.4,0.6-0.7,0.5l-5.4-0.9c-0.4-0.1-0.6-0.4-0.5-0.7l5.3-30.4c0.1-0.4,0.4-0.6,0.7-0.5l6.8,1.2
					c0.3,0.1,0.5,0.3,0.5,0.7l0,0l3,18.5l0,0.5l3.1-18c0.1-0.4,0.4-0.6,0.7-0.5l5.4,0.9C211.4,73.6,211.7,73.9,211.6,74.3z"/>
				<path id="XMLID_793_" class="st0" d="M224.2,102c-0.3-0.2-0.4-0.6-0.3-0.9l2.6-4.8c0.2-0.3,0.5-0.4,0.9-0.3l8.1,4.3
					c0.3,0.2,0.5,0.6,0.3,0.9l-6.5,12.4l0,0c-0.1,0.2-0.4,0.4-0.8,0.5l-3.5,1.1c-0.7,0.2-1.3-0.1-1.3-0.1l-10.6-5.6
					c0,0-0.6-0.3-0.8-1l-1.1-3.5c-0.2-0.7,0.2-1.3,0.2-1.3l0-0.1l11-20.9l0,0c0,0,0.2-0.6,1-0.8l3.5-1.1c0.7-0.2,1.3,0.1,1.3,0.1
					l10.6,5.6c0,0,0.6,0.3,0.8,1l1.1,3.5c0.2,0.7-0.1,1.3-0.1,1.3l0,0l0,0.1l-2.3,4.3c-0.1,0.3-0.6,0.4-0.9,0.2l-4.8-2.5
					c-0.3-0.2-0.4-0.6-0.3-0.9l0.6-1.1c0,0,0.1-0.2,0-0.3l-0.3-1.1c0-0.2-0.1-0.2-0.2-0.3l-4-2.1c-0.1,0-0.2-0.1-0.4,0l-1,0.3
					c-0.2,0-0.3,0.2-0.3,0.2l-7.7,14.5c0,0.1,0,0.2,0,0.4l0.2,0.8l4.8,2.5l0.9-0.3c0.1-0.1,0.2-0.1,0.3-0.2l1.9-3.6L224.2,102z"/>
			</g>
		</g>
		<g id="XMLID_781_">
			<path id="XMLID_787_" class="st0" d="M263.5,111l-25.4,4.5l1.5,5.3l-1.5,5.8l25.4-4.5l-1.5-5.3L263.5,111z M248,117.2l-2.6,0.5
				l0,4.4l2.6-0.5v1.3l-6.5,1.1v-1.3l2.6-0.5v-4.4l-2.6,0.5l0-1.3l6.5-1.1V117.2z M259,120.4c-0.9,0.7-2.2,1.1-3.2,1.3
				c-0.3,0.1-0.6,0.1-0.8,0.1c-1.6,0.2-3.1,0.1-4.1-0.3c0,0-0.1,0-0.1,0v0.9l-1.3,0.2V120l0.1,0l1.3-0.2c0,0.1,0.1,0.3,0.6,0.5
				c1.8,0.7,5.5,0.2,6.7-0.8c0.3-0.3,0.3-0.4,0.3-0.6c-0.1-0.7-2.2-0.3-3.8,0c-2,0.4-3.9,0.7-4.8-0.1c-0.3-0.3-0.5-0.7-0.5-1.2
				c0-0.8,0.5-1.5,1.3-2c0.6-0.4,1.5-0.7,2.5-0.9c1.3-0.2,2.8-0.2,4,0c0.4,0.1,0.8,0.2,1.1,0.3v-0.9l1.3-0.2v2.6l-1.3,0.2l-0.1,0
				c0-0.1-0.4-0.5-1.4-0.7c-1-0.2-2.3-0.2-3.5,0c-0.8,0.1-1.5,0.4-1.9,0.7c-0.6,0.4-0.6,0.6-0.6,0.7c0,0.2,0.1,0.3,0.1,0.3
				c0.1,0.1,0.5,0.3,1.4,0.2c0.7-0.1,1.6-0.2,2.5-0.4c1.1-0.2,2.2-0.4,3.1-0.4c0.5,0,1,0.1,1.3,0.3c0.4,0.2,0.7,0.6,0.7,1.1
				C260,119.2,259.7,119.9,259,120.4z"/>
			<g id="XMLID_782_">
				<g id="XMLID_785_">
					<polygon id="XMLID_108_" class="st0" points="263.5,109.9 238,114.4 238,112.9 263.5,108.5 					"/>
				</g>
				<g id="XMLID_783_">
					<polygon id="XMLID_107_" class="st0" points="263.5,124.7 238,129.2 238,127.7 263.5,123.3 					"/>
				</g>
			</g>
		</g>
		<g id="XMLID_771_">
			<path id="XMLID_777_" class="st0" d="M104.7,257.8l25.4-4.5l-1.5-5.3l1.5-5.8l-25.4,4.5l1.5,5.3L104.7,257.8z M120.1,251.6
				l2.6-0.5v-4.4l-2.6,0.5l0-1.3l6.5-1.1v1.3l-2.6,0.5v4.4l2.6-0.5v1.3l-6.5,1.1V251.6z M109.1,248.5c0.9-0.7,2.2-1.1,3.2-1.3
				c0.3-0.1,0.6-0.1,0.8-0.1c1.6-0.2,3.1-0.1,4.1,0.3c0,0,0.1,0,0.1,0v-0.9l1.3-0.2l0,2.6l-0.1,0l-1.3,0.2c0-0.1-0.1-0.3-0.6-0.5
				c-1.8-0.7-5.5-0.2-6.7,0.8c-0.3,0.3-0.3,0.4-0.3,0.6c0.1,0.7,2.2,0.3,3.8,0c2-0.4,3.9-0.7,4.8,0.1c0.3,0.3,0.5,0.7,0.5,1.2
				c0,0.8-0.5,1.5-1.3,2c-0.6,0.4-1.5,0.7-2.5,0.9c-1.3,0.2-2.8,0.2-4,0c-0.4-0.1-0.8-0.2-1.1-0.3v0.9l-1.3,0.2v-2.6l1.3-0.2l0.1,0
				c0,0.1,0.4,0.5,1.4,0.7c1,0.2,2.3,0.2,3.5,0c0.8-0.1,1.5-0.4,1.9-0.7c0.6-0.4,0.6-0.6,0.6-0.8c0-0.2-0.1-0.3-0.1-0.3
				c-0.1-0.1-0.5-0.3-1.4-0.2c-0.7,0.1-1.6,0.2-2.5,0.4c-1.1,0.2-2.2,0.4-3.1,0.4c-0.5,0-0.9-0.1-1.3-0.3c-0.4-0.2-0.7-0.6-0.7-1.1
				C108.1,249.7,108.5,249,109.1,248.5z"/>
			<g id="XMLID_772_">
				<g id="XMLID_775_">
					<polygon id="XMLID_103_" class="st0" points="104.7,258.9 130.1,254.4 130.1,255.9 104.7,260.4 					"/>
				</g>
				<g id="XMLID_773_">
					<polygon id="XMLID_102_" class="st0" points="104.7,244.1 130.1,239.6 130.1,241.1 104.7,245.6 					"/>
				</g>
			</g>
		</g>
	</g>
	<g id="XMLID_567_">
		<path id="XMLID_1196_" class="st0" d="M246,182.6c-0.5-0.7-0.4-1.8,0-2.5l1.1-1.5c0.5-0.7,0.4-1.7-0.1-2.4l-1.2-1.4
			c-0.5-0.6-0.6-1.7-0.2-2.4l0.9-1.6c0.4-0.7,0.2-1.8-0.4-2.3l-1.3-1.2c-0.6-0.6-0.8-1.6-0.5-2.4l0.7-1.7c0.3-0.8,0-1.8-0.6-2.3
			l-1.5-1.1c-0.7-0.5-1-1.5-0.8-2.3l0.5-1.7c0.2-0.8-0.2-1.8-0.9-2.2l-1.6-0.9c-0.7-0.4-1.2-1.4-1.1-2.2l0.3-1.8
			c0.1-0.8-0.4-1.7-1.1-2.1l-1.7-0.7c-0.8-0.3-1.3-1.3-1.3-2.1l0.1-1.8c0-0.8-0.6-1.7-1.4-1.9l-1.8-0.5c-0.8-0.2-1.5-1.1-1.5-1.9
			l-0.1-1.8c-0.1-0.8-0.8-1.6-1.6-1.7l-1.8-0.3c-0.8-0.1-1.6-0.9-1.8-1.7l-0.3-1.8c-0.2-0.8-1-1.5-1.8-1.6l-1.8-0.1
			c-0.8,0-1.7-0.7-1.9-1.5l-0.5-1.7c-0.2-0.8-1.1-1.4-1.9-1.3l-1.8,0.1c-0.8,0.1-1.8-0.5-2.1-1.3l-0.7-1.7c-0.3-0.8-1.3-1.2-2.1-1.1
			l-1.8,0.3c-0.8,0.1-1.8-0.3-2.2-1l-0.9-1.6c-0.4-0.7-1.4-1.1-2.2-0.9l-1.7,0.5c-0.8,0.2-1.8-0.1-2.3-0.8l-1.1-1.4
			c-0.5-0.7-1.5-0.9-2.3-0.6l-1.7,0.7c-0.8,0.3-1.8,0.1-2.4-0.5l-1.3-1.3c-0.6-0.6-1.6-0.7-2.3-0.3l-1.6,0.9
			c-0.7,0.4-1.8,0.3-2.5-0.2l-1.4-1.2c-0.6-0.5-1.7-0.5-2.4,0l-1.5,1.1c-0.7,0.5-1.8,0.5-2.5,0.1l-1.5-1c-0.7-0.4-1.7-0.3-2.3,0.2
			l-1.3,1.3c-0.6,0.6-1.7,0.7-2.4,0.4l-1.6-0.8c-0.7-0.4-1.8-0.1-2.3,0.5l-1.2,1.4c-0.5,0.6-1.6,0.9-2.4,0.7l-1.7-0.6
			c-0.8-0.3-1.8,0.1-2.2,0.8l-1,1.5c-0.4,0.7-1.5,1.1-2.3,0.9l-1.8-0.4c-0.8-0.2-1.8,0.3-2.1,1l-0.8,1.6c-0.4,0.7-1.3,1.3-2.2,1.2
			l-1.8-0.2c-0.8-0.1-1.7,0.5-2,1.3l-0.6,1.7c-0.3,0.8-1.2,1.4-2,1.4l-1.8,0c-0.8,0-1.7,0.7-1.8,1.5l-0.4,1.8
			c-0.2,0.8-1,1.5-1.8,1.7l-1.8,0.2c-0.8,0.1-1.6,0.9-1.7,1.7l-0.2,1.8c-0.1,0.8-0.8,1.7-1.6,1.9l-1.8,0.4c-0.8,0.2-1.5,1-1.4,1.9
			l0,1.8c0,0.8-0.6,1.7-1.4,2l-1.7,0.6c-0.8,0.3-1.3,1.2-1.2,2l0.2,1.8c0.1,0.8-0.4,1.8-1.1,2.2l-1.6,0.8c-0.7,0.4-1.2,1.3-1,2.1
			l0.4,1.8c0.2,0.8-0.2,1.8-0.9,2.3l-1.5,1c-0.7,0.5-1,1.5-0.7,2.2l0.6,1.7c0.3,0.8,0,1.8-0.6,2.4l-1.4,1.2
			c-0.6,0.5-0.8,1.6-0.5,2.3l0.8,1.6c0.4,0.7,0.2,1.8-0.3,2.4l-1.2,1.3c-0.6,0.6-0.6,1.7-0.2,2.3l1,1.5c0.5,0.7,0.4,1.8-0.1,2.5
			l-1.1,1.5c-0.5,0.7-0.4,1.7,0.1,2.4l1.2,1.4c0.5,0.6,0.6,1.7,0.2,2.4l-0.9,1.6c-0.4,0.7-0.2,1.8,0.4,2.3l1.3,1.2
			c0.6,0.6,0.8,1.6,0.5,2.4l-0.7,1.7c-0.3,0.8,0,1.8,0.6,2.3l1.5,1.1c0.7,0.5,1,1.5,0.8,2.3l-0.5,1.7c-0.2,0.8,0.2,1.8,0.9,2.2
			l1.6,0.9c0.7,0.4,1.2,1.4,1.1,2.2l-0.3,1.8c-0.1,0.8,0.4,1.7,1.1,2.1l1.7,0.7c0.8,0.3,1.3,1.3,1.3,2.1l-0.1,1.8
			c0,0.8,0.6,1.7,1.4,1.9l1.7,0.5c0.8,0.2,1.5,1.1,1.5,1.9l0.1,1.8c0.1,0.8,0.8,1.6,1.6,1.7l1.8,0.3c0.8,0.1,1.6,0.9,1.8,1.7
			l0.3,1.8c0.2,0.8,1,1.5,1.8,1.6l1.8,0.1c0.8,0,1.7,0.7,1.9,1.5l0.5,1.7c0.2,0.8,1.1,1.4,1.9,1.3l1.8-0.1c0.8-0.1,1.8,0.5,2.1,1.3
			l0.7,1.7c0.3,0.8,1.3,1.2,2.1,1.1l1.8-0.3c0.8-0.1,1.8,0.3,2.2,1l0.9,1.6c0.4,0.7,1.4,1.1,2.2,0.9l1.7-0.5
			c0.8-0.2,1.8,0.1,2.3,0.8l1.1,1.4c0.5,0.7,1.5,0.9,2.3,0.6l1.7-0.7c0.8-0.3,1.8-0.1,2.4,0.5l1.3,1.3c0.6,0.6,1.6,0.7,2.3,0.3
			l1.6-0.9c0.7-0.4,1.8-0.3,2.5,0.2l1.4,1.2c0.6,0.5,1.7,0.5,2.4,0l1.5-1.1c0.7-0.5,1.8-0.5,2.5-0.1l1.5,1c0.7,0.4,1.7,0.3,2.3-0.2
			l1.3-1.3c0.6-0.6,1.7-0.7,2.4-0.4l1.6,0.8c0.7,0.4,1.8,0.1,2.3-0.5l1.2-1.4c0.5-0.6,1.6-0.9,2.4-0.7l1.7,0.6
			c0.8,0.3,1.8-0.1,2.2-0.8l1-1.5c0.4-0.7,1.5-1.1,2.3-0.9l1.8,0.4c0.8,0.2,1.8-0.3,2.1-1l0.8-1.6c0.4-0.7,1.3-1.3,2.2-1.2l1.8,0.2
			c0.8,0.1,1.7-0.5,2-1.3l0.6-1.7c0.3-0.8,1.2-1.4,2-1.4l1.8,0c0.8,0,1.7-0.7,1.8-1.5l0.4-1.8c0.2-0.8,1-1.5,1.8-1.7l1.8-0.2
			c0.8-0.1,1.6-0.9,1.7-1.7l0.2-1.8c0.1-0.8,0.8-1.7,1.6-1.9l1.8-0.4c0.8-0.2,1.5-1,1.4-1.9l0-1.8c0-0.8,0.6-1.7,1.4-2l1.7-0.6
			c0.8-0.3,1.3-1.2,1.2-2l-0.2-1.8c-0.1-0.8,0.4-1.8,1.1-2.2l1.6-0.8c0.7-0.4,1.2-1.3,1-2.1l-0.4-1.8c-0.2-0.8,0.2-1.8,0.9-2.3
			l1.5-1c0.7-0.5,1-1.5,0.7-2.2l-0.6-1.7c-0.3-0.8,0-1.8,0.6-2.4l1.4-1.2c0.6-0.5,0.8-1.6,0.5-2.3l-0.8-1.6
			c-0.4-0.7-0.2-1.8,0.3-2.4l1.2-1.3c0.6-0.6,0.6-1.7,0.2-2.3L246,182.6z M241.7,175.9c0,0.5,0,0.5,0,0.5c-0.5,0.3-1,0.5-1,0.5
			c0,0,0,0,0,0c-0.5,0-0.9-0.4-1-0.9c0-0.5,0.4-1,0.9-1C241.2,175,241.6,175.4,241.7,175.9z M241.3,172c0.1,0.5,0.1,0.5,0.1,0.5
			c-0.5,0.3-0.9,0.6-1,0.6c0,0,0,0,0,0c-0.5,0-0.9-0.4-1-0.8c-0.1-0.5,0.3-1,0.8-1.1C240.7,171.1,241.2,171.4,241.3,172z
			 M240.6,168.1c0.1,0.5,0.1,0.5,0.1,0.5c-0.5,0.3-0.9,0.6-1,0.6c0,0,0,0-0.1,0c-0.5,0-0.9-0.3-1-0.8c-0.1-0.5,0.2-1,0.8-1.1
			C240,167.2,240.5,167.5,240.6,168.1z M239.7,164.2c0.1,0.5-0.2,1.1-0.7,1.2c-0.1,0-0.2,0-0.2,0c-0.4,0-0.8-0.3-0.9-0.7
			c-0.1-0.5,0.2-1.1,0.7-1.2C239.1,163.4,239.6,163.7,239.7,164.2z M238.6,160.4c0.2,0.5,0.2,0.5,0.2,0.5c-0.4,0.4-0.9,0.8-1,0.8
			c0,0,0,0-0.1,0c-0.4,0-0.8-0.3-0.9-0.7c-0.2-0.5,0.1-1.1,0.6-1.2C237.9,159.6,238.4,159.9,238.6,160.4z M237.2,156.7
			c0.2,0.5,0,1.1-0.5,1.3c-0.1,0-0.2,0.1-0.4,0.1c-0.4,0-0.7-0.2-0.9-0.6c-0.2-0.5,0-1.1,0.5-1.3C236.4,156,237,156.2,237.2,156.7z
			 M234.3,152.6c0.5-0.2,1.1,0,1.3,0.4c0.2,0.5,0,1.1-0.5,1.3c-0.1,0.1-0.3,0.1-0.4,0.1c-0.4,0-0.7-0.2-0.9-0.5
			C233.6,153.5,233.8,152.9,234.3,152.6z M232.4,149.2c0.5-0.3,1.1-0.1,1.3,0.4c0.3,0.5,0.3,0.5,0.3,0.5c-0.3,0.5-0.8,0.9-0.9,1
			c0,0,0,0-0.2,0c-0.3,0-0.7-0.2-0.8-0.5C231.8,150.1,232,149.5,232.4,149.2z M230.3,145.9c0.4-0.3,1-0.2,1.3,0.3
			c0.3,0.4,0.2,1.1-0.3,1.4c-0.2,0.1-0.3,0.2-0.5,0.2c-0.3,0-0.6-0.2-0.8-0.4C229.8,146.8,229.9,146.2,230.3,145.9z M228.1,142.8
			c0.4-0.3,1-0.2,1.4,0.2c0.3,0.4,0.3,0.4,0.3,0.4c-0.3,0.5-0.7,1-0.9,1.1c0,0,0,0-0.2,0c-0.3,0-0.6-0.1-0.8-0.4
			C227.5,143.7,227.6,143.1,228.1,142.8z M225.6,139.8c0.4-0.4,1-0.3,1.4,0.1c0.4,0.4,0.4,0.4,0.4,0.4c-0.3,0.5-0.6,1.1-0.9,1.2
			c0,0,0,0-0.2,0c-0.3,0-0.5-0.1-0.7-0.3C225.1,140.8,225.2,140.1,225.6,139.8z M222.9,137c0.4-0.4,1-0.4,1.4,0c0.4,0.4,0.4,1,0,1.4
			c-0.2,0.2-0.4,0.3-0.7,0.3c-0.3,0-0.3,0-0.3,0c-0.2-0.2-0.6-0.7-0.8-1.3C222.5,137.3,222.5,137.3,222.9,137z M220,134.3
			c0.4-0.4,1-0.4,1.4-0.1c0.4,0.4,0.4,1,0.1,1.4c-0.2,0.2-0.5,0.3-0.7,0.3c-0.2,0-0.5-0.1-0.7-0.3
			C219.7,135.3,219.7,134.7,220,134.3z M217,131.8c0.3-0.4,0.9-0.5,1.4-0.2c0.4,0.3,0.5,0.9,0.2,1.4c-0.2,0.2-0.5,0.4-0.8,0.4
			c-0.2,0-0.2,0-0.2,0c-0.2-0.1-0.6-0.6-0.9-1.2C216.7,132.2,216.7,132.2,217,131.8z M213.9,129.5c0.3-0.4,0.9-0.6,1.4-0.2
			c0.4,0.3,0.6,0.9,0.2,1.4c-0.2,0.3-0.5,0.4-0.8,0.4c-0.2,0-0.4-0.1-0.6-0.2C213.7,130.6,213.6,130,213.9,129.5z M210.6,127.5
			c0.3-0.5,0.9-0.6,1.3-0.3c0.5,0.3,0.6,0.9,0.3,1.3c-0.2,0.3-0.5,0.5-0.8,0.5c-0.2,0-0.2,0-0.2,0c-0.2-0.1-0.3-0.1-0.3-0.1
			s-0.3-0.4-0.6-0.9C210.3,127.9,210.3,127.9,210.6,127.5z M207.1,125.6c0.2-0.5,0.8-0.7,1.3-0.4c0.5,0.2,0.7,0.8,0.4,1.3
			c-0.2,0.3-0.5,0.5-0.9,0.5c-0.1,0-0.1,0-0.1,0c-0.2-0.1-0.6-0.5-1-0.9C206.9,126.1,206.9,126.1,207.1,125.6z M203.6,124
			c0.2-0.5,0.8-0.7,1.3-0.5c0.5,0.2,0.7,0.8,0.5,1.3c-0.2,0.4-0.5,0.6-0.9,0.6c-0.1,0-0.3,0-0.4-0.1
			C203.6,125.1,203.4,124.5,203.6,124z M199.9,122.6c0.2-0.5,0.7-0.8,1.2-0.6c0.5,0.2,0.8,0.7,0.6,1.2c-0.1,0.4-0.5,0.6-0.9,0.6
			c-0.1,0-0.1,0-0.1,0c-0.1,0-0.6-0.4-1-0.8C199.8,123.1,199.8,123.1,199.9,122.6z M196.2,121.4c0.2-0.5,0.2-0.5,0.2-0.5
			c0.6-0.1,1.1-0.1,1.1-0.1c0,0,0.4,0.3,0.8,0.7c0,0,0,0-0.2,0.5c-0.1,0.4-0.5,0.7-0.9,0.7c-0.1,0-0.2,0-0.3,0
			C196.4,122.5,196.1,122,196.2,121.4z M192.4,120.5c0.1-0.5,0.6-0.9,1.2-0.7c0.5,0.1,0.9,0.6,0.7,1.2c-0.1,0.4-0.5,0.8-0.9,0.8
			c-0.1,0-0.1,0-0.1,0c-0.1,0-0.5-0.3-1-0.7C192.3,121.1,192.3,121.1,192.4,120.5z M189.7,119.1c0.5,0.1,0.9,0.6,0.8,1.1
			c-0.1,0.5-0.5,0.8-1,0.8c0,0,0,0,0,0c-0.1,0-0.5-0.3-1-0.6c0,0,0,0,0.1-0.5C188.7,119.3,189.2,119,189.7,119.1z M185.8,118.6
			c0.5,0.1,0.9,0.5,0.9,1.1c0,0.5-0.5,0.9-1,0.9c0,0,0,0,0,0c0,0-0.5-0.2-1-0.5c0,0,0,0,0-0.5C184.8,118.9,185.2,118.5,185.8,118.6z
			 M181.8,118.3c0.5,0,1,0.5,0.9,1c0,0.5-0.4,0.9-1,0.9c0,0,0,0,0,0c0,0-0.4-0.2-1-0.5c0,0,0,0,0-0.5
			C180.8,118.7,181.3,118.3,181.8,118.3z M177.9,118.3c0.5,0,1,0.4,1,0.9c0,0.5,0,0.5,0,0.5c-0.5,0.3-1,0.5-1,0.5c0,0,0,0,0,0
			c-0.5,0-1-0.4-1-0.9C176.9,118.8,177.3,118.4,177.9,118.3z M173.9,118.6c0.5-0.1,1,0.3,1.1,0.9c0,0.5,0,0.5,0,0.5
			c-0.5,0.3-1,0.5-1,0.5c0,0,0,0,0,0c-0.5,0-0.9-0.4-1-0.9C173,119.1,173.4,118.6,173.9,118.6z M170,119.1c0.5-0.1,1,0.3,1.1,0.8
			c0.1,0.5,0.1,0.5,0.1,0.5c-0.5,0.3-0.9,0.6-1,0.6c0,0,0,0,0,0c-0.5,0-0.9-0.3-1-0.8C169.1,119.7,169.5,119.2,170,119.1z
			 M166.1,119.9c0.5-0.1,1,0.2,1.2,0.7c0.1,0.5,0.1,0.5,0.1,0.5c-0.5,0.4-0.9,0.7-1,0.7c0,0,0,0-0.1,0c-0.4,0-0.8-0.3-0.9-0.8
			C165.3,120.5,165.6,120,166.1,119.9z M162.3,120.9c0.5-0.1,1.1,0.1,1.2,0.7c0.2,0.5-0.1,1.1-0.7,1.2c-0.1,0-0.2,0-0.3,0
			c-0.4,0-0.8-0.3-0.9-0.7C161.5,121.6,161.8,121,162.3,120.9z M157.8,122.9c0.4-0.4,0.8-0.7,0.8-0.7c0,0,0.5,0,1.1,0.1
			c0,0,0,0,0.2,0.5c0.2,0.5-0.1,1.1-0.6,1.2c-0.1,0-0.2,0.1-0.3,0.1c-0.4,0-0.8-0.2-0.9-0.6C157.8,122.9,157.8,122.9,157.8,122.9z
			 M154.9,123.6c0.5-0.2,1.1,0,1.3,0.5c0.2,0.5,0,1.1-0.5,1.3c-0.1,0.1-0.3,0.1-0.4,0.1c-0.4,0-0.7-0.2-0.9-0.6
			C154.2,124.4,154.4,123.8,154.9,123.6z M151.3,125.3c0.5-0.2,1.1-0.1,1.3,0.4c0.2,0.5,0.1,1.1-0.4,1.3c-0.1,0.1-0.3,0.1-0.5,0.1
			c-0.4,0-0.7-0.2-0.9-0.5C150.6,126.2,150.8,125.6,151.3,125.3z M147.9,127.3c0.5-0.3,1.1-0.1,1.3,0.3c0.3,0.5,0.1,1.1-0.3,1.3
			c-0.2,0.1-0.3,0.1-0.5,0.1c-0.3,0-0.6-0.2-0.8-0.5C147.3,128.2,147.4,127.6,147.9,127.3z M144.6,129.5c0.4-0.3,1-0.2,1.4,0.2
			c0.3,0.4,0.2,1.1-0.2,1.4c-0.2,0.1-0.4,0.2-0.6,0.2c-0.3,0-0.6-0.1-0.8-0.4C144,130.4,144.1,129.8,144.6,129.5z M141.4,131.8
			c0.4-0.3,1-0.3,1.4,0.1c0.3,0.4,0.3,1-0.1,1.4c-0.2,0.2-0.4,0.2-0.6,0.2c-0.3,0-0.3,0-0.3,0c-0.3-0.2-0.6-0.8-0.7-1.4
			C141,132.2,141,132.2,141.4,131.8z M138.4,134.4c0.4-0.4,1-0.3,1.4,0.1c0.4,0.4,0.4,0.4,0.4,0.4c-0.2,0.5-0.6,1.1-0.8,1.2
			c0,0,0,0-0.2,0c-0.3,0-0.5-0.1-0.7-0.3C138,135.4,138,134.8,138.4,134.4z M135.5,137.2c0.4-0.4,1-0.4,1.4,0c0.4,0.4,0.4,1,0,1.4
			c-0.2,0.2-0.4,0.3-0.7,0.3c-0.2,0-0.5-0.1-0.7-0.3C135.2,138.2,135.2,137.6,135.5,137.2z M132.9,140.1c0.3-0.4,1-0.5,1.4-0.1
			c0.4,0.3,0.5,1,0.1,1.4c-0.2,0.2-0.5,0.3-0.7,0.3c-0.2,0-0.4-0.1-0.6-0.2C132.6,141.1,132.5,140.5,132.9,140.1z M130.4,143.2
			c0.3-0.4,0.9-0.5,1.4-0.2c0.4,0.3,0.4,0.3,0.4,0.3c-0.1,0.6-0.2,1-0.2,1c0,0-0.2,0.2-0.5,0.4c0,0,0,0-0.3,0
			c-0.2,0-0.4-0.1-0.6-0.2C130.2,144.3,130.1,143.6,130.4,143.2z M128.2,146.5c0.3-0.4,0.9-0.6,1.3-0.3c0.4,0.3,0.6,0.9,0.3,1.3
			c-0.2,0.3-0.5,0.4-0.8,0.4c-0.2,0-0.2,0-0.2,0c-0.2-0.1-0.6-0.6-0.9-1.1C127.9,146.9,127.9,146.9,128.2,146.5z M126.1,149.9
			c0.3-0.5,0.3-0.5,0.3-0.5c0.6,0.1,1.3,0.5,1.7,1c0,0,0,0-0.3,0.5c-0.2,0.3-0.5,0.5-0.8,0.5c-0.2,0-0.3-0.1-0.5-0.1
			C126,150.9,125.8,150.3,126.1,149.9z M124.3,153.4c0.2-0.5,0.8-0.7,1.3-0.5c0.5,0.2,0.7,0.8,0.5,1.3c-0.2,0.3-0.5,0.5-0.9,0.5
			c-0.1,0-0.1,0-0.1,0c-0.2-0.1-0.6-0.5-1-0.9C124,153.9,124,153.9,124.3,153.4z M122.7,157c0.2-0.5,0.8-0.7,1.3-0.5
			c0.5,0.2,0.7,0.8,0.5,1.3c-0.2,0.4-0.5,0.6-0.9,0.6c-0.1,0-0.2,0-0.4-0.1C122.7,158.1,122.5,157.5,122.7,157z M121.3,160.7
			c0.2-0.5,0.7-0.8,1.2-0.6c0.5,0.2,0.8,0.7,0.6,1.2c-0.1,0.4-0.5,0.7-0.9,0.7c-0.1,0-0.1,0-0.1,0c-0.1,0-0.6-0.4-1-0.8
			C121.1,161.2,121.1,161.2,121.3,160.7z M120.2,164.5c0.1-0.5,0.7-0.8,1.2-0.7c0.5,0.1,0.8,0.7,0.7,1.2c-0.1,0.4-0.5,0.7-0.9,0.7
			c-0.1,0-0.1,0-0.1,0c-0.1,0-0.5-0.3-1-0.7C120.1,165,120.1,165,120.2,164.5z M120.5,167.6c0.5,0.1,0.5,0.1,0.5,0.1
			c0.1,0.6,0.2,1,0.2,1s-0.2,0.4-0.5,0.8c0,0,0,0-0.5,0c-0.1,0-0.1,0-0.1,0c-0.1,0-0.5-0.3-1-0.6c0,0,0,0,0.1-0.5
			C119.4,167.9,119.9,167.5,120.5,167.6z M119.8,171.4c0.5,0.1,0.9,0.6,0.8,1.1c-0.1,0.5-0.5,0.8-1,0.8c0,0,0,0,0,0
			c0,0-0.5-0.3-1-0.6c0,0,0,0,0.1-0.5C118.8,171.8,119.3,171.4,119.8,171.4z M119.4,175.3c0.5,0,0.9,0.5,0.9,1c0,0.5-0.5,0.9-1,0.9
			c0,0,0,0,0,0c0,0-0.5-0.2-1-0.5c0,0,0,0,0-0.5C118.4,175.7,118.8,175.3,119.4,175.3z M118.2,180.2c0-0.5,0.4-1,1-1
			c0.5,0,1,0.4,1,1c0,0.5-0.4,1-1,1C118.7,181.2,118.2,180.7,118.2,180.2z M118.4,184.1c0-0.5,0.4-1,0.9-1c0.5,0,1,0.4,1,0.9
			c0,0.5,0,0.5,0,0.5c-0.5,0.3-1,0.5-1,0.5c0,0,0,0,0,0C118.8,185,118.4,184.7,118.4,184.1z M118.7,188.1c-0.1-0.5,0.3-1,0.8-1.1
			c0.5-0.1,1,0.3,1.1,0.8c0.1,0.5,0.1,0.5,0.1,0.5c-0.5,0.3-1,0.6-1,0.6c0,0,0,0,0,0C119.2,188.9,118.8,188.6,118.7,188.1z
			 M119.4,192c-0.1-0.5,0.2-1,0.8-1.1c0.5-0.1,1,0.2,1.1,0.8c0.1,0.5,0.1,0.5,0.1,0.5c-0.5,0.3-0.9,0.6-1,0.6c0,0,0,0-0.1,0
			C119.9,192.8,119.5,192.5,119.4,192z M121.2,196.6c-0.4,0-0.8-0.3-0.9-0.7c-0.1-0.5,0.2-1,0.7-1.2c0.5-0.1,1,0.2,1.2,0.7
			c0.1,0.5-0.2,1-0.7,1.2C121.4,196.6,121.3,196.6,121.2,196.6z M122.3,200.3c-0.4,0-0.8-0.3-0.9-0.7c-0.2-0.5,0.1-1.1,0.6-1.2
			c0.5-0.2,1.1,0.1,1.2,0.6c0.2,0.5-0.1,1.1-0.6,1.2C122.5,200.3,122.4,200.3,122.3,200.3z M123.7,204c-0.4,0-0.7-0.2-0.9-0.6
			c-0.2-0.5,0-1.1,0.5-1.3c0.5-0.2,1.1,0,1.3,0.5c0.2,0.5,0,1.1-0.5,1.3C123.9,203.9,123.8,204,123.7,204z M125.7,207.4
			c-0.1,0.1-0.3,0.1-0.4,0.1c-0.4,0-0.7-0.2-0.9-0.5c-0.2-0.5,0-1.1,0.4-1.3c0.5-0.2,1.1,0,1.3,0.5
			C126.4,206.6,126.1,207.2,125.7,207.4z M128.2,210c-0.3,0.5-0.8,0.9-1,1c0,0,0,0-0.2,0c-0.3,0-0.7-0.2-0.9-0.5
			c-0.3-0.5-0.1-1.1,0.4-1.3c0.5-0.3,1.1-0.1,1.3,0.4C128.2,210,128.2,210,128.2,210z M129.6,214.1c-0.2,0.1-0.3,0.2-0.5,0.2
			c-0.3,0-0.6-0.2-0.8-0.4c-0.3-0.4-0.2-1,0.3-1.3c0.4-0.3,1.1-0.2,1.3,0.3C130.2,213.2,130.1,213.8,129.6,214.1z M131.9,217.3
			c-0.2,0.1-0.4,0.2-0.6,0.2c-0.3,0-0.6-0.1-0.8-0.4c-0.3-0.4-0.2-1,0.2-1.4c0.4-0.3,1-0.2,1.4,0.2
			C132.4,216.3,132.3,217,131.9,217.3z M134.4,220.3c-0.2,0.2-0.4,0.2-0.6,0.2c-0.3,0-0.6-0.1-0.7-0.3c-0.3-0.4-0.3-1,0.1-1.4
			c0.4-0.3,1-0.3,1.4,0.1C134.8,219.3,134.8,219.9,134.4,220.3z M137.4,222.1c-0.2,0.5-0.6,1.1-0.8,1.3c0,0,0,0-0.2,0
			c-0.3,0-0.3,0-0.3,0c-0.2-0.2-0.4-0.3-0.4-0.3c0,0-0.2-0.4-0.4-1c0,0,0,0,0.4-0.4c0.4-0.4,1-0.4,1.4,0
			C137.4,222.1,137.4,222.1,137.4,222.1z M139.9,225.8c-0.2,0.2-0.5,0.3-0.7,0.3c-0.2,0-0.2,0-0.2,0c-0.2-0.1-0.6-0.7-0.8-1.2
			c0,0,0,0,0.4-0.4c0.4-0.4,1-0.4,1.4-0.1C140.2,224.8,140.2,225.4,139.9,225.8z M143.2,227.2c-0.1,0.6-0.5,1.2-0.7,1.4
			c0,0,0,0-0.3,0c-0.2,0-0.4-0.1-0.6-0.2c-0.4-0.3-0.5-1-0.2-1.4c0.3-0.4,0.9-0.5,1.4-0.2C143.2,227.2,143.2,227.2,143.2,227.2z
			 M146.1,230.6c-0.2,0.3-0.5,0.4-0.8,0.4c-0.2,0-0.4-0.1-0.6-0.2c-0.4-0.3-0.5-0.9-0.2-1.4c0.3-0.4,0.9-0.5,1.4-0.2
			C146.3,229.5,146.4,230.1,146.1,230.6z M149.4,232.6c-0.2,0.3-0.5,0.5-0.8,0.5c-0.2,0-0.3,0-0.5-0.1c-0.5-0.3-0.6-0.9-0.3-1.3
			c0.3-0.5,0.9-0.6,1.3-0.3C149.5,231.6,149.6,232.2,149.4,232.6z M152.8,234.5c-0.2,0.3-0.5,0.5-0.9,0.5c-0.1,0-0.3,0-0.4-0.1
			c-0.5-0.2-0.7-0.8-0.4-1.3c0.2-0.5,0.8-0.7,1.3-0.4C152.9,233.4,153,234,152.8,234.5z M156.3,236.1c-0.2,0.4-0.5,0.6-0.9,0.6
			c-0.1,0-0.3,0-0.4-0.1c-0.5-0.2-0.7-0.8-0.5-1.3c0.2-0.5,0.8-0.7,1.3-0.5C156.3,235,156.6,235.6,156.3,236.1z M160,237.5
			c-0.1,0.4-0.5,0.6-0.9,0.6c-0.1,0-0.1,0-0.1,0c-0.1,0-0.6-0.4-1-0.8c0,0,0,0,0.2-0.5c0.2-0.5,0.7-0.8,1.2-0.6
			C159.9,236.5,160.2,237,160,237.5z M163.7,238.7c-0.1,0.4-0.5,0.7-0.9,0.7c-0.1,0-0.1,0-0.1,0c-0.1,0-0.6-0.4-1-0.7
			c0,0,0,0,0.2-0.5c0.2-0.5,0.7-0.8,1.2-0.7C163.5,237.6,163.9,238.2,163.7,238.7z M167.5,239.6c-0.1,0.5-0.5,0.8-0.9,0.8
			c-0.1,0-0.1,0-0.1,0c-0.1,0-0.5-0.3-1-0.7c0,0,0,0,0.1-0.5c0.1-0.5,0.6-0.8,1.2-0.7C167.3,238.6,167.6,239.1,167.5,239.6z
			 M170.4,241.1C170.3,241.1,170.3,241.1,170.4,241.1c-0.1,0-0.6-0.3-1.1-0.6c0,0,0,0,0.1-0.5c0.1-0.5,0.6-0.9,1.1-0.8
			c0.5,0.1,0.9,0.6,0.8,1.1C171.2,240.8,170.8,241.1,170.4,241.1z M174.2,241.6C174.2,241.6,174.2,241.6,174.2,241.6
			c-0.1,0-0.5-0.2-1-0.5c0,0,0,0,0-0.5c0.1-0.5,0.5-0.9,1.1-0.9c0.5,0.1,0.9,0.5,0.9,1.1C175.1,241.2,174.7,241.6,174.2,241.6z
			 M179.1,241.4c-0.5,0.2-1,0.4-1,0.4s-0.4-0.2-1-0.5c0,0,0,0,0-0.5c0-0.5,0.5-1,1-1c0.5,0,1,0.5,0.9,1
			C179.1,241.4,179.1,241.4,179.1,241.4z M183,241.4c-0.5,0.3-1,0.5-1,0.5c0,0,0,0,0,0c-0.5,0-1-0.4-1-0.9c0-0.5,0.4-1,0.9-1
			c0.5,0,1,0.4,1,1C183,241.4,183,241.4,183,241.4z M186.9,241c-0.5,0.3-1,0.5-1,0.5c0,0,0,0,0,0c-0.5,0-0.9-0.4-1-0.9
			c0-0.5,0.3-1,0.9-1.1c0.5-0.1,1,0.3,1.1,0.9C186.9,241,186.9,241,186.9,241z M189.9,241.1c-0.1,0-0.1,0-0.2,0
			c-0.5,0-0.9-0.3-1-0.8c-0.1-0.5,0.3-1,0.8-1.1c0.5-0.1,1,0.3,1.1,0.8C190.8,240.5,190.4,241,189.9,241.1z M194.7,239.7
			c-0.5,0.4-0.9,0.7-1,0.7c0,0,0,0-0.1,0c-0.4,0-0.8-0.3-1-0.8c-0.1-0.5,0.2-1,0.7-1.2c0.5-0.1,1,0.2,1.2,0.7
			C194.7,239.7,194.7,239.7,194.7,239.7z M197.6,239.3c-0.1,0-0.2,0-0.3,0c-0.4,0-0.8-0.3-0.9-0.7c-0.1-0.5,0.1-1.1,0.7-1.2
			c0.5-0.2,1.1,0.1,1.2,0.7C198.4,238.6,198.1,239.2,197.6,239.3z M201.4,238.1c-0.1,0-0.2,0.1-0.3,0.1c-0.4,0-0.4,0-0.4,0
			c-0.3-0.4-0.5-1.1-0.4-1.7c0,0,0,0,0.5-0.2c0.5-0.2,1.1,0.1,1.2,0.6C202.1,237.3,201.9,237.9,201.4,238.1z M205,236.6
			c-0.1,0.1-0.3,0.1-0.4,0.1c-0.4,0-0.7-0.2-0.9-0.6c-0.2-0.5,0-1.1,0.5-1.3c0.5-0.2,1.1,0,1.3,0.5
			C205.8,235.8,205.5,236.4,205,236.6z M208.6,234.8c-0.1,0.1-0.3,0.1-0.4,0.1c-0.4,0-0.7-0.2-0.9-0.5c-0.2-0.5-0.2-0.5-0.2-0.5
			c0.4-0.5,0.7-0.8,0.7-0.8s0.5,0,1.1-0.1c0,0,0,0,0.2,0.5C209.3,234,209.1,234.6,208.6,234.8z M212.1,232.9
			c-0.2,0.1-0.3,0.1-0.5,0.1c-0.3,0-0.6-0.2-0.8-0.5c-0.3-0.5-0.1-1.1,0.3-1.3c0.5-0.3,1.1-0.1,1.3,0.3
			C212.7,232,212.5,232.6,212.1,232.9z M215.4,230.7c-0.2,0.1-0.4,0.2-0.6,0.2c-0.3,0-0.6-0.2-0.8-0.4c-0.3-0.4-0.2-1,0.2-1.4
			c0.4-0.3,1.1-0.2,1.4,0.2C215.9,229.8,215.8,230.4,215.4,230.7z M218.5,228.4c-0.2,0.1-0.4,0.2-0.6,0.2c-0.3,0-0.6-0.1-0.8-0.4
			c-0.3-0.4-0.3-1,0.2-1.4c0.4-0.3,1-0.3,1.4,0.2C219,227.4,219,228,218.5,228.4z M221.5,225.8c-0.2,0.2-0.4,0.3-0.7,0.3
			c-0.3,0-0.5-0.1-0.7-0.3c-0.4-0.4-0.4-0.4-0.4-0.4c0.2-0.5,0.4-1,0.4-1s0.5-0.1,1-0.3c0,0,0,0,0.4,0.4
			C222,224.8,221.9,225.4,221.5,225.8z M180,235c-30.4,0-55-24.6-55-55c0-30.4,24.6-55,55-55c30.4,0,55,24.6,55,55
			C235,210.4,210.4,235,180,235z M224.8,222.1c-0.2,0.6-0.6,1.1-0.8,1.3c0,0,0,0-0.2,0c-0.2,0-0.5-0.1-0.7-0.3c-0.4-0.4-0.4-1,0-1.4
			c0.4-0.4,1-0.4,1.4,0C224.8,222.1,224.8,222.1,224.8,222.1z M227.1,220.1c-0.2,0.2-0.5,0.3-0.7,0.3c-0.2,0-0.4-0.1-0.6-0.2
			c-0.4-0.3-0.5-1-0.1-1.4c0.3-0.4,1-0.5,1.4-0.1C227.4,219.1,227.4,219.7,227.1,220.1z M229.5,217c-0.2,0.3-0.5,0.4-0.8,0.4
			c-0.2,0-0.4-0.1-0.6-0.2c-0.4-0.3-0.5-0.9-0.2-1.4c0.3-0.4,0.9-0.5,1.4-0.2C229.8,216,229.8,216.6,229.5,217z M231.8,213.8
			c-0.2,0.3-0.5,0.5-0.8,0.5c-0.2,0-0.4-0.1-0.5-0.2c-0.4-0.3-0.6-0.9-0.3-1.4c0.3-0.4,0.9-0.6,1.3-0.3
			C232,212.7,232.1,213.3,231.8,213.8z M233.8,210.4c-0.2,0.3-0.5,0.5-0.8,0.5c-0.2,0-0.3,0-0.5-0.1c-0.5-0.3-0.6-0.9-0.4-1.3
			c0.3-0.5,0.9-0.6,1.3-0.4C233.9,209.3,234.1,209.9,233.8,210.4z M235.7,206.9c-0.2,0.4-0.5,0.6-0.9,0.6c-0.1,0-0.1,0-0.1,0
			c-0.1-0.1-0.6-0.5-1-0.9c0,0,0,0,0.2-0.5c0.2-0.5,0.8-0.7,1.3-0.5C235.7,205.8,235.9,206.4,235.7,206.9z M237.3,203.3
			c-0.2,0.4-0.5,0.6-0.9,0.6c-0.1,0-0.2,0-0.4-0.1c-0.5-0.2-0.7-0.8-0.5-1.3c0.2-0.5,0.8-0.7,1.3-0.5
			C237.2,202.2,237.5,202.8,237.3,203.3z M238.7,199.5c-0.1,0.4-0.5,0.7-0.9,0.7c-0.1,0-0.1,0-0.1,0c-0.1,0-0.6-0.4-1-0.8
			c0,0,0,0,0.2-0.5c0.2-0.5,0.7-0.8,1.2-0.6C238.6,198.5,238.8,199,238.7,199.5z M239.8,195.7c-0.1,0.4-0.5,0.7-0.9,0.7
			c-0.1,0-0.1,0-0.1,0c-0.1,0-0.5-0.3-1-0.7c0,0,0,0,0.1-0.5c0.1-0.5,0.7-0.8,1.2-0.7C239.6,194.7,239.9,195.2,239.8,195.7z
			 M239.7,192.7C239.6,192.7,239.6,192.7,239.7,192.7c-0.1,0-0.6-0.3-1-0.6c0,0,0,0,0.1-0.5c0.1-0.5,0.6-0.9,1.1-0.8
			c0.5,0.1,0.9,0.6,0.8,1.1C240.6,192.3,240.2,192.7,239.7,192.7z M240.3,188.8C240.3,188.8,240.3,188.8,240.3,188.8
			c-0.1,0-0.5-0.3-1-0.6c0,0,0,0,0.1-0.5c0.1-0.5,0.6-0.9,1.1-0.8c0.5,0.1,0.9,0.6,0.8,1.1C241.2,188.5,240.8,188.8,240.3,188.8z
			 M240.7,184.9C240.7,184.9,240.7,184.9,240.7,184.9c0,0-0.5-0.2-1-0.5c0,0,0,0,0-0.5c0-0.5,0.5-0.9,1-0.9c0.5,0,0.9,0.5,0.9,1
			C241.6,184.6,241.2,184.9,240.7,184.9z M241.8,180c0,0,0,0.1,0,0.1c0,0.5-0.4,1-1,1s-1-0.4-1-1c0,0,0-0.1,0-0.1c0,0,0-0.1,0-0.1
			c0-0.5,0.4-1,1-1c0.5,0,1,0.4,1,1C241.8,179.9,241.8,179.9,241.8,180z"/>
	</g>
	<path id="XMLID_2_" class="st0" d="M202.4,146.1c0,0,0-0.1,0-0.1c0,0,0-0.1,0-0.1c0,0,0-0.1-0.1-0.1c0,0,0,0,0-0.1c0,0,0,0,0,0
		c0,0-0.1-0.1-0.1-0.1c0,0,0,0-0.1-0.1c0,0,0,0,0,0c0,0-0.1,0-0.1,0c0,0-0.1,0-0.1,0c-0.1,0-0.1,0-0.2,0c0,0,0,0,0,0
		c-0.1,0-0.1,0-0.2,0.1c0,0,0,0,0,0c-45.2,31.2-51,37-51.2,37.2c-0.2,0.2-0.2,0.6-0.1,0.8c2.2,3.1,8.4,5.7,8.6,5.9
		c0.1,0,0.2,0.1,0.2,0.1c0.2,0,0.3-0.1,0.4-0.2l35.6-35.6l-30.4,39c-0.1,0.2-0.2,0.4-0.1,0.6c3.1,10.8,14,25.5,14.5,26.1
		c0.1,0.2,0.3,0.3,0.5,0.3c0,0,0,0,0.1,0c0.2,0,0.4-0.2,0.5-0.4c9.3-20.5,22.1-72.5,22.2-73C202.4,146.2,202.4,146.2,202.4,146.1
		C202.4,146.2,202.4,146.1,202.4,146.1z"/>
</g>
</svg>
