<?xml version="1.0" encoding="utf-8"?>
<!-- Generator: Adobe Illustrator 19.0.1, SVG Export Plug-In . SVG Version: 6.00 Build 0)  -->
<svg version="1.1" id="Layer_1" xmlns="http://www.w3.org/2000/svg" xmlns:xlink="http://www.w3.org/1999/xlink" x="0px" y="0px"
	 width="605.2px" height="106.1px" viewBox="0 0 605.2 106.1" style="enable-background:new 0 0 605.2 106.1;" xml:space="preserve"
	>
<style type="text/css">
	.st0{fill:#FFFFFF;}
</style>
<path class="st0" d="M90.5,66.5c0,15.7,12.5,28.4,28.1,28.4c15.7,0,28.2-12.7,28.3-28.4c0-15.7-12.6-28.4-28.3-28.4
	C103,38,90.5,50.8,90.5,66.5 M118.6,104.6c-20.9,0-37.7-17.1-37.8-38.1c0-21,16.8-38.2,37.8-38.2c10.5,0,20,4.3,26.8,11.2
	c6.8,6.9,11.1,16.5,11.1,27c0,10.5-4.2,20.1-11.1,27C138.6,100.3,129.1,104.6,118.6,104.6L118.6,104.6z"/>
<path id="XMLID_11_" class="st0" d="M452.6,66.5c0-21,17-38.1,37.9-38.2c12.6,0,23.9,6.3,30.7,16l-7.8,5.6
	C508.3,42.7,500,38,490.5,38c-7.8,0-14.8,3.2-20,8.3c-5.1,5.2-8.3,12.3-8.3,20.1c0,7.9,3.2,14.9,8.3,20.1c5.1,5.2,12.2,8.3,20,8.3
	c9.4,0,17.8-4.7,22.9-11.9l7.9,5.6c-6.8,9.7-18.1,16-30.8,16C469.6,104.6,452.6,87.5,452.6,66.5"/>
<path id="XMLID_10_" class="st0" d="M30.6,28.3c-8.1,0-15.5,3.2-21,8.4H0V59v0.1v45.6h9.6V59.1C9.6,47.4,19,38,30.6,38
	c11.5,0,20.8,9.4,20.8,21.1v45.6h9.6V59.1C61.1,42.1,47.4,28.3,30.6,28.3"/>
<path id="XMLID_9_" class="st0" d="M596.2,37.3c-5.5-5.6-13.2-9-21.7-9c-8.1,0-15.4,3.2-20.8,8.3V0H544v104.6h9.6V59
	C553.7,47.4,563,38,574.5,38c11.7,0,21,9.4,21,21.1v45.6h9.6V59.1C605.2,50.6,601.7,42.9,596.2,37.3"/>
<path id="XMLID_8_" class="st0" d="M347.4,37.3c-5.6-5.6-13.2-9-21.7-9c-8.1,0-15.4,3.2-20.8,8.3V0h-9.7v104.6h9.7V59
	c0.1-11.6,9.4-20.9,20.8-20.9c11.7,0,21,9.4,21,21.1v45.6h9.6V59.1C356.4,50.6,352.9,42.9,347.4,37.3"/>
<rect id="XMLID_7_" x="382.5" y="0" class="st0" width="9.7" height="104.6"/>
<rect id="XMLID_6_" x="420" y="0" class="st0" width="9.6" height="16.5"/>
<rect id="XMLID_5_" x="420" y="28.3" class="st0" width="9.6" height="76.3"/>
<path id="XMLID_4_" class="st0" d="M207,28.3c-8.1,0-15.4,3.2-20.9,8.4h-9.6V59v0v45.6h9.6V59.1c0-11.6,9.4-21,20.8-21.1
	c2.6,0,5.1,0.5,7.3,1.3l3.4-9.1C214.3,28.9,210.7,28.3,207,28.3"/>
<path id="XMLID_3_" class="st0" d="M250.1,75.3l0-37.3h15.8v-9.7h-15.8V8.2h-9.6v20.1h-8.6V38h8.6v37.2c0,8.5,3.4,16.2,9,21.8
	c5.5,5.6,13.2,9,21.7,9v-9.7C259.4,96.4,250.1,86.9,250.1,75.3"/>
</svg>
