<?xml version="1.0" encoding="utf-8"?>
<!-- Generator: Adobe Illustrator 19.0.1, SVG Export Plug-In . SVG Version: 6.00 Build 0)  -->
<svg version="1.1" id="Layer_1" xmlns="http://www.w3.org/2000/svg" xmlns:xlink="http://www.w3.org/1999/xlink" x="0px" y="0px"
	 width="716px" height="140px" viewBox="0 0 716 140" style="enable-background:new 0 0 716 140;" xml:space="preserve">
<style type="text/css">
	.st0{fill:#FFFFFF;}
</style>
<path class="st0" d="M201.4,100.4c0,15.7,12.5,28.4,28.1,28.4c15.7,0,28.2-12.7,28.3-28.4c0-15.7-12.6-28.4-28.3-28.4
	C213.9,72,201.4,84.7,201.4,100.4 M229.5,138.6c-20.9,0-37.7-17.1-37.8-38.1c0-21,16.8-38.2,37.8-38.2c10.5,0,20,4.3,26.8,11.2
	c6.8,6.9,11.1,16.5,11.1,27c0,10.5-4.2,20.1-11.1,27C249.5,134.3,240,138.6,229.5,138.6L229.5,138.6z"/>
<path id="XMLID_11_" class="st0" d="M563.5,100.4c0-21,17-38.1,37.9-38.2c12.6,0,23.9,6.3,30.7,16l-7.8,5.6
	c-5.2-7.3-13.5-11.9-22.9-11.9c-7.8,0-14.8,3.2-20,8.3c-5.1,5.2-8.3,12.3-8.3,20.1c0,7.9,3.2,14.9,8.3,20.1c5.1,5.2,12.2,8.3,20,8.3
	c9.4,0,17.8-4.7,22.9-11.9l7.9,5.6c-6.8,9.7-18.1,16-30.8,16C580.5,138.5,563.5,121.5,563.5,100.4"/>
<path id="XMLID_10_" class="st0" d="M141.5,62.2c-8.1,0-15.5,3.2-21,8.4h-9.6v22.3V93v45.6h9.6V93c0-11.6,9.4-21.1,21-21.1
	c11.5,0,20.8,9.4,20.8,21.1v45.6h9.6V93C171.9,76,158.3,62.3,141.5,62.2"/>
<path id="XMLID_9_" class="st0" d="M707,71.3c-5.5-5.6-13.2-9-21.7-9c-8.1,0-15.4,3.2-20.8,8.3V33.9h-9.6v104.6h9.6V92.9
	c0.1-11.6,9.4-20.9,20.8-20.9c11.7,0,21,9.4,21,21.1v45.6h9.6V93C716,84.6,712.6,76.8,707,71.3"/>
<path id="XMLID_8_" class="st0" d="M458.2,71.3c-5.6-5.6-13.2-9-21.7-9c-8.1,0-15.4,3.2-20.8,8.3V33.9H406v104.6h9.7V92.9
	c0.1-11.6,9.4-20.9,20.8-20.9c11.7,0,21,9.4,21,21.1v45.6h9.6V93C467.2,84.6,463.8,76.8,458.2,71.3"/>
<rect id="XMLID_7_" x="493.3" y="33.9" class="st0" width="9.7" height="104.6"/>
<rect id="XMLID_6_" x="530.9" y="33.9" class="st0" width="9.6" height="16.5"/>
<rect id="XMLID_5_" x="530.9" y="62.2" class="st0" width="9.6" height="76.3"/>
<path id="XMLID_4_" class="st0" d="M317.8,62.2c-8.1,0-15.4,3.2-20.9,8.4h-9.6V93v0v45.6h9.6V93c0-11.6,9.4-21,20.8-21.1
	c2.6,0,5.1,0.5,7.3,1.3l3.4-9.1C325.2,62.9,321.5,62.2,317.8,62.2"/>
<path id="XMLID_3_" class="st0" d="M360.9,109.2l0-37.3h15.8v-9.7h-15.8V42.2h-9.6v20.1h-8.6V72h8.6v37.2c0,8.5,3.4,16.2,9,21.8
	c5.5,5.6,13.2,9,21.7,9v-9.7C370.3,130.3,360.9,120.9,360.9,109.2"/>
<path id="XMLID_2_" class="st0" d="M71.2,0L11.7,60c0,0-8.7-3.8-11.7-7.9C0,52.1,7.5,44.1,71.2,0"/>
<path id="XMLID_1_" class="st0" d="M71.2,0c0,0-17.9,73.2-30.9,102.2c0,0-15.8-21.2-20.1-36.3L71.2,0z"/>
</svg>
